<svg xmlns="http://www.w3.org/2000/svg" xmlns:xlink="http://www.w3.org/1999/xlink" viewBox="0 0 620.92 480.29"><defs><style>.cls-1{isolation:isolate;}.cls-2{fill:url(#linear-gradient);}.cls-3,.cls-7{mix-blend-mode:screen;}.cls-3{fill:url(#linear-gradient-2);}.cls-4{fill:#797a7e;}.cls-5{fill:url(#linear-gradient-3);}.cls-6{fill:#fff;}.cls-7{fill:url(#linear-gradient-4);}</style><linearGradient id="linear-gradient" x1="310.42" y1="479" x2="310.42" y2="345.71" gradientUnits="userSpaceOnUse"><stop offset="0" stop-color="#babbc1"/><stop offset="0.04" stop-color="#a0a1a5"/><stop offset="0.06" stop-color="#87888c"/><stop offset="0.08" stop-color="#797a7e"/><stop offset="0.09" stop-color="#848589"/><stop offset="0.12" stop-color="#a1a2a5"/><stop offset="0.15" stop-color="#d0d1d2"/><stop offset="0.17" stop-color="#eaebec"/><stop offset="0.73" stop-color="#908e8f"/><stop offset="0.84" stop-color="#8b898a"/></linearGradient><linearGradient id="linear-gradient-2" x1="310.4" y1="479" x2="310.4" y2="477.06" gradientUnits="userSpaceOnUse"><stop offset="0" stop-color="#101010"/><stop offset="0.09"/><stop offset="0.63" stop-color="#f1f2f3"/><stop offset="0.88"/></linearGradient><linearGradient id="linear-gradient-3" y1="184.97" x2="620.92" y2="184.97" gradientUnits="userSpaceOnUse"><stop offset="0" stop-color="#c7c6c6"/><stop offset="0.46" stop-color="#e5e5e5"/><stop offset="1" stop-color="#828081"/></linearGradient><linearGradient id="linear-gradient-4" x1="416.23" y1="304.38" x2="613.39" y2="1.94" gradientUnits="userSpaceOnUse"><stop offset="0" stop-color="#181818"/><stop offset="1" stop-color="#4a4a4a"/></linearGradient></defs><title>desktop</title><g class="cls-1"><g id="Layer_2" data-name="Layer 2"><g id="Layer_1-2" data-name="Layer 1"><path class="cls-2" d="M403.8,474.29c-4.88-1.28-15-2.91-21.19-4.24-3.27-.71-4-2.75-4.55-5.49-2.39-12.49-6.87-54.91-6.87-54.91h0l-6-63.93H256.69l-7,63.93s-4.48,42.42-6.87,54.91c-.53,2.75-1.28,4.78-4.55,5.49-6.17,1.34-16.32,3-21.19,4.24a1.88,1.88,0,0,0-1.29,2.77,2.37,2.37,0,0,0,1.41,1.19c1.59.52,50.22.76,97.42.75,44.43,0,87.61-.26,89.11-.75a2.37,2.37,0,0,0,1.37-1.12A1.89,1.89,0,0,0,403.8,474.29Z"/><path class="cls-3" d="M405.05,477.13a2.37,2.37,0,0,1-1.37,1.12c-1.5.48-44.67.73-89.11.75-47.21,0-95.83-.23-97.42-.75a2.37,2.37,0,0,1-1.41-1.19Z"/><path class="cls-4" d="M215.74,477.06c-.16-.57.74,1,1.41,1.19,1.59.52,50.22.76,97.42.75,44.43,0,87.61-.26,89.11-.75a2.37,2.37,0,0,0,1.37-1.12s0,3.22-4.69,3.16-180.22,0-180.22,0S216.62,480.17,215.74,477.06Z"/><rect class="cls-5" width="620.92" height="369.94" rx="14.91" ry="14.91"/><path d="M606,0H14.91A15,15,0,0,0,0,14.91V355.12a14.82,14.82,0,0,0,14.82,14.82H606.1a14.82,14.82,0,0,0,14.82-14.82V14.91A15,15,0,0,0,606,0Z"/><rect class="cls-6" x="25.47" y="24.23" width="569.98" height="321.49"/><path class="cls-7" d="M606,0H374c47.26,122.84,95.2,247.11,142.78,369.94H606.1a14.82,14.82,0,0,0,14.82-14.82V14.91A15,15,0,0,0,606,0Z"/></g></g></g></svg>