<svg xmlns="http://www.w3.org/2000/svg" xmlns:xlink="http://www.w3.org/1999/xlink" viewBox="0 0 498.87 285.48"><defs><style>.cls-1{isolation:isolate;}.cls-2{fill:#d8d9db;stroke:#939499;stroke-miterlimit:10;stroke-width:0.78px;}.cls-3{fill:#0d1218;}.cls-4{fill:#515151;}.cls-5{fill:#0b0f14;}.cls-6{fill:#fff;}.cls-7{fill:url(#linear-gradient);}.cls-12,.cls-8{mix-blend-mode:screen;}.cls-8{fill:url(#radial-gradient);}.cls-9{fill:url(#linear-gradient-2);}.cls-10{fill:url(#linear-gradient-3);}.cls-11{fill:url(#linear-gradient-4);}.cls-12,.cls-13{fill-rule:evenodd;}.cls-12{fill:url(#linear-gradient-5);}.cls-14{fill:url(#linear-gradient-6);}.cls-15{fill:url(#linear-gradient-7);}.cls-16{fill:url(#linear-gradient-8);}.cls-17{fill:url(#linear-gradient-9);}.cls-18{fill:url(#linear-gradient-10);}.cls-19{fill:url(#linear-gradient-11);}.cls-20{fill:url(#linear-gradient-12);}.cls-21{fill:url(#linear-gradient-13);}.cls-22{fill:url(#linear-gradient-14);}.cls-23{fill:url(#linear-gradient-15);}.cls-24{fill:url(#linear-gradient-16);}.cls-25{fill:url(#linear-gradient-17);}.cls-26{fill:url(#linear-gradient-18);}.cls-27{fill:url(#linear-gradient-19);}.cls-28{fill:url(#linear-gradient-20);}.cls-29{fill:url(#linear-gradient-21);}.cls-30{fill:url(#linear-gradient-22);}.cls-31{fill:url(#linear-gradient-23);}.cls-32{fill:url(#linear-gradient-24);}.cls-33{opacity:0.2;mix-blend-mode:multiply;}.cls-34{fill:url(#linear-gradient-25);}.cls-35{fill:url(#linear-gradient-26);}.cls-36{fill:url(#linear-gradient-27);}.cls-37{fill:url(#linear-gradient-28);}.cls-38{fill:url(#linear-gradient-29);}.cls-39{fill:url(#linear-gradient-30);}.cls-40{fill:url(#radial-gradient-2);}</style><linearGradient id="linear-gradient" x1="249.19" y1="278.92" x2="249.19" y2="266.96" gradientUnits="userSpaceOnUse"><stop offset="0.6" stop-color="#282c30"/><stop offset="0.71" stop-color="#24272a"/><stop offset="0.86" stop-color="#17191b"/><stop offset="1" stop-color="#050505"/></linearGradient><radialGradient id="radial-gradient" cx="249.19" cy="272.94" r="113.06" gradientUnits="userSpaceOnUse"><stop offset="0" stop-color="#282c30"/><stop offset="1" stop-color="#050505"/></radialGradient><linearGradient id="linear-gradient-2" y1="278.81" x2="498.87" y2="278.81" gradientUnits="userSpaceOnUse"><stop offset="0" stop-color="#747479"/><stop offset="0.01" stop-color="#ededef"/><stop offset="0.02" stop-color="#939499"/><stop offset="0.04" stop-color="#9d9ea2"/><stop offset="0.05" stop-color="#c7c8ca"/><stop offset="0.5" stop-color="#f2f2f4"/><stop offset="0.95" stop-color="#d8d9db"/><stop offset="0.97" stop-color="#939499"/><stop offset="1" stop-color="#d8d9db"/><stop offset="1" stop-color="#747479"/></linearGradient><linearGradient id="linear-gradient-3" x1="249.43" y1="285.48" x2="249.43" y2="278.85" gradientUnits="userSpaceOnUse"><stop offset="0" stop-color="#212122"/><stop offset="0.12" stop-color="#3e3e40"/><stop offset="0.28" stop-color="#5e5e61"/><stop offset="0.45" stop-color="#76777a"/><stop offset="0.62" stop-color="#88898d"/><stop offset="0.8" stop-color="#939497"/><stop offset="1" stop-color="#96979b"/></linearGradient><linearGradient id="linear-gradient-4" x1="214.8" y1="274.52" x2="284.42" y2="274.52" gradientUnits="userSpaceOnUse"><stop offset="0" stop-color="#747479"/><stop offset="0.07" stop-color="#dedee0"/><stop offset="0.5" stop-color="#d8d9db"/><stop offset="0.93" stop-color="#dedee0"/><stop offset="1" stop-color="#747479"/></linearGradient><linearGradient id="linear-gradient-5" x1="321.81" y1="213.92" x2="453.94" y2="11.22" gradientUnits="userSpaceOnUse"><stop offset="0" stop-color="#181818"/><stop offset="1" stop-color="#4a4a4a"/></linearGradient><linearGradient id="linear-gradient-6" x1="244.52" y1="7.48" x2="253.01" y2="12.18" gradientUnits="userSpaceOnUse"><stop offset="0" stop-color="#010101"/><stop offset="1" stop-color="#040404"/></linearGradient><linearGradient id="linear-gradient-7" x1="244.54" y1="7.49" x2="253" y2="12.18" gradientUnits="userSpaceOnUse"><stop offset="0" stop-color="#020202"/><stop offset="1" stop-color="#090909"/></linearGradient><linearGradient id="linear-gradient-8" x1="244.55" y1="7.5" x2="252.99" y2="12.17" gradientUnits="userSpaceOnUse"><stop offset="0" stop-color="#030303"/><stop offset="1" stop-color="#0d0d0d"/></linearGradient><linearGradient id="linear-gradient-9" x1="244.57" y1="7.5" x2="252.98" y2="12.17" gradientUnits="userSpaceOnUse"><stop offset="0" stop-color="#040404"/><stop offset="1" stop-color="#111"/></linearGradient><linearGradient id="linear-gradient-10" x1="244.58" y1="7.51" x2="252.97" y2="12.16" gradientUnits="userSpaceOnUse"><stop offset="0" stop-color="#050505"/><stop offset="1" stop-color="#161616"/></linearGradient><linearGradient id="linear-gradient-11" x1="244.59" y1="7.52" x2="252.96" y2="12.16" gradientUnits="userSpaceOnUse"><stop offset="0" stop-color="#060606"/><stop offset="1" stop-color="#1a1a1a"/></linearGradient><linearGradient id="linear-gradient-12" x1="244.61" y1="7.53" x2="252.95" y2="12.15" gradientUnits="userSpaceOnUse"><stop offset="0" stop-color="#070707"/><stop offset="1" stop-color="#1e1e1e"/></linearGradient><linearGradient id="linear-gradient-13" x1="244.62" y1="7.53" x2="252.94" y2="12.15" gradientUnits="userSpaceOnUse"><stop offset="0" stop-color="#080808"/><stop offset="1" stop-color="#232323"/></linearGradient><linearGradient id="linear-gradient-14" x1="244.63" y1="7.54" x2="252.93" y2="12.14" gradientUnits="userSpaceOnUse"><stop offset="0" stop-color="#090909"/><stop offset="1" stop-color="#272727"/></linearGradient><linearGradient id="linear-gradient-15" x1="244.65" y1="7.55" x2="252.92" y2="12.13" gradientUnits="userSpaceOnUse"><stop offset="0" stop-color="#0a0a0a"/><stop offset="1" stop-color="#2b2b2b"/></linearGradient><linearGradient id="linear-gradient-16" x1="244.66" y1="7.56" x2="252.91" y2="12.13" gradientUnits="userSpaceOnUse"><stop offset="0" stop-color="#0b0b0b"/><stop offset="1" stop-color="#2f2f2f"/></linearGradient><linearGradient id="linear-gradient-17" x1="244.67" y1="7.56" x2="252.9" y2="12.12" gradientUnits="userSpaceOnUse"><stop offset="0" stop-color="#0c0c0c"/><stop offset="1" stop-color="#343434"/></linearGradient><linearGradient id="linear-gradient-18" x1="244.69" y1="7.57" x2="252.89" y2="12.12" gradientUnits="userSpaceOnUse"><stop offset="0" stop-color="#0d0d0d"/><stop offset="1" stop-color="#383838"/></linearGradient><linearGradient id="linear-gradient-19" x1="244.7" y1="7.58" x2="252.88" y2="12.11" gradientUnits="userSpaceOnUse"><stop offset="0" stop-color="#0e0e0e"/><stop offset="1" stop-color="#3c3c3c"/></linearGradient><linearGradient id="linear-gradient-20" x1="244.71" y1="7.59" x2="252.87" y2="12.11" gradientUnits="userSpaceOnUse"><stop offset="0" stop-color="#0f0f0f"/><stop offset="1" stop-color="#414141"/></linearGradient><linearGradient id="linear-gradient-21" x1="244.73" y1="7.59" x2="252.86" y2="12.1" gradientUnits="userSpaceOnUse"><stop offset="0" stop-color="#101010"/><stop offset="1" stop-color="#454545"/></linearGradient><linearGradient id="linear-gradient-22" x1="244.74" y1="7.6" x2="252.85" y2="12.1" gradientUnits="userSpaceOnUse"><stop offset="0" stop-color="#111"/><stop offset="1" stop-color="#494949"/></linearGradient><linearGradient id="linear-gradient-23" x1="244.75" y1="7.61" x2="252.84" y2="12.09" gradientUnits="userSpaceOnUse"><stop offset="0" stop-color="#121212"/><stop offset="1" stop-color="#4e4e4e"/></linearGradient><linearGradient id="linear-gradient-24" x1="244.77" y1="7.62" x2="252.83" y2="12.09" gradientUnits="userSpaceOnUse"><stop offset="0" stop-color="#131313"/><stop offset="1" stop-color="#525252"/></linearGradient><linearGradient id="linear-gradient-25" x1="253.44" y1="12.42" x2="246.52" y2="8.59" gradientUnits="userSpaceOnUse"><stop offset="0" stop-color="#262626"/><stop offset="1" stop-color="#4f4f4f"/></linearGradient><linearGradient id="linear-gradient-26" x1="245.59" y1="8.07" x2="252.24" y2="11.76" xlink:href="#linear-gradient-25"/><linearGradient id="linear-gradient-27" x1="252.69" y1="12.01" x2="247.06" y2="8.89" xlink:href="#linear-gradient-25"/><linearGradient id="linear-gradient-28" x1="246.3" y1="8.47" x2="251.71" y2="11.46" xlink:href="#linear-gradient-25"/><linearGradient id="linear-gradient-29" x1="251.97" y1="11.61" x2="247.59" y2="9.18" xlink:href="#linear-gradient-25"/><linearGradient id="linear-gradient-30" x1="247" y1="8.85" x2="251.21" y2="11.19" xlink:href="#linear-gradient-25"/><radialGradient id="radial-gradient-2" cx="249.32" cy="9.95" r="0.87" gradientUnits="userSpaceOnUse"><stop offset="0" stop-color="#6a97b4"/><stop offset="0.09" stop-color="#5e87a4"/><stop offset="0.38" stop-color="#3d5e79"/><stop offset="0.63" stop-color="#25405a"/><stop offset="0.85" stop-color="#162e47"/><stop offset="1" stop-color="#112740"/></radialGradient></defs><title>laptop</title><g class="cls-1"><g id="Layer_2" data-name="Layer 2"><g id="Layer_1-2" data-name="Layer 1"><rect class="cls-2" x="45.95" y="0.39" width="406.97" height="282.31" rx="15.05" ry="15.05"/><rect class="cls-3" x="47.51" y="1.95" width="403.85" height="279.19" rx="13.49" ry="13.49"/><path class="cls-4" d="M56.4,267c-6.12,0-8.89-3.38-8.89-9.1V15.44A13.5,13.5,0,0,1,61,2H437.87a13.5,13.5,0,0,1,13.49,13.49V258.08c0,6.14-2.93,8.87-9.66,8.87Z"/><path class="cls-5" d="M56.4,265.79c-5.19,0-7.72-2.59-7.72-7.93V15.44A12.33,12.33,0,0,1,61,3.12H437.87a12.33,12.33,0,0,1,12.32,12.32V258.08c0,5.47-2.46,7.7-8.49,7.7Z"/><rect class="cls-6" x="60.46" y="17.54" width="379.27" height="237.45"/><rect class="cls-7" x="89.41" y="266.96" width="319.56" height="11.96"/><rect class="cls-8" x="89.41" y="266.96" width="319.56" height="11.96"/><path class="cls-9" d="M249.43,272.14H0v6.71s11,6.63,16.55,6.63H482.32c5.52,0,16.55-6.63,16.55-6.63v-6.71Z"/><path class="cls-10" d="M0,278.85s11,6.63,16.55,6.63H482.32c5.52,0,16.55-6.63,16.55-6.63Z"/><path class="cls-11" d="M279,276.9H220.07c-4.75,0-5.27-4.76-5.27-4.76h69.62A5.19,5.19,0,0,1,279,276.9Z"/><path class="cls-12" d="M401.37,265.79H441.7c6,0,8.49-2.23,8.49-7.7V15.44A12.33,12.33,0,0,0,437.87,3.12H300C333.3,89.85,367.71,179.06,401.37,265.79Z"/><path class="cls-13" d="M249.43,7.13a3.08,3.08,0,1,0,3.08,3.08,3.08,3.08,0,0,0-3.08-3.08Z"/><path class="cls-14" d="M249.43,7.13h0a3.07,3.07,0,1,1-3.07,3.07A3.07,3.07,0,0,1,249.43,7.13Z"/><path class="cls-15" d="M249.43,7.14h0a3.06,3.06,0,1,1-3.06,3.06A3.06,3.06,0,0,1,249.43,7.14Z"/><path class="cls-16" d="M249.43,7.15h0a3.05,3.05,0,1,1-3.05,3.05A3.05,3.05,0,0,1,249.43,7.15Z"/><path class="cls-17" d="M249.43,7.16h0a3,3,0,1,1-3,3A3,3,0,0,1,249.43,7.16Z"/><path class="cls-18" d="M249.43,7.17h0a3,3,0,1,1-3,3A3,3,0,0,1,249.43,7.17Z"/><path class="cls-19" d="M249.43,7.18h0a3,3,0,1,1-3,3A3,3,0,0,1,249.43,7.18Z"/><path class="cls-20" d="M249.43,7.18h0a3,3,0,1,1-3,3A3,3,0,0,1,249.43,7.18Z"/><path class="cls-21" d="M249.43,7.19h0a3,3,0,1,1-3,3A3,3,0,0,1,249.43,7.19Z"/><path class="cls-22" d="M249.43,7.2h0a3,3,0,1,1-3,3A3,3,0,0,1,249.43,7.2Z"/><path class="cls-23" d="M249.43,7.21h0a3,3,0,1,1-3,3A3,3,0,0,1,249.43,7.21Z"/><path class="cls-24" d="M249.43,7.22h0a3,3,0,1,1-3,3A3,3,0,0,1,249.43,7.22Z"/><path class="cls-25" d="M249.43,7.23h0a3,3,0,1,1-3,3A3,3,0,0,1,249.43,7.23Z"/><path class="cls-26" d="M249.43,7.24h0a3,3,0,1,1-3,3A3,3,0,0,1,249.43,7.24Z"/><path class="cls-27" d="M249.43,7.24h0a3,3,0,1,1-3,3A3,3,0,0,1,249.43,7.24Z"/><path class="cls-28" d="M249.43,7.25h0a3,3,0,1,1-3,2.95A3,3,0,0,1,249.43,7.25Z"/><path class="cls-29" d="M249.43,7.26h0a2.94,2.94,0,1,1-2.94,2.94A2.94,2.94,0,0,1,249.43,7.26Z"/><path class="cls-30" d="M249.43,7.27h0a2.93,2.93,0,1,1-2.93,2.93A2.93,2.93,0,0,1,249.43,7.27Z"/><path class="cls-31" d="M249.43,7.28h0a2.92,2.92,0,1,1-2.92,2.92A2.92,2.92,0,0,1,249.43,7.28Z"/><circle class="cls-32" cx="249.43" cy="10.2" r="2.92"/><g class="cls-33"><circle class="cls-34" cx="249.43" cy="10.2" r="2.5"/><circle class="cls-35" cx="249.43" cy="10.2" r="2.4"/></g><g class="cls-33"><circle class="cls-36" cx="249.43" cy="10.2" r="2.03"/><circle class="cls-37" cx="249.43" cy="10.2" r="1.96"/></g><g class="cls-33"><circle class="cls-38" cx="249.43" cy="10.2" r="1.58"/><circle class="cls-39" cx="249.43" cy="10.2" r="1.52"/></g><circle class="cls-40" cx="249.43" cy="10.2" r="0.87"/></g></g></g></svg>