<svg xmlns="http://www.w3.org/2000/svg" xmlns:xlink="http://www.w3.org/1999/xlink" viewBox="0 0 83.59 174.54"><defs><style>.cls-1,.cls-20{fill:url(#radial-gradient);}.cls-1{clip-rule:evenodd;}.cls-2{isolation:isolate;}.cls-114,.cls-115,.cls-13,.cls-14,.cls-143,.cls-18,.cls-19,.cls-20,.cls-3,.cls-4,.cls-5,.cls-6,.cls-7{fill-rule:evenodd;}.cls-3{fill:url(#linear-gradient);}.cls-4{fill:url(#linear-gradient-2);}.cls-5{fill:url(#linear-gradient-3);}.cls-6{fill:url(#linear-gradient-4);}.cls-7{fill:url(#radial-gradient-2);}.cls-8{fill:url(#New_Gradient_Swatch_1);}.cls-10,.cls-11,.cls-12,.cls-143,.cls-16,.cls-22,.cls-9{mix-blend-mode:screen;}.cls-9{fill:url(#linear-gradient-5);}.cls-10{fill:url(#linear-gradient-6);}.cls-11{fill:url(#linear-gradient-7);}.cls-12{fill:url(#linear-gradient-8);}.cls-13{fill:url(#linear-gradient-9);}.cls-14{fill:url(#New_Gradient_Swatch_1-2);}.cls-15{fill:url(#linear-gradient-10);}.cls-16{fill:url(#linear-gradient-11);}.cls-17{fill:url(#linear-gradient-12);}.cls-18{opacity:0;}.cls-19{fill:url(#radial-gradient-3);}.cls-21{clip-path:url(#clip-path);}.cls-23{fill:url(#linear-gradient-13);}.cls-24{fill:url(#linear-gradient-14);}.cls-25{fill:url(#linear-gradient-15);}.cls-26{fill:url(#linear-gradient-16);}.cls-27{fill:url(#linear-gradient-17);}.cls-28{fill:url(#linear-gradient-18);}.cls-29{fill:url(#linear-gradient-19);}.cls-30{fill:url(#linear-gradient-20);}.cls-31{fill:url(#linear-gradient-21);}.cls-32{fill:url(#linear-gradient-22);}.cls-33{fill:url(#linear-gradient-23);}.cls-34{fill:url(#linear-gradient-24);}.cls-35{fill:url(#linear-gradient-25);}.cls-36{fill:url(#linear-gradient-26);}.cls-37{fill:url(#linear-gradient-27);}.cls-38{fill:url(#linear-gradient-28);}.cls-39{fill:url(#linear-gradient-29);}.cls-40{fill:url(#linear-gradient-30);}.cls-41{fill:url(#linear-gradient-31);}.cls-42{fill:url(#linear-gradient-32);}.cls-43{fill:url(#linear-gradient-33);}.cls-44{fill:url(#linear-gradient-34);}.cls-45{fill:url(#linear-gradient-35);}.cls-46{fill:url(#linear-gradient-36);}.cls-47{fill:url(#linear-gradient-37);}.cls-48{fill:url(#linear-gradient-38);}.cls-49{fill:url(#linear-gradient-39);}.cls-50{fill:url(#linear-gradient-40);}.cls-51{fill:url(#linear-gradient-41);}.cls-52{fill:url(#linear-gradient-42);}.cls-53{fill:url(#linear-gradient-43);}.cls-54{fill:url(#linear-gradient-44);}.cls-55{fill:url(#linear-gradient-45);}.cls-56{fill:url(#linear-gradient-46);}.cls-57{fill:url(#linear-gradient-47);}.cls-58{fill:url(#linear-gradient-48);}.cls-59{fill:url(#linear-gradient-49);}.cls-60{fill:url(#linear-gradient-50);}.cls-61{fill:url(#linear-gradient-51);}.cls-62{fill:url(#linear-gradient-52);}.cls-63{fill:url(#linear-gradient-53);}.cls-64{fill:url(#linear-gradient-54);}.cls-65{fill:url(#linear-gradient-55);}.cls-66{fill:url(#linear-gradient-56);}.cls-67{fill:url(#linear-gradient-57);}.cls-68{mix-blend-mode:color-dodge;}.cls-69{fill:url(#linear-gradient-58);}.cls-70{fill:url(#linear-gradient-59);}.cls-71{fill:url(#linear-gradient-60);}.cls-72{fill:url(#linear-gradient-61);}.cls-73{fill:url(#linear-gradient-62);}.cls-74{fill:url(#linear-gradient-63);}.cls-75{fill:url(#linear-gradient-64);}.cls-76{fill:url(#linear-gradient-65);}.cls-77{fill:url(#linear-gradient-66);}.cls-78{fill:url(#linear-gradient-67);}.cls-79{fill:url(#linear-gradient-68);}.cls-80{fill:url(#linear-gradient-69);}.cls-81{fill:url(#linear-gradient-70);}.cls-82{fill:url(#linear-gradient-71);}.cls-83{fill:url(#linear-gradient-72);}.cls-84{fill:url(#linear-gradient-73);}.cls-85{fill:url(#linear-gradient-74);}.cls-86{fill:url(#linear-gradient-75);}.cls-87{fill:url(#linear-gradient-76);}.cls-88{fill:url(#linear-gradient-77);}.cls-89{fill:url(#linear-gradient-78);}.cls-90{fill:url(#linear-gradient-79);}.cls-91{fill:url(#linear-gradient-80);}.cls-92{fill:url(#linear-gradient-81);}.cls-93{fill:url(#linear-gradient-82);}.cls-94{fill:url(#linear-gradient-83);}.cls-95{fill:url(#linear-gradient-84);}.cls-96{fill:url(#linear-gradient-85);}.cls-97{fill:url(#linear-gradient-86);}.cls-98{fill:url(#linear-gradient-87);}.cls-99{fill:url(#linear-gradient-88);}.cls-100{fill:url(#linear-gradient-89);}.cls-101{fill:url(#linear-gradient-90);}.cls-102{fill:url(#linear-gradient-91);}.cls-103{fill:url(#linear-gradient-92);}.cls-104{fill:url(#linear-gradient-93);}.cls-105{fill:url(#linear-gradient-94);}.cls-106{fill:url(#linear-gradient-95);}.cls-107{fill:url(#linear-gradient-96);}.cls-108{fill:url(#linear-gradient-97);}.cls-109{fill:url(#linear-gradient-98);}.cls-110{fill:url(#linear-gradient-99);}.cls-111{fill:url(#linear-gradient-100);}.cls-112{fill:url(#linear-gradient-101);}.cls-113{fill:url(#linear-gradient-102);}.cls-114{fill:url(#radial-gradient-5);}.cls-116{fill:url(#linear-gradient-103);}.cls-117{fill:url(#linear-gradient-104);}.cls-118{fill:url(#linear-gradient-105);}.cls-119{fill:url(#linear-gradient-106);}.cls-120{fill:url(#linear-gradient-107);}.cls-121{fill:url(#linear-gradient-108);}.cls-122{fill:url(#linear-gradient-109);}.cls-123{fill:url(#linear-gradient-110);}.cls-124{fill:url(#linear-gradient-111);}.cls-125{fill:url(#linear-gradient-112);}.cls-126{fill:url(#linear-gradient-113);}.cls-127{fill:url(#linear-gradient-114);}.cls-128{fill:url(#linear-gradient-115);}.cls-129{fill:url(#linear-gradient-116);}.cls-130{fill:url(#linear-gradient-117);}.cls-131{fill:url(#linear-gradient-118);}.cls-132{fill:url(#linear-gradient-119);}.cls-133{fill:url(#linear-gradient-120);}.cls-134{fill:url(#linear-gradient-121);}.cls-135{opacity:0.2;mix-blend-mode:multiply;}.cls-136{fill:url(#linear-gradient-122);}.cls-137{fill:url(#linear-gradient-123);}.cls-138{fill:url(#linear-gradient-124);}.cls-139{fill:url(#linear-gradient-125);}.cls-140{fill:url(#linear-gradient-126);}.cls-141{fill:url(#linear-gradient-127);}.cls-142{fill:url(#radial-gradient-6);}.cls-143{opacity:0.25;fill:url(#linear-gradient-128);}</style><radialGradient id="radial-gradient" cx="46.33" cy="17.38" r="10.2" gradientUnits="userSpaceOnUse"><stop offset="0" stop-color="#575757"/><stop offset="1" stop-color="#0d0d0d"/></radialGradient><linearGradient id="linear-gradient" x1="0.76" y1="32.72" x2="0.76" y2="24.83" gradientUnits="userSpaceOnUse"><stop offset="0" stop-color="#888989"/><stop offset="0.03" stop-color="#6e6f6f"/><stop offset="0.07" stop-color="#484949"/><stop offset="0.11" stop-color="#313232"/><stop offset="0.13" stop-color="#282929"/><stop offset="0.18" stop-color="#282929"/><stop offset="0.51" stop-color="#282929"/><stop offset="0.58" stop-color="#3d3e3e"/><stop offset="0.7" stop-color="#737474"/><stop offset="0.83" stop-color="#acacac"/><stop offset="1" stop-color="#191a1a"/></linearGradient><linearGradient id="linear-gradient-2" x1="98.04" y1="-332.81" x2="98.04" y2="-346.29" gradientTransform="translate(-276.69 -97.28) rotate(90)" gradientUnits="userSpaceOnUse"><stop offset="0" stop-color="#888989"/><stop offset="0.03" stop-color="#6e6f6f"/><stop offset="0.07" stop-color="#484949"/><stop offset="0.11" stop-color="#313232"/><stop offset="0.13" stop-color="#282929"/><stop offset="0.17" stop-color="#343535"/><stop offset="0.24" stop-color="#434444"/><stop offset="0.32" stop-color="#4c4c4c"/><stop offset="0.45" stop-color="#4f4f4f"/><stop offset="0.83" stop-color="#acacac"/><stop offset="1" stop-color="#191a1a"/></linearGradient><linearGradient id="linear-gradient-3" x1="0.76" y1="47.3" x2="0.76" y2="41.28" gradientUnits="userSpaceOnUse"><stop offset="0" stop-color="#888989"/><stop offset="0.08" stop-color="#747575"/><stop offset="0.27" stop-color="#4b4c4c"/><stop offset="0.42" stop-color="#313232"/><stop offset="0.51" stop-color="#282929"/><stop offset="0.58" stop-color="#3d3e3e"/><stop offset="0.7" stop-color="#737474"/><stop offset="0.83" stop-color="#acacac"/><stop offset="1" stop-color="#191a1a"/></linearGradient><linearGradient id="linear-gradient-4" x1="0.76" y1="61.6" x2="0.76" y2="55.58" xlink:href="#linear-gradient-3"/><radialGradient id="radial-gradient-2" cx="41.79" cy="-3368.17" r="61.05" gradientTransform="translate(0 5956.75) scale(1 1.74)" gradientUnits="userSpaceOnUse"><stop offset="0.83" stop-color="#525454"/><stop offset="1" stop-color="#545555"/></radialGradient><linearGradient id="New_Gradient_Swatch_1" x1="-6.87" y1="161.91" x2="90.44" y2="12.63" gradientUnits="userSpaceOnUse"><stop offset="0" stop-color="#1c1c1c"/><stop offset="1"/></linearGradient><linearGradient id="linear-gradient-5" x1="-1207.32" y1="1519.48" x2="-1178.26" y2="1567.41" gradientTransform="translate(-499.46 822.15) rotate(180) scale(0.44)" gradientUnits="userSpaceOnUse"><stop offset="0" stop-color="#080808"/><stop offset="0.11" stop-color="#e6e7e6"/><stop offset="1"/></linearGradient><linearGradient id="linear-gradient-6" x1="1846.82" y1="1519.48" x2="1875.87" y2="1567.41" gradientTransform="matrix(0.44, 0, 0, -0.44, -756.8, 822.15)" xlink:href="#linear-gradient-5"/><linearGradient id="linear-gradient-7" x1="1573.1" y1="1905.81" x2="1602.15" y2="1953.74" gradientTransform="translate(-816.98 720.24) rotate(-90) scale(0.44)" xlink:href="#linear-gradient-5"/><linearGradient id="linear-gradient-8" x1="1846.82" y1="-874.73" x2="1875.87" y2="-826.8" gradientTransform="translate(-756.8 402.73) scale(0.44)" xlink:href="#linear-gradient-5"/><linearGradient id="linear-gradient-9" x1="1.94" y1="87.27" x2="81.65" y2="87.27" gradientUnits="userSpaceOnUse"><stop offset="0" stop-color="#1a1a1a"/><stop offset="1" stop-color="#4a4a4a"/></linearGradient><linearGradient id="New_Gradient_Swatch_1-2" x1="-6.47" y1="161.3" x2="90.04" y2="13.26" xlink:href="#New_Gradient_Swatch_1"/><linearGradient id="linear-gradient-10" x1="39.93" y1="153.57" x2="44.17" y2="169.96" gradientUnits="userSpaceOnUse"><stop offset="0" stop-color="#080808"/><stop offset="0.03" stop-color="#222"/><stop offset="0.09" stop-color="#5d5d5d"/><stop offset="0.15" stop-color="#8e8e8e"/><stop offset="0.21" stop-color="#b4b5b4"/><stop offset="0.26" stop-color="#d0d0d0"/><stop offset="0.31" stop-color="#e0e1e0"/><stop offset="0.35" stop-color="#e6e7e6"/><stop offset="0.68" stop-color="#c7c8c7"/><stop offset="1"/></linearGradient><linearGradient id="linear-gradient-11" x1="-252.8" y1="286.56" x2="-250.34" y2="284.16" gradientTransform="matrix(0.67, 0.74, -0.74, 0.67, 426.71, 152.6)" gradientUnits="userSpaceOnUse"><stop offset="0"/><stop offset="0.75" stop-color="#8f908f"/><stop offset="0.97" stop-color="#181818"/><stop offset="1" stop-color="#080808"/></linearGradient><linearGradient id="linear-gradient-12" x1="38.25" y1="166.98" x2="45.62" y2="155.68" gradientUnits="userSpaceOnUse"><stop offset="0" stop-color="#1c1c1c"/><stop offset="1" stop-color="#101010"/></linearGradient><radialGradient id="radial-gradient-3" cx="44.34" cy="33323.39" r="16.68" gradientTransform="translate(0 -6461.62) scale(1 0.19)" gradientUnits="userSpaceOnUse"><stop offset="0" stop-color="#666"/><stop offset="0.36" stop-color="#212121"/><stop offset="1" stop-color="#121212"/></radialGradient><clipPath id="clip-path"><path class="cls-1" d="M35.88,16.7a.91.91,0,0,1-1-1,.9.9,0,0,1,1-.94H47.82a.89.89,0,0,1,.87,1,.85.85,0,0,1-.86.92Z"/></clipPath><linearGradient id="linear-gradient-13" x1="402.08" y1="-181.18" x2="402.48" y2="-181.18" gradientTransform="matrix(0, 0.45, -1, 0, -146.51, -163.76)" gradientUnits="userSpaceOnUse"><stop offset="0"/><stop offset="0.07" stop-color="#070707"/><stop offset="0.18" stop-color="#1b1b1c"/><stop offset="0.32" stop-color="#3c3c3d"/><stop offset="0.47" stop-color="#69696c"/><stop offset="0.48" stop-color="#6b6b6e"/><stop offset="0.58" stop-color="#5b5b5e"/><stop offset="0.78" stop-color="#333334"/><stop offset="1"/></linearGradient><linearGradient id="linear-gradient-14" x1="402.61" y1="-181.41" x2="403.01" y2="-181.41" gradientTransform="matrix(0, 0.45, -1, 0, -146.41, -163.99)" xlink:href="#linear-gradient-13"/><linearGradient id="linear-gradient-15" x1="403.13" y1="-181.64" x2="403.53" y2="-181.64" gradientTransform="matrix(0, 0.45, -1, 0, -146.38, -164.16)" xlink:href="#linear-gradient-13"/><linearGradient id="linear-gradient-16" x1="403.66" y1="-181.87" x2="404.06" y2="-181.87" gradientTransform="matrix(0, 0.45, -1, 0, -146.28, -164.39)" xlink:href="#linear-gradient-13"/><linearGradient id="linear-gradient-17" x1="404.18" y1="-182.1" x2="404.58" y2="-182.1" gradientTransform="matrix(0, 0.45, -1, 0, -146.18, -164.63)" xlink:href="#linear-gradient-13"/><linearGradient id="linear-gradient-18" x1="404.71" y1="-182.33" x2="405.11" y2="-182.33" gradientTransform="matrix(0, 0.45, -1, 0, -146.01, -164.93)" xlink:href="#linear-gradient-13"/><linearGradient id="linear-gradient-19" x1="405.23" y1="-182.55" x2="405.63" y2="-182.55" gradientTransform="matrix(0, 0.45, -1, 0, -145.91, -165.17)" xlink:href="#linear-gradient-13"/><linearGradient id="linear-gradient-20" x1="405.76" y1="-182.78" x2="406.16" y2="-182.78" gradientTransform="matrix(0, 0.45, -1, 0, -145.82, -165.4)" xlink:href="#linear-gradient-13"/><linearGradient id="linear-gradient-21" x1="406.28" y1="-183.01" x2="406.68" y2="-183.01" gradientTransform="matrix(0, 0.45, -1, 0, -145.79, -165.56)" xlink:href="#linear-gradient-13"/><linearGradient id="linear-gradient-22" x1="406.81" y1="-183.24" x2="407.21" y2="-183.24" gradientTransform="matrix(0, 0.45, -1, 0, -145.69, -165.8)" xlink:href="#linear-gradient-13"/><linearGradient id="linear-gradient-23" x1="407.34" y1="-183.47" x2="407.73" y2="-183.47" gradientTransform="matrix(0, 0.45, -1, 0, -145.59, -166.03)" xlink:href="#linear-gradient-13"/><linearGradient id="linear-gradient-24" x1="407.86" y1="-183.7" x2="408.26" y2="-183.7" gradientTransform="matrix(0, 0.45, -1, 0, -145.42, -166.34)" xlink:href="#linear-gradient-13"/><linearGradient id="linear-gradient-25" x1="408.39" y1="-183.92" x2="408.78" y2="-183.92" gradientTransform="matrix(0, 0.45, -1, 0, -145.32, -166.57)" xlink:href="#linear-gradient-13"/><linearGradient id="linear-gradient-26" x1="408.91" y1="-184.15" x2="409.31" y2="-184.15" gradientTransform="matrix(0, 0.45, -1, 0, -145.22, -166.81)" xlink:href="#linear-gradient-13"/><linearGradient id="linear-gradient-27" x1="409.44" y1="-184.38" x2="409.83" y2="-184.38" gradientTransform="matrix(0, 0.45, -1, 0, -145.2, -166.97)" xlink:href="#linear-gradient-13"/><linearGradient id="linear-gradient-28" x1="409.96" y1="-184.61" x2="410.36" y2="-184.61" gradientTransform="matrix(0, 0.45, -1, 0, -145.1, -167.2)" xlink:href="#linear-gradient-13"/><linearGradient id="linear-gradient-29" x1="410.49" y1="-184.84" x2="410.89" y2="-184.84" gradientTransform="matrix(0, 0.45, -1, 0, -144.93, -167.51)" xlink:href="#linear-gradient-13"/><linearGradient id="linear-gradient-30" x1="411.01" y1="-185.07" x2="411.41" y2="-185.07" gradientTransform="matrix(0, 0.45, -1, 0, -144.83, -167.74)" xlink:href="#linear-gradient-13"/><linearGradient id="linear-gradient-31" x1="411.54" y1="-185.3" x2="411.94" y2="-185.3" gradientTransform="matrix(0, 0.45, -1, 0, -144.73, -167.98)" xlink:href="#linear-gradient-13"/><linearGradient id="linear-gradient-32" x1="412.06" y1="-185.52" x2="412.46" y2="-185.52" gradientTransform="matrix(0, 0.45, -1, 0, -144.7, -168.14)" xlink:href="#linear-gradient-13"/><linearGradient id="linear-gradient-33" x1="412.59" y1="-185.75" x2="412.99" y2="-185.75" gradientTransform="matrix(0, 0.45, -1, 0, -144.6, -168.37)" xlink:href="#linear-gradient-13"/><linearGradient id="linear-gradient-34" x1="413.11" y1="-185.98" x2="413.51" y2="-185.98" gradientTransform="matrix(0, 0.45, -1, 0, -144.5, -168.61)" xlink:href="#linear-gradient-13"/><linearGradient id="linear-gradient-35" x1="413.64" y1="-186.21" x2="414.04" y2="-186.21" gradientTransform="matrix(0, 0.45, -1, 0, -144.33, -168.92)" xlink:href="#linear-gradient-13"/><linearGradient id="linear-gradient-36" x1="414.16" y1="-186.44" x2="414.56" y2="-186.44" gradientTransform="matrix(0, 0.45, -1, 0, -144.23, -169.15)" xlink:href="#linear-gradient-13"/><linearGradient id="linear-gradient-37" x1="414.69" y1="-186.67" x2="415.09" y2="-186.67" gradientTransform="matrix(0, 0.45, -1, 0, -144.14, -169.38)" xlink:href="#linear-gradient-13"/><linearGradient id="linear-gradient-38" x1="415.21" y1="-186.89" x2="415.61" y2="-186.89" gradientTransform="matrix(0, 0.45, -1, 0, -144.11, -169.55)" xlink:href="#linear-gradient-13"/><linearGradient id="linear-gradient-39" x1="415.74" y1="-187.12" x2="416.14" y2="-187.12" gradientTransform="matrix(0, 0.45, -1, 0, -144.01, -169.78)" xlink:href="#linear-gradient-13"/><linearGradient id="linear-gradient-40" x1="416.26" y1="-187.35" x2="416.66" y2="-187.35" gradientTransform="matrix(0, 0.45, -1, 0, -143.84, -170.09)" xlink:href="#linear-gradient-13"/><linearGradient id="linear-gradient-41" x1="416.79" y1="-187.58" x2="417.19" y2="-187.58" gradientTransform="matrix(0, 0.45, -1, 0, -143.74, -170.32)" xlink:href="#linear-gradient-13"/><linearGradient id="linear-gradient-42" x1="417.31" y1="-187.81" x2="417.71" y2="-187.81" gradientTransform="matrix(0, 0.45, -1, 0, -143.64, -170.56)" xlink:href="#linear-gradient-13"/><linearGradient id="linear-gradient-43" x1="417.84" y1="-188.04" x2="418.24" y2="-188.04" gradientTransform="matrix(0, 0.45, -1, 0, -143.54, -170.79)" xlink:href="#linear-gradient-13"/><linearGradient id="linear-gradient-44" x1="418.36" y1="-188.27" x2="418.76" y2="-188.27" gradientTransform="matrix(0, 0.45, -1, 0, -143.52, -170.95)" xlink:href="#linear-gradient-13"/><linearGradient id="linear-gradient-45" x1="418.89" y1="-188.49" x2="419.29" y2="-188.49" gradientTransform="matrix(0, 0.45, -1, 0, -143.42, -171.19)" xlink:href="#linear-gradient-13"/><linearGradient id="linear-gradient-46" x1="419.41" y1="-188.72" x2="419.81" y2="-188.72" gradientTransform="matrix(0, 0.45, -1, 0, -143.25, -171.49)" xlink:href="#linear-gradient-13"/><linearGradient id="linear-gradient-47" x1="419.94" y1="-188.95" x2="420.34" y2="-188.95" gradientTransform="matrix(0, 0.45, -1, 0, -143.15, -171.73)" xlink:href="#linear-gradient-13"/><linearGradient id="linear-gradient-48" x1="420.46" y1="-189.18" x2="420.86" y2="-189.18" gradientTransform="matrix(0, 0.45, -1, 0, -143.05, -171.96)" xlink:href="#linear-gradient-13"/><linearGradient id="linear-gradient-49" x1="420.99" y1="-189.41" x2="421.39" y2="-189.41" gradientTransform="matrix(0, 0.45, -1, 0, -143.02, -172.12)" xlink:href="#linear-gradient-13"/><linearGradient id="linear-gradient-50" x1="421.51" y1="-189.64" x2="421.91" y2="-189.64" gradientTransform="matrix(0, 0.45, -1, 0, -142.93, -172.36)" xlink:href="#linear-gradient-13"/><linearGradient id="linear-gradient-51" x1="422.04" y1="-189.86" x2="422.44" y2="-189.86" gradientTransform="matrix(0, 0.45, -1, 0, -142.83, -172.59)" xlink:href="#linear-gradient-13"/><linearGradient id="linear-gradient-52" x1="422.56" y1="-190.09" x2="422.96" y2="-190.09" gradientTransform="matrix(0, 0.45, -1, 0, -142.65, -172.9)" xlink:href="#linear-gradient-13"/><linearGradient id="linear-gradient-53" x1="423.09" y1="-190.32" x2="423.49" y2="-190.32" gradientTransform="matrix(0, 0.45, -1, 0, -142.55, -173.13)" xlink:href="#linear-gradient-13"/><linearGradient id="linear-gradient-54" x1="423.61" y1="-190.55" x2="424.01" y2="-190.55" gradientTransform="matrix(0, 0.45, -1, 0, -142.46, -173.37)" xlink:href="#linear-gradient-13"/><linearGradient id="linear-gradient-55" x1="425.19" y1="-191.24" x2="425.59" y2="-191.24" gradientTransform="matrix(0, 0.45, -1, 0, -142.16, -174.07)" xlink:href="#linear-gradient-13"/><linearGradient id="linear-gradient-56" x1="424.14" y1="-190.78" x2="424.54" y2="-190.78" gradientTransform="matrix(0, 0.45, -1, 0, -142.43, -173.53)" xlink:href="#linear-gradient-13"/><linearGradient id="linear-gradient-57" x1="424.67" y1="-191.01" x2="425.06" y2="-191.01" gradientTransform="matrix(0, 0.45, -1, 0, -142.33, -173.76)" xlink:href="#linear-gradient-13"/><linearGradient id="linear-gradient-58" x1="-309.33" y1="128.41" x2="-307.49" y2="127.61" gradientTransform="matrix(-0.45, 0, 0, 1, -88.55, -112.25)" gradientUnits="userSpaceOnUse"><stop offset="0"/><stop offset="0.15" stop-color="#030203"/><stop offset="0.24" stop-color="#0b0b0b"/><stop offset="0.32" stop-color="#1a1819"/><stop offset="0.38" stop-color="#2e2c2e"/><stop offset="0.45" stop-color="#484548"/><stop offset="0.48" stop-color="#595558"/><stop offset="0.52" stop-color="#423f41"/><stop offset="0.57" stop-color="#2a2829"/><stop offset="0.64" stop-color="#171617"/><stop offset="0.71" stop-color="#0a090a"/><stop offset="0.81" stop-color="#020202"/><stop offset="1"/></linearGradient><linearGradient id="linear-gradient-59" x1="-308.81" y1="128.18" x2="-306.96" y2="127.38" gradientTransform="matrix(-0.45, 0, 0, 1, -88.6, -112.07)" xlink:href="#linear-gradient-58"/><linearGradient id="linear-gradient-60" x1="-308.28" y1="127.95" x2="-306.44" y2="127.15" gradientTransform="matrix(-0.45, 0, 0, 1, -88.69, -111.85)" xlink:href="#linear-gradient-58"/><linearGradient id="linear-gradient-61" x1="-307.76" y1="127.72" x2="-305.91" y2="126.92" gradientTransform="matrix(-0.45, 0, 0, 1, -88.83, -111.56)" xlink:href="#linear-gradient-58"/><linearGradient id="linear-gradient-62" x1="-307.23" y1="127.5" x2="-305.39" y2="126.69" gradientTransform="matrix(-0.45, 0, 0, 1, -88.93, -111.33)" xlink:href="#linear-gradient-58"/><linearGradient id="linear-gradient-63" x1="-306.71" y1="127.27" x2="-304.86" y2="126.46" gradientTransform="matrix(-0.45, 0, 0, 1, -89.02, -111.11)" xlink:href="#linear-gradient-58"/><linearGradient id="linear-gradient-64" x1="-306.18" y1="127.04" x2="-304.34" y2="126.24" gradientTransform="matrix(-0.45, 0, 0, 1, -89.06, -110.93)" xlink:href="#linear-gradient-58"/><linearGradient id="linear-gradient-65" x1="-305.66" y1="126.81" x2="-303.81" y2="126.01" gradientTransform="matrix(-0.45, 0, 0, 1, -89.16, -110.7)" xlink:href="#linear-gradient-58"/><linearGradient id="linear-gradient-66" x1="-305.13" y1="126.58" x2="-303.29" y2="125.78" gradientTransform="matrix(-0.45, 0, 0, 1, -89.25, -110.47)" xlink:href="#linear-gradient-58"/><linearGradient id="linear-gradient-67" x1="-304.61" y1="126.35" x2="-302.76" y2="125.55" gradientTransform="matrix(-0.45, 0, 0, 1, -89.39, -110.19)" xlink:href="#linear-gradient-58"/><linearGradient id="linear-gradient-68" x1="-304.08" y1="126.12" x2="-302.24" y2="125.32" gradientTransform="matrix(-0.45, 0, 0, 1, -89.48, -109.96)" xlink:href="#linear-gradient-58"/><linearGradient id="linear-gradient-69" x1="-303.56" y1="125.9" x2="-301.71" y2="125.09" gradientTransform="matrix(-0.45, 0, 0, 1, -89.58, -109.74)" xlink:href="#linear-gradient-58"/><linearGradient id="linear-gradient-70" x1="-303.03" y1="125.67" x2="-301.19" y2="124.87" gradientTransform="matrix(-0.45, 0, 0, 1, -89.62, -109.56)" xlink:href="#linear-gradient-58"/><linearGradient id="linear-gradient-71" x1="-302.51" y1="125.44" x2="-300.66" y2="124.64" gradientTransform="matrix(-0.45, 0, 0, 1, -89.71, -109.33)" xlink:href="#linear-gradient-58"/><linearGradient id="linear-gradient-72" x1="-301.98" y1="125.21" x2="-300.14" y2="124.41" gradientTransform="matrix(-0.45, 0, 0, 1, -89.86, -109.05)" xlink:href="#linear-gradient-58"/><linearGradient id="linear-gradient-73" x1="-301.46" y1="124.98" x2="-299.61" y2="124.18" gradientTransform="matrix(-0.45, 0, 0, 1, -89.95, -108.82)" xlink:href="#linear-gradient-58"/><linearGradient id="linear-gradient-74" x1="-300.93" y1="124.75" x2="-299.09" y2="123.95" gradientTransform="matrix(-0.45, 0, 0, 1, -90.04, -108.59)" xlink:href="#linear-gradient-58"/><linearGradient id="linear-gradient-75" x1="-300.4" y1="124.53" x2="-298.56" y2="123.72" gradientTransform="matrix(-0.45, 0, 0, 1, -90.09, -108.42)" xlink:href="#linear-gradient-58"/><linearGradient id="linear-gradient-76" x1="-299.88" y1="124.3" x2="-298.04" y2="123.49" gradientTransform="matrix(-0.45, 0, 0, 1, -90.18, -108.19)" xlink:href="#linear-gradient-58"/><linearGradient id="linear-gradient-77" x1="-299.35" y1="124.07" x2="-297.51" y2="123.27" gradientTransform="matrix(-0.45, 0, 0, 1, -90.27, -107.96)" xlink:href="#linear-gradient-58"/><linearGradient id="linear-gradient-78" x1="-298.83" y1="123.84" x2="-296.98" y2="123.04" gradientTransform="matrix(-0.45, 0, 0, 1, -90.41, -107.68)" xlink:href="#linear-gradient-58"/><linearGradient id="linear-gradient-79" x1="-298.3" y1="123.61" x2="-296.46" y2="122.81" gradientTransform="matrix(-0.45, 0, 0, 1, -90.51, -107.45)" xlink:href="#linear-gradient-58"/><linearGradient id="linear-gradient-80" x1="-297.78" y1="123.38" x2="-295.93" y2="122.58" gradientTransform="matrix(-0.45, 0, 0, 1, -90.6, -107.22)" xlink:href="#linear-gradient-58"/><linearGradient id="linear-gradient-81" x1="-297.25" y1="123.15" x2="-295.41" y2="122.35" gradientTransform="matrix(-0.45, 0, 0, 1, -90.64, -107.05)" xlink:href="#linear-gradient-58"/><linearGradient id="linear-gradient-82" x1="-296.73" y1="122.93" x2="-294.88" y2="122.12" gradientTransform="matrix(-0.45, 0, 0, 1, -90.74, -106.82)" xlink:href="#linear-gradient-58"/><linearGradient id="linear-gradient-83" x1="-296.2" y1="122.7" x2="-294.36" y2="121.9" gradientTransform="matrix(-0.45, 0, 0, 1, -90.83, -106.59)" xlink:href="#linear-gradient-58"/><linearGradient id="linear-gradient-84" x1="-295.68" y1="122.47" x2="-293.83" y2="121.67" gradientTransform="matrix(-0.45, 0, 0, 1, -90.97, -106.31)" xlink:href="#linear-gradient-58"/><linearGradient id="linear-gradient-85" x1="-295.15" y1="122.24" x2="-293.31" y2="121.44" gradientTransform="matrix(-0.45, 0, 0, 1, -91.06, -106.08)" xlink:href="#linear-gradient-58"/><linearGradient id="linear-gradient-86" x1="-294.63" y1="122.01" x2="-292.78" y2="121.21" gradientTransform="matrix(-0.45, 0, 0, 1, -91.16, -105.85)" xlink:href="#linear-gradient-58"/><linearGradient id="linear-gradient-87" x1="-294.1" y1="121.78" x2="-292.26" y2="120.98" gradientTransform="matrix(-0.45, 0, 0, 1, -91.2, -105.67)" xlink:href="#linear-gradient-58"/><linearGradient id="linear-gradient-88" x1="-293.58" y1="121.56" x2="-291.73" y2="120.75" gradientTransform="matrix(-0.45, 0, 0, 1, -91.3, -105.45)" xlink:href="#linear-gradient-58"/><linearGradient id="linear-gradient-89" x1="-293.05" y1="121.33" x2="-291.21" y2="120.52" gradientTransform="matrix(-0.45, 0, 0, 1, -91.44, -105.17)" xlink:href="#linear-gradient-58"/><linearGradient id="linear-gradient-90" x1="-292.53" y1="121.1" x2="-290.68" y2="120.3" gradientTransform="matrix(-0.45, 0, 0, 1, -91.53, -104.94)" xlink:href="#linear-gradient-58"/><linearGradient id="linear-gradient-91" x1="-292" y1="120.87" x2="-290.16" y2="120.07" gradientTransform="matrix(-0.45, 0, 0, 1, -91.62, -104.71)" xlink:href="#linear-gradient-58"/><linearGradient id="linear-gradient-92" x1="-291.48" y1="120.64" x2="-289.63" y2="119.84" gradientTransform="matrix(-0.45, 0, 0, 1, -91.67, -104.53)" xlink:href="#linear-gradient-58"/><linearGradient id="linear-gradient-93" x1="-290.95" y1="120.41" x2="-289.11" y2="119.61" gradientTransform="matrix(-0.45, 0, 0, 1, -91.76, -104.3)" xlink:href="#linear-gradient-58"/><linearGradient id="linear-gradient-94" x1="-290.43" y1="120.18" x2="-288.58" y2="119.38" gradientTransform="matrix(-0.45, 0, 0, 1, -91.85, -104.07)" xlink:href="#linear-gradient-58"/><linearGradient id="linear-gradient-95" x1="-289.9" y1="119.96" x2="-288.06" y2="119.15" gradientTransform="matrix(-0.45, 0, 0, 1, -91.99, -103.8)" xlink:href="#linear-gradient-58"/><linearGradient id="linear-gradient-96" x1="-289.38" y1="119.73" x2="-287.53" y2="118.93" gradientTransform="matrix(-0.45, 0, 0, 1, -92.09, -103.57)" xlink:href="#linear-gradient-58"/><linearGradient id="linear-gradient-97" x1="-288.85" y1="119.5" x2="-287.01" y2="118.7" gradientTransform="matrix(-0.45, 0, 0, 1, -92.18, -103.34)" xlink:href="#linear-gradient-58"/><linearGradient id="linear-gradient-98" x1="-288.33" y1="119.27" x2="-286.48" y2="118.47" gradientTransform="matrix(-0.45, 0, 0, 1, -92.23, -103.16)" xlink:href="#linear-gradient-58"/><linearGradient id="linear-gradient-99" x1="-287.8" y1="119.04" x2="-285.96" y2="118.24" gradientTransform="matrix(-0.45, 0, 0, 1, -92.32, -102.93)" xlink:href="#linear-gradient-58"/><linearGradient id="linear-gradient-100" x1="-286.23" y1="118.36" x2="-284.38" y2="117.55" gradientTransform="matrix(-0.45, 0, 0, 1, -92.64, -102.2)" xlink:href="#linear-gradient-58"/><linearGradient id="linear-gradient-101" x1="-287.28" y1="118.81" x2="-285.43" y2="118.01" gradientTransform="matrix(-0.45, 0, 0, 1, -92.41, -102.7)" xlink:href="#linear-gradient-58"/><linearGradient id="linear-gradient-102" x1="-286.75" y1="118.59" x2="-284.91" y2="117.78" gradientTransform="matrix(-0.45, 0, 0, 1, -92.55, -102.42)" xlink:href="#linear-gradient-58"/><radialGradient id="radial-gradient-5" cx="30.18" cy="15.81" r="1.46" gradientUnits="userSpaceOnUse"><stop offset="0" stop-color="#262626"/><stop offset="0.36" stop-color="#292929"/><stop offset="0.63" stop-color="#333"/><stop offset="0.87" stop-color="#434343"/><stop offset="1" stop-color="#4f4f4f"/></radialGradient><linearGradient id="linear-gradient-103" x1="39.31" y1="7.89" x2="43.6" y2="10.27" gradientUnits="userSpaceOnUse"><stop offset="0" stop-color="#010101"/><stop offset="1" stop-color="#040404"/></linearGradient><linearGradient id="linear-gradient-104" x1="39.32" y1="7.9" x2="43.6" y2="10.27" gradientUnits="userSpaceOnUse"><stop offset="0" stop-color="#020202"/><stop offset="1" stop-color="#090909"/></linearGradient><linearGradient id="linear-gradient-105" x1="39.33" y1="7.9" x2="43.59" y2="10.27" gradientUnits="userSpaceOnUse"><stop offset="0" stop-color="#030303"/><stop offset="1" stop-color="#0d0d0d"/></linearGradient><linearGradient id="linear-gradient-106" x1="39.33" y1="7.91" x2="43.59" y2="10.26" gradientUnits="userSpaceOnUse"><stop offset="0" stop-color="#040404"/><stop offset="1" stop-color="#111"/></linearGradient><linearGradient id="linear-gradient-107" x1="39.34" y1="7.91" x2="43.58" y2="10.26" gradientUnits="userSpaceOnUse"><stop offset="0" stop-color="#050505"/><stop offset="1" stop-color="#161616"/></linearGradient><linearGradient id="linear-gradient-108" x1="39.35" y1="7.91" x2="43.58" y2="10.26" gradientUnits="userSpaceOnUse"><stop offset="0" stop-color="#060606"/><stop offset="1" stop-color="#1a1a1a"/></linearGradient><linearGradient id="linear-gradient-109" x1="39.35" y1="7.92" x2="43.57" y2="10.26" gradientUnits="userSpaceOnUse"><stop offset="0" stop-color="#070707"/><stop offset="1" stop-color="#1e1e1e"/></linearGradient><linearGradient id="linear-gradient-110" x1="39.36" y1="7.92" x2="43.57" y2="10.25" gradientUnits="userSpaceOnUse"><stop offset="0" stop-color="#080808"/><stop offset="1" stop-color="#232323"/></linearGradient><linearGradient id="linear-gradient-111" x1="39.37" y1="7.93" x2="43.56" y2="10.25" gradientUnits="userSpaceOnUse"><stop offset="0" stop-color="#090909"/><stop offset="1" stop-color="#272727"/></linearGradient><linearGradient id="linear-gradient-112" x1="39.37" y1="7.93" x2="43.56" y2="10.25" gradientUnits="userSpaceOnUse"><stop offset="0" stop-color="#0a0a0a"/><stop offset="1" stop-color="#2b2b2b"/></linearGradient><linearGradient id="linear-gradient-113" x1="39.38" y1="7.93" x2="43.55" y2="10.25" gradientUnits="userSpaceOnUse"><stop offset="0" stop-color="#0b0b0b"/><stop offset="1" stop-color="#2f2f2f"/></linearGradient><linearGradient id="linear-gradient-114" x1="39.39" y1="7.94" x2="43.55" y2="10.24" gradientUnits="userSpaceOnUse"><stop offset="0" stop-color="#0c0c0c"/><stop offset="1" stop-color="#343434"/></linearGradient><linearGradient id="linear-gradient-115" x1="39.39" y1="7.94" x2="43.54" y2="10.24" gradientUnits="userSpaceOnUse"><stop offset="0" stop-color="#0d0d0d"/><stop offset="1" stop-color="#383838"/></linearGradient><linearGradient id="linear-gradient-116" x1="39.4" y1="7.94" x2="43.54" y2="10.24" gradientUnits="userSpaceOnUse"><stop offset="0" stop-color="#0e0e0e"/><stop offset="1" stop-color="#3c3c3c"/></linearGradient><linearGradient id="linear-gradient-117" x1="39.41" y1="7.95" x2="43.53" y2="10.23" gradientUnits="userSpaceOnUse"><stop offset="0" stop-color="#0f0f0f"/><stop offset="1" stop-color="#414141"/></linearGradient><linearGradient id="linear-gradient-118" x1="39.41" y1="7.95" x2="43.53" y2="10.23" gradientUnits="userSpaceOnUse"><stop offset="0" stop-color="#101010"/><stop offset="1" stop-color="#454545"/></linearGradient><linearGradient id="linear-gradient-119" x1="39.42" y1="7.96" x2="43.52" y2="10.23" gradientUnits="userSpaceOnUse"><stop offset="0" stop-color="#111"/><stop offset="1" stop-color="#494949"/></linearGradient><linearGradient id="linear-gradient-120" x1="39.43" y1="7.96" x2="43.52" y2="10.23" gradientUnits="userSpaceOnUse"><stop offset="0" stop-color="#121212"/><stop offset="1" stop-color="#4e4e4e"/></linearGradient><linearGradient id="linear-gradient-121" x1="39.43" y1="7.96" x2="43.51" y2="10.22" gradientUnits="userSpaceOnUse"><stop offset="0" stop-color="#131313"/><stop offset="1" stop-color="#525252"/></linearGradient><linearGradient id="linear-gradient-122" x1="43.82" y1="10.39" x2="40.32" y2="8.45" gradientUnits="userSpaceOnUse"><stop offset="0" stop-color="#262626"/><stop offset="1" stop-color="#4f4f4f"/></linearGradient><linearGradient id="linear-gradient-123" x1="39.85" y1="8.19" x2="43.21" y2="10.06" xlink:href="#linear-gradient-122"/><linearGradient id="linear-gradient-124" x1="43.44" y1="10.18" x2="40.6" y2="8.61" xlink:href="#linear-gradient-122"/><linearGradient id="linear-gradient-125" x1="40.21" y1="8.39" x2="42.95" y2="9.91" xlink:href="#linear-gradient-122"/><linearGradient id="linear-gradient-126" x1="43.08" y1="9.98" x2="40.86" y2="8.75" xlink:href="#linear-gradient-122"/><linearGradient id="linear-gradient-127" x1="40.56" y1="8.59" x2="42.69" y2="9.77" xlink:href="#linear-gradient-122"/><radialGradient id="radial-gradient-6" cx="41.74" cy="9.14" r="0.44" gradientUnits="userSpaceOnUse"><stop offset="0" stop-color="#6a97b4"/><stop offset="0.09" stop-color="#5e87a4"/><stop offset="0.38" stop-color="#3d5e79"/><stop offset="0.63" stop-color="#25405a"/><stop offset="0.85" stop-color="#162e47"/><stop offset="1" stop-color="#112740"/></radialGradient><linearGradient id="linear-gradient-128" x1="23.07" y1="122.57" x2="93.05" y2="15.22" gradientUnits="userSpaceOnUse"><stop offset="0" stop-color="#181818"/><stop offset="1" stop-color="#4a4a4a"/></linearGradient></defs><title>phone_v</title><g class="cls-2"><g id="Layer_1" data-name="Layer 1"><g id="black_front" data-name="black front"><path class="cls-3" d="M1.52,32.23a.55.55,0,0,1-.59.49H.59A.55.55,0,0,1,0,32.23V25.32a.55.55,0,0,1,.59-.49H.93a.55.55,0,0,1,.59.49Z"/><path class="cls-4" d="M56.61,1.52a.55.55,0,0,1-.49-.59V.59A.55.55,0,0,1,56.61,0H69.1a.55.55,0,0,1,.49.59V.93a.55.55,0,0,1-.49.59Z"/><path class="cls-5" d="M1.52,46.81a.55.55,0,0,1-.59.49H.59A.55.55,0,0,1,0,46.81v-5a.55.55,0,0,1,.59-.49H.93a.55.55,0,0,1,.59.49Z"/><path class="cls-6" d="M1.52,61.11a.55.55,0,0,1-.59.49H.59A.55.55,0,0,1,0,61.11v-5a.55.55,0,0,1,.59-.49H.93a.55.55,0,0,1,.59.49Z"/><path class="cls-7" d="M82.87,15.74V14.44A13.9,13.9,0,0,0,79.12,4.38,13.83,13.83,0,0,0,69.07.65H14.52A13.86,13.86,0,0,0,4.45,4.38,13.81,13.81,0,0,0,.71,14.43v1.31H.8v1.46H.71V157.73H.8v1.46H.71v.91a13.85,13.85,0,0,0,3.73,10.07A13.83,13.83,0,0,0,14.5,173.9H69.06a12.89,12.89,0,0,0,13.82-13.78v-.92h-.09v-1.46h.09V17.19h-.09V15.74Z"/><path class="cls-8" d="M82.79,17.2V15.74h-.89V14.45C81.87,6.54,77,1.63,69.07,1.63H14.52C6.61,1.63,1.7,6.54,1.7,14.43v1.31H.8V17.2H1.7V157.73H.8v1.46H1.7v.91c0,7.9,4.91,12.81,12.81,12.81H69.06c7.9,0,12.82-4.91,12.84-12.8v-.92h.89v-1.46h-.89V17.2Z"/><path class="cls-9" d="M46.43,124.66C22.5,147.31,5.68,171.33,5.05,170.75a13.48,13.48,0,0,1-4.34-9.91v-1.65H.82v-1.45H.71V142Z"/><path class="cls-10" d="M37.16,124.66c23.92,22.65,40.75,46.67,41.38,46.09a13.48,13.48,0,0,0,4.34-9.91v-1.65h-.09v-1.46h.09V142Z"/><path class="cls-11" d="M50,46.36C27.35,22.44,3.33,5.61,3.91,5A13.48,13.48,0,0,1,13.82.65H32.71Z"/><path class="cls-12" d="M37.16,49.88C61.08,27.23,77.91,3.21,78.54,3.79a13.48,13.48,0,0,1,4.34,9.91v2h-.09V17.2h.09V32.59Z"/><path class="cls-13" d="M14.5,172.67c-7.75,0-12.56-4.82-12.56-12.57V14.43c0-7.74,4.82-12.55,12.57-12.55H69.07c7.73,0,12.55,4.82,12.58,12.57V160.11c0,7.74-4.84,12.55-12.59,12.56Z"/><path class="cls-14" d="M2.43,14.43V160.1c0,7.49,4.56,12.08,12.07,12.08H69.06c7.49,0,12.08-4.59,12.1-12.07V14.45C81.13,7,76.53,2.37,69.07,2.37H14.52C7,2.37,2.43,7,2.43,14.43Z"/><circle class="cls-15" cx="41.93" cy="161.33" r="7.63"/><path class="cls-16" d="M36.83,155.66a7.63,7.63,0,0,1,12.49,3.75C46.13,159.43,36.83,155.66,36.83,155.66Z"/><circle class="cls-17" cx="41.93" cy="161.33" r="6.74"/><polygon class="cls-18" points="5.74 24.48 5.74 150.07 77.85 150.07 77.85 24.48 5.74 24.48 5.74 24.48"/><path class="cls-19" d="M35.88,14.15a1.61,1.61,0,1,0,0,3.22H47.82c2.08,0,2-3.23,0-3.22Z"/><path class="cls-20" d="M35.88,16.7a.91.91,0,0,1-1-1,.9.9,0,0,1,1-.94H47.82a.89.89,0,0,1,.87,1,.85.85,0,0,1-.86.92Z"/><g class="cls-21"><g class="cls-22"><rect class="cls-23" x="32.61" y="15.67" width="4.13" height="0.18" transform="translate(-0.81 29.58) rotate(-45.73)"/><rect class="cls-24" x="32.93" y="15.67" width="4.13" height="0.18" transform="translate(-0.71 29.82) rotate(-45.73)"/><rect class="cls-25" x="33.26" y="15.67" width="4.13" height="0.18" transform="translate(-0.62 30.04) rotate(-45.71)"/><rect class="cls-26" x="33.59" y="15.67" width="4.13" height="0.18" transform="translate(-0.52 30.27) rotate(-45.71)"/><rect class="cls-27" x="33.92" y="15.67" width="4.13" height="0.18" transform="translate(-0.42 30.51) rotate(-45.71)"/><rect class="cls-28" x="34.24" y="15.67" width="4.13" height="0.18" transform="translate(-0.32 30.75) rotate(-45.73)"/><rect class="cls-29" x="34.57" y="15.67" width="4.13" height="0.18" transform="translate(-0.22 30.99) rotate(-45.73)"/><rect class="cls-30" x="34.9" y="15.67" width="4.13" height="0.18" transform="translate(-0.12 31.22) rotate(-45.73)"/><rect class="cls-31" x="35.22" y="15.67" width="4.13" height="0.18" transform="translate(-0.03 31.44) rotate(-45.71)"/><rect class="cls-32" x="35.55" y="15.67" width="4.13" height="0.18" transform="translate(0.07 31.68) rotate(-45.71)"/><rect class="cls-33" x="35.88" y="15.67" width="4.13" height="0.18" transform="translate(0.17 31.91) rotate(-45.71)"/><rect class="cls-34" x="36.21" y="15.67" width="4.13" height="0.18" transform="translate(0.27 32.16) rotate(-45.73)"/><rect class="cls-35" x="36.53" y="15.67" width="4.13" height="0.18" transform="translate(0.37 32.39) rotate(-45.73)"/><rect class="cls-36" x="36.86" y="15.67" width="4.13" height="0.18" transform="translate(0.47 32.63) rotate(-45.73)"/><rect class="cls-37" x="37.19" y="15.67" width="4.13" height="0.18" transform="translate(0.56 32.85) rotate(-45.71)"/><rect class="cls-38" x="37.52" y="15.67" width="4.13" height="0.18" transform="translate(0.66 33.08) rotate(-45.71)"/><rect class="cls-39" x="37.84" y="15.67" width="4.13" height="0.18" transform="translate(0.77 33.33) rotate(-45.73)"/><rect class="cls-40" x="38.17" y="15.67" width="4.13" height="0.18" transform="translate(0.87 33.57) rotate(-45.73)"/><rect class="cls-41" x="38.5" y="15.67" width="4.13" height="0.18" transform="translate(0.97 33.8) rotate(-45.73)"/><rect class="cls-42" x="38.82" y="15.67" width="4.13" height="0.18" transform="translate(1.06 34.02) rotate(-45.71)"/><rect class="cls-43" x="39.15" y="15.67" width="4.13" height="0.18" transform="translate(1.16 34.25) rotate(-45.71)"/><rect class="cls-44" x="39.48" y="15.67" width="4.13" height="0.18" transform="translate(1.25 34.49) rotate(-45.71)"/><rect class="cls-45" x="39.81" y="15.67" width="4.13" height="0.18" transform="translate(1.36 34.74) rotate(-45.73)"/><rect class="cls-46" x="40.13" y="15.67" width="4.13" height="0.18" transform="translate(1.46 34.97) rotate(-45.73)"/><rect class="cls-47" x="40.46" y="15.67" width="4.13" height="0.18" transform="translate(1.56 35.21) rotate(-45.73)"/><rect class="cls-48" x="40.79" y="15.67" width="4.13" height="0.18" transform="translate(1.65 35.42) rotate(-45.71)"/><rect class="cls-49" x="41.12" y="15.67" width="4.13" height="0.18" transform="translate(1.75 35.66) rotate(-45.71)"/><rect class="cls-50" x="41.44" y="15.67" width="4.13" height="0.18" transform="translate(1.85 35.91) rotate(-45.73)"/><rect class="cls-51" x="41.77" y="15.67" width="4.13" height="0.18" transform="translate(1.95 36.14) rotate(-45.73)"/><rect class="cls-52" x="42.1" y="15.67" width="4.13" height="0.18" transform="translate(2.05 36.38) rotate(-45.73)"/><rect class="cls-53" x="42.43" y="15.67" width="4.13" height="0.18" transform="translate(2.15 36.61) rotate(-45.73)"/><rect class="cls-54" x="42.75" y="15.67" width="4.13" height="0.18" transform="translate(2.24 36.83) rotate(-45.71)"/><rect class="cls-55" x="43.08" y="15.67" width="4.13" height="0.18" transform="translate(2.34 37.06) rotate(-45.71)"/><rect class="cls-56" x="43.41" y="15.67" width="4.13" height="0.18" transform="translate(2.45 37.32) rotate(-45.73)"/><rect class="cls-57" x="43.73" y="15.67" width="4.13" height="0.18" transform="translate(2.55 37.55) rotate(-45.73)"/><rect class="cls-58" x="44.06" y="15.67" width="4.13" height="0.18" transform="translate(2.65 37.78) rotate(-45.73)"/><rect class="cls-59" x="44.39" y="15.67" width="4.13" height="0.18" transform="translate(2.74 38) rotate(-45.71)"/><rect class="cls-60" x="44.72" y="15.67" width="4.13" height="0.18" transform="translate(2.83 38.24) rotate(-45.71)"/><rect class="cls-61" x="45.04" y="15.67" width="4.13" height="0.18" transform="translate(2.93 38.47) rotate(-45.71)"/><rect class="cls-62" x="45.37" y="15.67" width="4.13" height="0.18" transform="translate(3.04 38.72) rotate(-45.73)"/><rect class="cls-63" x="45.7" y="15.67" width="4.13" height="0.18" transform="translate(3.14 38.96) rotate(-45.73)"/><rect class="cls-64" x="46.03" y="15.67" width="4.13" height="0.18" transform="translate(3.24 39.19) rotate(-45.73)"/><rect class="cls-65" x="47.01" y="15.67" width="4.13" height="0.18" transform="translate(3.53 39.89) rotate(-45.73)"/><rect class="cls-66" x="46.35" y="15.67" width="4.13" height="0.18" transform="translate(3.33 39.41) rotate(-45.71)"/><rect class="cls-67" x="46.68" y="15.67" width="4.13" height="0.18" transform="translate(3.43 39.64) rotate(-45.71)"/></g><g class="cls-68"><rect class="cls-69" x="48.98" y="13.69" width="0.18" height="4.13" transform="translate(2.94 38.73) rotate(-44.27)"/><rect class="cls-70" x="48.65" y="13.69" width="0.18" height="4.13" transform="translate(2.85 38.52) rotate(-44.29)"/><rect class="cls-71" x="48.33" y="13.69" width="0.18" height="4.13" transform="translate(2.76 38.29) rotate(-44.29)"/><rect class="cls-72" x="48" y="13.69" width="0.18" height="4.13" transform="translate(2.66 38.04) rotate(-44.27)"/><rect class="cls-73" x="47.67" y="13.69" width="0.18" height="4.13" transform="translate(2.56 37.81) rotate(-44.27)"/><rect class="cls-74" x="47.35" y="13.69" width="0.18" height="4.13" transform="translate(2.47 37.59) rotate(-44.27)"/><rect class="cls-75" x="47.02" y="13.69" width="0.18" height="4.13" transform="translate(2.39 37.38) rotate(-44.29)"/><rect class="cls-76" x="46.69" y="13.69" width="0.18" height="4.13" transform="translate(2.29 37.15) rotate(-44.29)"/><rect class="cls-77" x="46.36" y="13.69" width="0.18" height="4.13" transform="translate(2.2 36.92) rotate(-44.29)"/><rect class="cls-78" x="46.04" y="13.69" width="0.18" height="4.13" transform="translate(2.1 36.67) rotate(-44.27)"/><rect class="cls-79" x="45.71" y="13.69" width="0.18" height="4.13" transform="translate(2.01 36.44) rotate(-44.27)"/><rect class="cls-80" x="45.38" y="13.69" width="0.18" height="4.13" transform="translate(1.91 36.22) rotate(-44.27)"/><rect class="cls-81" x="45.05" y="13.69" width="0.18" height="4.13" transform="translate(1.83 36) rotate(-44.29)"/><rect class="cls-82" x="44.73" y="13.69" width="0.18" height="4.13" transform="translate(1.74 35.78) rotate(-44.29)"/><rect class="cls-83" x="44.4" y="13.69" width="0.18" height="4.13" transform="translate(1.63 35.53) rotate(-44.27)"/><rect class="cls-84" x="44.07" y="13.69" width="0.18" height="4.13" transform="translate(1.54 35.3) rotate(-44.27)"/><rect class="cls-85" x="43.74" y="13.69" width="0.18" height="4.13" transform="translate(1.45 35.07) rotate(-44.27)"/><rect class="cls-86" x="43.42" y="13.69" width="0.18" height="4.13" transform="translate(1.36 34.86) rotate(-44.29)"/><rect class="cls-87" x="43.09" y="13.69" width="0.18" height="4.13" transform="translate(1.27 34.63) rotate(-44.29)"/><rect class="cls-88" x="42.76" y="13.69" width="0.18" height="4.13" transform="translate(1.18 34.4) rotate(-44.29)"/><rect class="cls-89" x="42.44" y="13.69" width="0.18" height="4.13" transform="translate(1.08 34.16) rotate(-44.27)"/><rect class="cls-90" x="42.11" y="13.69" width="0.18" height="4.13" transform="translate(0.98 33.93) rotate(-44.27)"/><rect class="cls-91" x="41.78" y="13.69" width="0.18" height="4.13" transform="translate(0.89 33.7) rotate(-44.27)"/><rect class="cls-92" x="41.45" y="13.69" width="0.18" height="4.13" transform="translate(0.81 33.49) rotate(-44.29)"/><rect class="cls-93" x="41.13" y="13.69" width="0.18" height="4.13" transform="translate(0.71 33.26) rotate(-44.29)"/><rect class="cls-94" x="40.8" y="13.69" width="0.18" height="4.13" transform="translate(0.62 33.03) rotate(-44.29)"/><rect class="cls-95" x="40.47" y="13.69" width="0.18" height="4.13" transform="translate(0.52 32.79) rotate(-44.27)"/><rect class="cls-96" x="40.14" y="13.69" width="0.18" height="4.13" transform="translate(0.43 32.56) rotate(-44.27)"/><rect class="cls-97" x="39.82" y="13.69" width="0.18" height="4.13" transform="translate(0.33 32.33) rotate(-44.27)"/><rect class="cls-98" x="39.49" y="13.69" width="0.18" height="4.13" transform="translate(0.25 32.12) rotate(-44.29)"/><rect class="cls-99" x="39.16" y="13.69" width="0.18" height="4.13" transform="translate(0.15 31.89) rotate(-44.29)"/><rect class="cls-100" x="38.84" y="13.69" width="0.18" height="4.13" transform="translate(0.05 31.65) rotate(-44.27)"/><rect class="cls-101" x="38.51" y="13.69" width="0.18" height="4.13" transform="translate(-0.04 31.42) rotate(-44.27)"/><rect class="cls-102" x="38.18" y="13.69" width="0.18" height="4.13" transform="translate(-0.13 31.19) rotate(-44.27)"/><rect class="cls-103" x="37.85" y="13.69" width="0.18" height="4.13" transform="translate(-0.22 30.98) rotate(-44.29)"/><rect class="cls-104" x="37.53" y="13.69" width="0.18" height="4.13" transform="translate(-0.31 30.75) rotate(-44.29)"/><rect class="cls-105" x="37.2" y="13.69" width="0.18" height="4.13" transform="translate(-0.4 30.52) rotate(-44.29)"/><rect class="cls-106" x="36.87" y="13.69" width="0.18" height="4.13" transform="translate(-0.5 30.28) rotate(-44.27)"/><rect class="cls-107" x="36.54" y="13.69" width="0.18" height="4.13" transform="translate(-0.6 30.05) rotate(-44.27)"/><rect class="cls-108" x="36.22" y="13.69" width="0.18" height="4.13" transform="translate(-0.69 29.82) rotate(-44.27)"/><rect class="cls-109" x="35.89" y="13.69" width="0.18" height="4.13" transform="translate(-0.78 29.6) rotate(-44.29)"/><rect class="cls-110" x="35.56" y="13.69" width="0.18" height="4.13" transform="translate(-0.87 29.38) rotate(-44.29)"/><rect class="cls-111" x="34.58" y="13.69" width="0.18" height="4.13" transform="translate(-1.15 28.68) rotate(-44.27)"/><rect class="cls-112" x="35.24" y="13.69" width="0.18" height="4.13" transform="translate(-0.96 29.15) rotate(-44.29)"/><rect class="cls-113" x="34.91" y="13.69" width="0.18" height="4.13" transform="translate(-1.06 28.9) rotate(-44.27)"/></g></g><path class="cls-114" d="M30.18,14.91a.91.91,0,1,0,.91.91.91.91,0,0,0-.91-.91Z"/><path class="cls-115" d="M41.79,7.72a1.56,1.56,0,1,0,1.56,1.56,1.56,1.56,0,0,0-1.56-1.56Z"/><path class="cls-116" d="M41.79,7.72h0a1.55,1.55,0,1,1-1.55,1.55A1.55,1.55,0,0,1,41.79,7.72Z"/><path class="cls-117" d="M41.79,7.72h0a1.55,1.55,0,1,1-1.55,1.55A1.55,1.55,0,0,1,41.79,7.72Z"/><path class="cls-118" d="M41.79,7.73h0a1.54,1.54,0,1,1-1.54,1.54A1.54,1.54,0,0,1,41.79,7.73Z"/><path class="cls-119" d="M41.79,7.73h0a1.54,1.54,0,1,1-1.54,1.54A1.54,1.54,0,0,1,41.79,7.73Z"/><path class="cls-120" d="M41.79,7.74h0a1.53,1.53,0,1,1-1.53,1.53A1.53,1.53,0,0,1,41.79,7.74Z"/><path class="cls-121" d="M41.79,7.74h0a1.53,1.53,0,1,1-1.53,1.53A1.53,1.53,0,0,1,41.79,7.74Z"/><path class="cls-122" d="M41.79,7.75h0a1.53,1.53,0,1,1-1.53,1.53A1.53,1.53,0,0,1,41.79,7.75Z"/><path class="cls-123" d="M41.79,7.75h0a1.52,1.52,0,1,1-1.52,1.52A1.52,1.52,0,0,1,41.79,7.75Z"/><path class="cls-124" d="M41.79,7.75h0a1.52,1.52,0,1,1-1.52,1.52A1.52,1.52,0,0,1,41.79,7.75Z"/><path class="cls-125" d="M41.79,7.76h0a1.51,1.51,0,1,1-1.51,1.51A1.51,1.51,0,0,1,41.79,7.76Z"/><path class="cls-126" d="M41.79,7.76h0a1.51,1.51,0,1,1-1.51,1.51A1.51,1.51,0,0,1,41.79,7.76Z"/><path class="cls-127" d="M41.79,7.77h0a1.5,1.5,0,1,1-1.5,1.5A1.5,1.5,0,0,1,41.79,7.77Z"/><path class="cls-128" d="M41.79,7.77h0a1.5,1.5,0,1,1-1.5,1.5A1.5,1.5,0,0,1,41.79,7.77Z"/><path class="cls-129" d="M41.79,7.77h0a1.5,1.5,0,1,1-1.5,1.5A1.5,1.5,0,0,1,41.79,7.77Z"/><path class="cls-130" d="M41.79,7.78h0A1.49,1.49,0,1,1,40.3,9.27,1.49,1.49,0,0,1,41.79,7.78Z"/><path class="cls-131" d="M41.79,7.78h0a1.49,1.49,0,1,1-1.49,1.49A1.49,1.49,0,0,1,41.79,7.78Z"/><path class="cls-132" d="M41.79,7.79h0a1.48,1.48,0,1,1-1.48,1.48A1.48,1.48,0,0,1,41.79,7.79Z"/><path class="cls-133" d="M41.79,7.79h0a1.48,1.48,0,1,1-1.48,1.48A1.48,1.48,0,0,1,41.79,7.79Z"/><circle class="cls-134" cx="41.79" cy="9.27" r="1.47"/><g class="cls-135"><circle class="cls-136" cx="41.79" cy="9.27" r="1.26"/><circle class="cls-137" cx="41.79" cy="9.27" r="1.22"/></g><g class="cls-135"><circle class="cls-138" cx="41.79" cy="9.27" r="1.03"/><circle class="cls-139" cx="41.79" cy="9.27" r="0.99"/></g><g class="cls-135"><circle class="cls-140" cx="41.79" cy="9.27" r="0.8"/><circle class="cls-141" cx="41.79" cy="9.27" r="0.77"/></g><circle class="cls-142" cx="41.79" cy="9.27" r="0.44"/><path class="cls-143" d="M81.16,160.11V14.45C81.13,7,76.53,2.37,69.07,2.37H18.77S81.14,167.59,81.16,160.11Z"/></g></g></g></svg>