<svg xmlns="http://www.w3.org/2000/svg" xmlns:xlink="http://www.w3.org/1999/xlink" viewBox="0 0 285.81 206.65"><defs><style>.cls-1{fill:none;}.cls-2{isolation:isolate;}.cls-167,.cls-3,.cls-4,.cls-5,.cls-6{fill-rule:evenodd;}.cls-3{fill:url(#linear-gradient);}.cls-4{fill:url(#linear-gradient-2);}.cls-5{fill:url(#linear-gradient-3);}.cls-6{fill:url(#linear-gradient-4);}.cls-7{clip-path:url(#clip-path);}.cls-8{fill:#565757;}.cls-9{fill:#575858;}.cls-10{fill:#585959;}.cls-11{fill:#595a5a;}.cls-12{fill:#5a5b5b;}.cls-13{fill:#5b5c5c;}.cls-14{fill:#5c5d5d;}.cls-15{fill:#5d5e5e;}.cls-16{fill:#5e5f5f;}.cls-17{fill:#5f6060;}.cls-18{fill:#606161;}.cls-19{fill:#616262;}.cls-20{fill:#626363;}.cls-21{fill:#636464;}.cls-22{fill:#646565;}.cls-23{fill:#656666;}.cls-24{fill:#666767;}.cls-25{fill:#676868;}.cls-26{fill:#686969;}.cls-27{fill:#696a6a;}.cls-28{fill:#6a6b6b;}.cls-29{fill:#6b6c6c;}.cls-30{fill:#6c6d6d;}.cls-31{fill:#6d6e6e;}.cls-32{fill:#6e6f6f;}.cls-33{fill:#6f7070;}.cls-34{fill:#707171;}.cls-35{fill:#717272;}.cls-36{fill:#727373;}.cls-37{fill:#737474;}.cls-38{fill:#747575;}.cls-39{fill:#757676;}.cls-40{fill:#767777;}.cls-41{fill:#777878;}.cls-42{fill:#787979;}.cls-43{fill:#797a7a;}.cls-44{fill:#7a7b7b;}.cls-45{fill:#7b7c7c;}.cls-46{fill:#7c7d7d;}.cls-47{fill:#7d7e7e;}.cls-48{fill:#7e7f7f;}.cls-49{fill:#7f8080;}.cls-50{fill:#808181;}.cls-51{fill:#818282;}.cls-52{fill:#828383;}.cls-53{fill:#838484;}.cls-54{fill:#848585;}.cls-55{fill:#858686;}.cls-56{fill:#868787;}.cls-57{fill:#878888;}.cls-58{fill:#888989;}.cls-59{fill:#898a8a;}.cls-60{fill:#8a8b8b;}.cls-61{fill:#8b8c8c;}.cls-62{fill:#8c8d8d;}.cls-63{fill:#8d8e8e;}.cls-64{fill:#8e8f8f;}.cls-65{fill:#8f9090;}.cls-66{fill:#909191;}.cls-67{fill:#919292;}.cls-68{fill:#929393;}.cls-69{fill:#939494;}.cls-70{fill:#959696;}.cls-71{fill:#969797;}.cls-72{fill:#979898;}.cls-73{fill:#989999;}.cls-74{fill:#999a9a;}.cls-75{fill:#9a9b9b;}.cls-76{fill:#9b9c9c;}.cls-77{fill:#9c9d9d;}.cls-78{fill:#9d9e9e;}.cls-79{fill:#9e9f9f;}.cls-80{fill:#9fa0a0;}.cls-81{fill:#a0a1a1;}.cls-82{fill:#a1a2a2;}.cls-83{fill:#a2a3a3;}.cls-84{fill:#a3a4a4;}.cls-85{fill:#a4a5a5;}.cls-86{fill:#a5a6a6;}.cls-87{fill:#a6a7a7;}.cls-88{fill:#a7a8a8;}.cls-89{fill:#a8a9a9;}.cls-90{fill:#a9aaaa;}.cls-91{fill:#aaabab;}.cls-92{fill:#abacac;}.cls-93{fill:#acadad;}.cls-94{fill:#adaeae;}.cls-95{fill:#aeafaf;}.cls-96{fill:#afb0b0;}.cls-97{fill:#b0b1b1;}.cls-98{fill:#b1b2b2;}.cls-99{fill:#b2b3b3;}.cls-100{fill:#b3b4b4;}.cls-101{fill:#b4b5b5;}.cls-102{fill:#b5b6b6;}.cls-103{fill:#b6b7b7;}.cls-104{fill:#b7b8b8;}.cls-105{fill:#b8b9b9;}.cls-106{fill:#b9baba;}.cls-107{fill:#babbbb;}.cls-108{fill:#bbbcbc;}.cls-109{fill:#bcbdbd;}.cls-110{fill:#bdbebe;}.cls-111{fill:#bebfbf;}.cls-112{fill:#bfc0c0;}.cls-113{fill:#c0c1c1;}.cls-114{fill:#c1c2c2;}.cls-115{fill:#c2c3c3;}.cls-116{fill:#c3c4c4;}.cls-117{fill:#c4c5c5;}.cls-118{fill:#c5c6c6;}.cls-119{fill:#c6c7c7;}.cls-120{fill:#c7c8c8;}.cls-121{fill:#c8c9c9;}.cls-122{fill:#c9caca;}.cls-123{fill:#cacbcb;}.cls-124{fill:#cbcccc;}.cls-125{fill:#cccdcd;}.cls-126{fill:#cdcece;}.cls-127{fill:#cecfcf;}.cls-128{fill:#cfd0d0;}.cls-129{fill:#d0d1d1;}.cls-130{fill:#d1d2d2;}.cls-131{fill:#d2d3d3;}.cls-132{fill:#d3d4d4;}.cls-133{fill:#d4d5d5;}.cls-134{fill:#d5d6d6;}.cls-135{fill:#d6d7d7;}.cls-136{fill:#d7d8d8;}.cls-137{fill:#d8d9d9;}.cls-138{fill:#d9dada;}.cls-139{fill:#dadbdb;}.cls-140{fill:#dbdcdc;}.cls-141{fill:#dcdddd;}.cls-142{fill:#dddede;}.cls-143{fill:#dfe0df;}.cls-144{fill:#e0e1e0;}.cls-145{fill:#e1e2e1;}.cls-146{fill:#e2e3e2;}.cls-147{fill:#e3e4e3;}.cls-148{fill:#e4e5e4;}.cls-149{fill:#e5e6e5;}.cls-150{fill:#e6e7e6;}.cls-151{fill:#e7e8e7;}.cls-152{fill:#e8e9e8;}.cls-153{fill:#e9eae9;}.cls-154{fill:#eaebea;}.cls-155{fill:#ebeceb;}.cls-156,.cls-157,.cls-158,.cls-159,.cls-165,.cls-167{mix-blend-mode:screen;}.cls-156{fill:url(#linear-gradient-5);}.cls-157{fill:url(#linear-gradient-6);}.cls-158{fill:url(#linear-gradient-7);}.cls-159{fill:url(#linear-gradient-8);}.cls-160{fill:url(#linear-gradient-9);}.cls-161{fill:#fff;}.cls-162{fill:url(#linear-gradient-10);}.cls-163{fill:url(#radial-gradient);}.cls-164{fill:url(#linear-gradient-11);}.cls-165{fill:url(#linear-gradient-12);}.cls-166{fill:url(#linear-gradient-13);}.cls-167{fill:url(#linear-gradient-14);}</style><linearGradient id="linear-gradient" x1="2850.23" y1="1180.36" x2="2850.23" y2="1172.47" gradientTransform="translate(1426.27 -2842.25) rotate(90)" gradientUnits="userSpaceOnUse"><stop offset="0" stop-color="#888989"/><stop offset="0.03" stop-color="#6e6f6f"/><stop offset="0.07" stop-color="#484949"/><stop offset="0.11" stop-color="#313232"/><stop offset="0.13" stop-color="#282929"/><stop offset="0.18" stop-color="#282929"/><stop offset="0.51" stop-color="#282929"/><stop offset="0.58" stop-color="#3d3e3e"/><stop offset="0.7" stop-color="#737474"/><stop offset="0.83" stop-color="#acacac"/><stop offset="1" stop-color="#191a1a"/></linearGradient><linearGradient id="linear-gradient-2" x1="1923.11" y1="-2888.63" x2="1923.11" y2="-2902.11" gradientTransform="translate(2200.98 -2725.8) rotate(180)" gradientUnits="userSpaceOnUse"><stop offset="0" stop-color="#888989"/><stop offset="0.03" stop-color="#6e6f6f"/><stop offset="0.07" stop-color="#484949"/><stop offset="0.11" stop-color="#313232"/><stop offset="0.13" stop-color="#282929"/><stop offset="0.17" stop-color="#343535"/><stop offset="0.24" stop-color="#434444"/><stop offset="0.32" stop-color="#4c4c4c"/><stop offset="0.45" stop-color="#4f4f4f"/><stop offset="0.83" stop-color="#acacac"/><stop offset="1" stop-color="#191a1a"/></linearGradient><linearGradient id="linear-gradient-3" x1="2850.23" y1="1194.94" x2="2850.23" y2="1188.92" gradientTransform="translate(1426.27 -2842.25) rotate(90)" gradientUnits="userSpaceOnUse"><stop offset="0" stop-color="#888989"/><stop offset="0.08" stop-color="#747575"/><stop offset="0.27" stop-color="#4b4c4c"/><stop offset="0.42" stop-color="#313232"/><stop offset="0.51" stop-color="#282929"/><stop offset="0.58" stop-color="#3d3e3e"/><stop offset="0.7" stop-color="#737474"/><stop offset="0.83" stop-color="#acacac"/><stop offset="1" stop-color="#191a1a"/></linearGradient><linearGradient id="linear-gradient-4" x1="2850.23" y1="1209.24" x2="2850.23" y2="1203.22" xlink:href="#linear-gradient-3"/><clipPath id="clip-path"><rect class="cls-1" x="7.97" y="7.97" width="269.86" height="190.7" rx="10.49" ry="10.49"/></clipPath><linearGradient id="linear-gradient-5" x1="3015.18" y1="1164.63" x2="3025.12" y2="1181.03" gradientTransform="translate(1426.27 -2842.25) rotate(90)" gradientUnits="userSpaceOnUse"><stop offset="0" stop-color="#080808"/><stop offset="0.11" stop-color="#ebeceb"/><stop offset="1"/></linearGradient><linearGradient id="linear-gradient-6" x1="-1214.27" y1="1161.27" x2="-1204.24" y2="1177.82" gradientTransform="matrix(0, -1, -1, 0, 1426.27, -1185.73)" xlink:href="#linear-gradient-5"/><linearGradient id="linear-gradient-7" x1="1843.02" y1="-1912.85" x2="1853.43" y2="-1895.69" gradientTransform="translate(1871.41 -1726) rotate(180)" xlink:href="#linear-gradient-5"/><linearGradient id="linear-gradient-8" x1="-1214.43" y1="-734.08" x2="-1204.46" y2="-717.63" gradientTransform="translate(755.16 -1185.73) rotate(-90)" xlink:href="#linear-gradient-5"/><linearGradient id="linear-gradient-9" x1="2917.5" y1="1326.42" x2="3020.3" y2="1168.74" gradientTransform="translate(1426.27 -2842.25) rotate(90)" gradientUnits="userSpaceOnUse"><stop offset="0" stop-color="#1c1c1c"/><stop offset="1"/></linearGradient><linearGradient id="linear-gradient-10" x1="2943.23" y1="1159.45" x2="2947.28" y2="1161.69" gradientTransform="translate(1426.27 -2842.25) rotate(90)" gradientUnits="userSpaceOnUse"><stop offset="0" stop-color="#212121"/><stop offset="1" stop-color="#474747"/></linearGradient><radialGradient id="radial-gradient" cx="2945.48" cy="1160.55" r="0.7" gradientTransform="translate(1426.27 -2842.25) rotate(90)" gradientUnits="userSpaceOnUse"><stop offset="0" stop-color="#80bdec"/><stop offset="0.02" stop-color="#7dbae9"/><stop offset="0.32" stop-color="#558fc2"/><stop offset="0.6" stop-color="#3970a6"/><stop offset="0.83" stop-color="#275d94"/><stop offset="0.99" stop-color="#21568e"/></radialGradient><linearGradient id="linear-gradient-11" x1="2943.72" y1="1399.87" x2="2947.64" y2="1415" gradientTransform="translate(1426.27 -2842.25) rotate(90)" gradientUnits="userSpaceOnUse"><stop offset="0" stop-color="#080808"/><stop offset="0.03" stop-color="#272727"/><stop offset="0.09" stop-color="#626262"/><stop offset="0.15" stop-color="#939393"/><stop offset="0.21" stop-color="#b9bab9"/><stop offset="0.26" stop-color="#d5d5d5"/><stop offset="0.31" stop-color="#e5e6e5"/><stop offset="0.35" stop-color="#ebeceb"/><stop offset="0.68" stop-color="#c5c6c5"/><stop offset="1"/></linearGradient><linearGradient id="linear-gradient-12" x1="2898.89" y1="-686.58" x2="2901.16" y2="-688.8" gradientTransform="matrix(-0.74, 0.67, -0.67, -0.74, 1718.47, -2344.04)" gradientUnits="userSpaceOnUse"><stop offset="0"/><stop offset="0.75" stop-color="#8a8b8a"/><stop offset="0.98" stop-color="#131313"/><stop offset="1" stop-color="#080808"/></linearGradient><linearGradient id="linear-gradient-13" x1="2942.18" y1="1412.25" x2="2948.97" y2="1401.83" gradientTransform="translate(1426.27 -2842.25) rotate(90)" gradientUnits="userSpaceOnUse"><stop offset="0" stop-color="#1c1c1c"/><stop offset="1" stop-color="#161616"/></linearGradient><linearGradient id="linear-gradient-14" x1="181.41" y1="160.63" x2="277.13" y2="13.8" gradientUnits="userSpaceOnUse"><stop offset="0" stop-color="#181818"/><stop offset="1" stop-color="#4a4a4a"/></linearGradient></defs><title>tablet_h</title><g class="cls-2"><g id="Layer_2" data-name="Layer 2"><g id="Layer_1-2" data-name="Layer 1"><path class="cls-3" d="M246.4,8.74a.55.55,0,0,1-.49-.59V7.81a.55.55,0,0,1,.49-.59h6.91a.55.55,0,0,1,.49.59v.33a.55.55,0,0,1-.49.59Z"/><path class="cls-4" d="M277.1,163.33a.55.55,0,0,1,.59-.49H278a.55.55,0,0,1,.59.49v12.49a.55.55,0,0,1-.59.49h-.33a.55.55,0,0,1-.59-.49Z"/><path class="cls-5" d="M231.82,8.74a.55.55,0,0,1-.49-.59V7.81a.55.55,0,0,1,.49-.59h5a.55.55,0,0,1,.49.59v.33a.55.55,0,0,1-.49.59Z"/><path class="cls-6" d="M217.52,8.74a.55.55,0,0,1-.49-.59V7.81a.55.55,0,0,1,.49-.59h5a.55.55,0,0,1,.49.59v.33a.55.55,0,0,1-.49.59Z"/><g class="cls-7"><rect class="cls-8" x="7.97" y="7.97" width="269.86" height="190.7"/><path class="cls-8" d="M7,103.32V13H6.79q6.53-4.33,13.67-8.25V7H265.35V4.75Q272.48,8.65,279,13h-.18V193.65H279q-6.53,4.33-13.67,8.24v-2.23H20.46v2.23q-7.13-3.9-13.67-8.24H7Z"/><path class="cls-9" d="M7,103.32V17.55H.62Q3.72,15.28,7,13.12,13.5,8.79,20.63,4.89V7H265.17V4.89q7.12,3.9,13.65,8.23,3.26,2.16,6.36,4.43h-6.36V189.1h6.36q-3.1,2.27-6.36,4.43-6.52,4.33-13.65,8.23v-2.09H20.63v2.09q-7.12-3.9-13.65-8.23Q3.72,191.36.62,189.1H7Z"/><path class="cls-10" d="M7,103.32V17.67H.82q3.1-2.26,6.36-4.42Q13.69,8.92,20.8,5V7H265V5q7.11,3.89,13.63,8.22,3.26,2.16,6.36,4.42h-6.16V189H285q-3.1,2.26-6.36,4.42-6.51,4.32-13.63,8.22v-1.95H20.8v1.95q-7.11-3.89-13.63-8.22Q3.92,191.24.82,189H7Z"/><path class="cls-11" d="M7,103.32V17.79H1q3.09-2.26,6.35-4.42Q13.87,9.06,21,5.16V7H264.83V5.16q7.1,3.89,13.61,8.21,3.25,2.16,6.35,4.42h-6V188.86h6q-3.09,2.26-6.35,4.42-6.5,4.32-13.61,8.21v-1.81H21v1.81q-7.1-3.89-13.61-8.21Q4.11,191.11,1,188.86H7Z"/><path class="cls-12" d="M7,103.32V17.91H1.22q3.09-2.26,6.34-4.41,6.49-4.31,13.59-8.2V7H264.66V5.3q7.09,3.88,13.59,8.2,3.25,2.16,6.34,4.41h-5.76V188.73h5.76q-3.09,2.26-6.34,4.41-6.49,4.31-13.59,8.2v-1.67H21.15v1.67q-7.09-3.88-13.59-8.2Q4.31,191,1.22,188.73H7Z"/><path class="cls-13" d="M7,103.32V18H1.42q3.09-2.25,6.33-4.41,6.49-4.3,13.57-8.19V7H264.49V5.44q7.08,3.88,13.57,8.19,3.24,2.15,6.33,4.41h-5.56V188.61h5.56q-3.09,2.25-6.33,4.41-6.49,4.3-13.57,8.19v-1.53H21.32v1.53Q14.24,197.33,7.75,193q-3.24-2.15-6.33-4.41H7Z"/><path class="cls-14" d="M7,103.32V18.15H1.62q3.08-2.25,6.32-4.4,6.48-4.3,13.55-8.18V7H264.31V5.58q7.07,3.87,13.55,8.18,3.24,2.15,6.32,4.4h-5.36V188.49h5.36q-3.08,2.25-6.32,4.4-6.48,4.3-13.55,8.18v-1.39H21.49v1.39q-7.07-3.87-13.55-8.18-3.24-2.15-6.32-4.4H7Z"/><path class="cls-15" d="M7,103.32v-85H1.82Q4.89,16,8.13,13.88,14.6,9.59,21.66,5.72V7H264.14V5.72q7.06,3.87,13.54,8.16Q280.91,16,284,18.27h-5.16v170.1H284q-3.08,2.25-6.31,4.39-6.47,4.29-13.54,8.16v-1.26H21.66v1.26q-7.06-3.87-13.54-8.16-3.23-2.15-6.31-4.39H7Z"/><path class="cls-16" d="M7,103.32V18.39H2Q5.09,16.15,8.32,14q6.46-4.29,13.52-8.15V7H264V5.86Q271,9.72,277.49,14q3.23,2.14,6.3,4.39h-5V188.25h5q-3.07,2.24-6.3,4.39Q271,196.92,264,200.79v-1.12H21.84v1.12q-7-3.86-13.52-8.15Q5.09,190.5,2,188.25H7Z"/><path class="cls-17" d="M7,103.32V18.52H2.22q3.07-2.24,6.29-4.38Q15,9.86,22,6V7H263.8V6q7,3.86,13.5,8.14,3.22,2.14,6.29,4.38h-4.76V188.13h4.76q-3.07,2.24-6.29,4.38-6.45,4.28-13.5,8.14v-1H22v1q-7-3.86-13.5-8.14-3.22-2.14-6.29-4.38H7Z"/><path class="cls-18" d="M7,103.32V18.64H2.42Q5.48,16.4,8.7,14.26,15.14,10,22.18,6.13V7H263.63V6.13q7,3.85,13.48,8.13,3.22,2.14,6.28,4.37h-4.56V188h4.56q-3.06,2.24-6.28,4.37-6.44,4.27-13.48,8.13v-.84H22.18v.84q-7-3.85-13.48-8.13Q5.48,190.25,2.42,188H7Z"/><path class="cls-19" d="M7,103.32V18.76H2.62q3.06-2.23,6.28-4.37,6.43-4.27,13.46-8.12V7h241.1v-.7q7,3.84,13.46,8.12,3.22,2.13,6.28,4.37h-4.36V187.89h4.36q-3.06,2.23-6.28,4.37-6.43,4.27-13.46,8.12v-.7H22.35v.7q-7-3.84-13.46-8.12-3.22-2.13-6.28-4.37H7Z"/><path class="cls-20" d="M7,103.32V18.88H2.82q3.05-2.23,6.27-4.36,6.42-4.26,13.44-8.11V7H263.28V6.41q7,3.84,13.44,8.11,3.21,2.13,6.27,4.36h-4.16V187.77H283q-3.05,2.23-6.27,4.36-6.42,4.26-13.44,8.11v-.56H22.52v.56q-7-3.84-13.44-8.11Q5.87,190,2.82,187.77H7Z"/><path class="cls-21" d="M7,103.32V19H3q3.05-2.23,6.26-4.36,6.41-4.26,13.42-8.09V7H263.11V6.55q7,3.83,13.42,8.09,3.21,2.13,6.26,4.36h-4V187.65h4q-3.05,2.23-6.26,4.36-6.41,4.26-13.42,8.09v-.43H22.7v.43q-7-3.83-13.42-8.09Q6.07,189.88,3,187.65H7Z"/><path class="cls-22" d="M7,103.32V19.12H3.22q3-2.22,6.25-4.35,6.4-4.25,13.4-8.08V7H262.94V6.69q7,3.83,13.4,8.08,3.2,2.12,6.25,4.35h-3.76V187.53h3.76q-3,2.22-6.25,4.35-6.4,4.25-13.4,8.08v-.29H22.87V200q-7-3.83-13.4-8.08-3.2-2.12-6.25-4.35H7Z"/><path class="cls-23" d="M7,103.32V19.24H3.42q3-2.22,6.24-4.34Q16.05,10.65,23,6.82V7H262.77V6.82q7,3.82,13.38,8.07,3.2,2.12,6.24,4.34h-3.56V187.41h3.56q-3,2.22-6.24,4.34-6.39,4.24-13.38,8.07v-.15H23v.15q-7-3.82-13.38-8.07-3.2-2.12-6.24-4.34H7Z"/><path class="cls-24" d="M7,103.32v-84H3.62q3-2.22,6.23-4.34Q16.23,10.79,23.21,7H262.59q7,3.82,13.36,8.06,3.19,2.12,6.23,4.34h-3.36V187.29h3.36q-3,2.22-6.23,4.34-6.38,4.24-13.36,8.06H23.21q-7-3.82-13.36-8.06-3.19-2.12-6.23-4.34H7Z"/><path class="cls-25" d="M7,103.32V19.48H3.82q3-2.21,6.22-4.33,6.38-4.23,13.34-8,3.48-1.91,7.1-3.7V7H255.32V3.4q3.62,1.8,7.1,3.7,7,3.81,13.34,8Q279,17.27,282,19.48h-3.15V187.17H282q-3,2.21-6.22,4.33-6.38,4.23-13.34,8-3.48,1.91-7.1,3.7v-3.57H30.48v3.57q-3.62-1.8-7.1-3.7-7-3.81-13.34-8-3.19-2.12-6.22-4.33H7Z"/><path class="cls-26" d="M7,103.32V19.6H4q3-2.21,6.21-4.32A193,193,0,0,1,38,.07V7H247.81V.07a193,193,0,0,1,27.77,15.2q3.18,2.11,6.21,4.32h-3V187h3q-3,2.21-6.21,4.32a193,193,0,0,1-27.77,15.2v-6.9H38v6.9a193,193,0,0,1-27.77-15.2Q7,189.26,4,187H7Z"/><path class="cls-27" d="M7,103.32V19.72H4.22q3-2.21,6.2-4.32A192.76,192.76,0,0,1,38.15.22V7h209.5V.22A192.76,192.76,0,0,1,275.38,15.4q3.18,2.11,6.2,4.32h-2.75v167.2h2.75q-3,2.21-6.2,4.32a192.77,192.77,0,0,1-27.73,15.18v-6.75H38.15v6.75a192.77,192.77,0,0,1-27.73-15.18q-3.18-2.11-6.2-4.32H7Z"/><path class="cls-28" d="M7,103.32V19.84H4.42q3-2.21,6.19-4.31A192.5,192.5,0,0,1,38.3.37V7H247.5V.37a192.5,192.5,0,0,1,27.69,15.16q3.17,2.11,6.19,4.31h-2.55v167h2.55q-3,2.21-6.19,4.31a192.49,192.49,0,0,1-27.69,15.16v-6.6H38.3v6.6a192.49,192.49,0,0,1-27.69-15.16Q7.44,189,4.42,186.8H7Z"/><path class="cls-29" d="M7,103.32V20H4.62q3-2.2,6.19-4.31A192.22,192.22,0,0,1,38.45.52V7h208.9V.52A192.21,192.21,0,0,1,275,15.66q3.17,2.1,6.19,4.31h-2.35V186.68h2.35q-3,2.2-6.19,4.31a192.21,192.21,0,0,1-27.65,15.14v-6.45H38.45v6.45A192.22,192.22,0,0,1,10.81,191q-3.17-2.1-6.19-4.31H7Z"/><path class="cls-30" d="M7,103.32V20.08H4.82q3-2.2,6.18-4.3A191.94,191.94,0,0,1,38.6.67V7H247.2V.67a191.93,191.93,0,0,1,27.61,15.12q3.16,2.1,6.18,4.3h-2.15V186.56H281q-3,2.2-6.18,4.3A191.93,191.93,0,0,1,247.2,206v-6.31H38.6V206A191.94,191.94,0,0,1,11,190.86q-3.16-2.1-6.18-4.3H7Z"/><path class="cls-31" d="M7,103.32V20.2H5q3-2.2,6.17-4.29A191.65,191.65,0,0,1,38.76.82V7H247.05V.82a191.66,191.66,0,0,1,27.57,15.1q3.16,2.1,6.17,4.29h-2V186.44h2q-3,2.2-6.17,4.29a191.66,191.66,0,0,1-27.57,15.1v-6.16H38.76v6.16a191.65,191.65,0,0,1-27.57-15.09Q8,188.64,5,186.44H7Z"/><path class="cls-32" d="M7,103.32v-83H5.22q3-2.19,6.16-4.29A191.38,191.38,0,0,1,38.91,1V7h208V1A191.38,191.38,0,0,1,274.43,16q3.16,2.09,6.16,4.29h-1.75v166h1.75q-3,2.19-6.16,4.29a191.38,191.38,0,0,1-27.53,15.07v-6h-208v6a191.38,191.38,0,0,1-27.53-15.07q-3.16-2.09-6.16-4.29H7Z"/><path class="cls-33" d="M7,103.32V20.45H5.42q3-2.19,6.15-4.28A191.11,191.11,0,0,1,39.06,1.11V7H246.75V1.11a191.11,191.11,0,0,1,27.49,15.05q3.15,2.09,6.15,4.28h-1.55V186.2h1.55q-3,2.19-6.15,4.28a191.09,191.09,0,0,1-27.49,15.05v-5.86H39.06v5.86a191.09,191.09,0,0,1-27.49-15.05q-3.15-2.09-6.15-4.28H7Z"/><path class="cls-34" d="M7,103.32V20.57H5.62q3-2.19,6.14-4.27a190.82,190.82,0,0,1,27.45-15V7H246.6V1.26a190.83,190.83,0,0,1,27.45,15q3.15,2.09,6.14,4.27h-1.35V186.08h1.35q-3,2.19-6.14,4.27a190.84,190.84,0,0,1-27.45,15v-5.71H39.21v5.71a190.83,190.83,0,0,1-27.45-15q-3.15-2.09-6.14-4.27H7Z"/><path class="cls-35" d="M7,103.32V25.15H0q5.66-4.55,12-8.73a190.55,190.55,0,0,1,27.41-15V7H246.45V1.41a190.55,190.55,0,0,1,27.41,15q6.28,4.17,12,8.73h-7V181.5h7q-5.66,4.55-12,8.73a190.55,190.55,0,0,1-27.41,15v-5.56H39.36v5.56a190.55,190.55,0,0,1-27.41-15q-6.28-4.17-12-8.73H7Z"/><path class="cls-36" d="M7,103.32V25.26H.21q5.65-4.55,11.94-8.71a190.27,190.27,0,0,1,27.37-15V7H246.29V1.56a190.26,190.26,0,0,1,27.37,15q6.27,4.16,11.94,8.72h-6.77V181.39h6.77q-5.65,4.55-11.94,8.72a190.26,190.26,0,0,1-27.37,15v-5.41H39.51v5.41a190.27,190.27,0,0,1-27.37-15Q5.87,185.94.21,181.39H7Z"/><path class="cls-37" d="M7,103.32V25.37H.42q5.64-4.54,11.92-8.7a190,190,0,0,1,27.33-15V7H246.14V1.71a190,190,0,0,1,27.33,15q6.27,4.16,11.92,8.7h-6.56v155.9h6.56q-5.64,4.54-11.92,8.7a190,190,0,0,1-27.33,15v-5.26H39.66v5.26a190,190,0,0,1-27.33-15q-6.27-4.16-11.92-8.7H7Z"/><path class="cls-38" d="M7,103.32V25.49H.63Q6.26,21,12.53,16.8A189.72,189.72,0,0,1,39.81,1.86V7H246V1.86A189.71,189.71,0,0,1,273.28,16.8q6.26,4.15,11.9,8.69h-6.35V181.16h6.35q-5.64,4.53-11.9,8.69A189.7,189.7,0,0,1,246,204.79v-5.12H39.81v5.12a189.71,189.71,0,0,1-27.29-14.94Q6.27,185.7.63,181.16H7Z"/><path class="cls-39" d="M7,103.32V25.6H.83q5.63-4.53,11.88-8.68A189.44,189.44,0,0,1,40,2V7H245.84V2a189.45,189.45,0,0,1,27.25,14.92q6.25,4.15,11.88,8.68h-6.14V181H285q-5.63,4.53-11.88,8.68a189.45,189.45,0,0,1-27.25,14.92v-5H40v5a189.44,189.44,0,0,1-27.25-14.92Q6.47,185.57.83,181H7Z"/><path class="cls-40" d="M7,103.32V25.72H1q5.62-4.52,11.87-8.66A189.16,189.16,0,0,1,40.12,2.16V7H245.69V2.16a189.16,189.16,0,0,1,27.21,14.9q6.24,4.14,11.87,8.66h-5.93V180.93h5.93q-5.62,4.52-11.87,8.66a189.16,189.16,0,0,1-27.21,14.9v-4.82H40.12v4.82a189.16,189.16,0,0,1-27.21-14.9Q6.67,185.45,1,180.93H7Z"/><path class="cls-41" d="M7,103.32V25.83H1.25q5.61-4.51,11.85-8.65A188.87,188.87,0,0,1,40.27,2.3V7H245.54V2.3a188.88,188.88,0,0,1,27.17,14.88q6.23,4.13,11.85,8.65h-5.72v155h5.72q-5.61,4.51-11.85,8.65a188.88,188.88,0,0,1-27.17,14.88v-4.67H40.27v4.67A188.87,188.87,0,0,1,13.1,189.47q-6.23-4.13-11.85-8.65H7Z"/><path class="cls-42" d="M7,103.32V25.95H1.46q5.6-4.51,11.83-8.64A188.59,188.59,0,0,1,40.42,2.45V7h205V2.45a188.6,188.6,0,0,1,27.13,14.85q6.22,4.13,11.83,8.64h-5.51V180.7h5.51q-5.6,4.51-11.83,8.64a188.6,188.6,0,0,1-27.13,14.85v-4.52h-205v4.52a188.59,188.59,0,0,1-27.13-14.85q-6.22-4.13-11.83-8.64H7Z"/><path class="cls-43" d="M7,103.32V26.06H1.67q5.6-4.5,11.81-8.63A188.31,188.31,0,0,1,40.57,2.6V7H245.24V2.6a188.31,188.31,0,0,1,27.09,14.83q6.21,4.12,11.81,8.63h-5.31V180.59h5.31q-5.6,4.5-11.81,8.63A188.31,188.31,0,0,1,245.24,204v-4.37H40.57V204a188.31,188.31,0,0,1-27.09-14.83q-6.21-4.12-11.81-8.63H7Z"/><path class="cls-44" d="M7,103.32V26.17H1.88q5.59-4.49,11.8-8.61a188,188,0,0,1,27-14.81V7H245.09V2.75a188,188,0,0,1,27,14.81q6.2,4.12,11.8,8.61h-5.1v154.3h5.1q-5.59,4.49-11.8,8.61a188,188,0,0,1-27,14.81v-4.22H40.72v4.22a188,188,0,0,1-27-14.81q-6.2-4.12-11.8-8.61H7Z"/><path class="cls-45" d="M7,103.32v-77H2.09q5.58-4.49,11.78-8.6a187.78,187.78,0,0,1,27-14.79V7H244.93V2.9a187.77,187.77,0,0,1,27,14.79q6.19,4.11,11.78,8.6h-4.89V180.36h4.89q-5.58,4.49-11.78,8.6a187.76,187.76,0,0,1-27,14.79v-4.07H40.87v4.07a187.77,187.77,0,0,1-27-14.79q-6.19-4.11-11.78-8.6H7Z"/><path class="cls-46" d="M7,103.32V26.4H2.3q5.57-4.48,11.76-8.59A187.5,187.5,0,0,1,41,3V7H244.78V3a187.49,187.49,0,0,1,27,14.77q6.18,4.1,11.76,8.59h-4.68V180.24h4.68q-5.57,4.48-11.76,8.59a187.49,187.49,0,0,1-27,14.77v-3.93H41v3.93a187.5,187.5,0,0,1-27-14.77q-6.18-4.1-11.76-8.59H7Z"/><path class="cls-47" d="M7,103.32V26.52H2.5Q8.07,22,14.25,17.94A187.22,187.22,0,0,1,41.17,3.2V7H244.63V3.2a187.21,187.21,0,0,1,26.93,14.74q6.17,4.1,11.74,8.57h-4.47V180.13h4.47q-5.56,4.47-11.74,8.57a187.21,187.21,0,0,1-26.93,14.74v-3.78H41.17v3.78a187.22,187.22,0,0,1-26.93-14.74q-6.17-4.1-11.74-8.57H7Z"/><path class="cls-48" d="M7,103.32V26.63H2.71q5.55-4.47,11.73-8.56A186.93,186.93,0,0,1,41.33,3.35V7H244.48V3.35a186.93,186.93,0,0,1,26.89,14.72q6.16,4.09,11.73,8.56h-4.26V180h4.26q-5.55,4.47-11.73,8.56a186.93,186.93,0,0,1-26.89,14.72v-3.63H41.33v3.63a186.93,186.93,0,0,1-26.89-14.72Q8.27,184.49,2.71,180H7Z"/><path class="cls-49" d="M7,103.32V26.74H2.92q5.55-4.46,11.71-8.55A186.66,186.66,0,0,1,41.48,3.49V7H244.33V3.49a186.66,186.66,0,0,1,26.85,14.7q6.16,4.08,11.71,8.55h-4.05V179.9h4.05q-5.55,4.46-11.71,8.55a186.66,186.66,0,0,1-26.85,14.7v-3.48H41.48v3.48a186.66,186.66,0,0,1-26.85-14.7q-6.16-4.08-11.71-8.55H7Z"/><path class="cls-50" d="M7,103.32V26.86H3.13q5.54-4.45,11.69-8.54A186.37,186.37,0,0,1,41.63,3.64V7H244.18V3.64A186.38,186.38,0,0,1,271,18.32q6.15,4.08,11.69,8.54h-3.84V179.79h3.84q-5.54,4.45-11.69,8.54A186.38,186.38,0,0,1,244.18,203v-3.33H41.63V203a186.37,186.37,0,0,1-26.81-14.68q-6.15-4.08-11.69-8.54H7Z"/><path class="cls-51" d="M7,103.32V27H3.34Q8.87,22.53,15,18.45A186.1,186.1,0,0,1,41.78,3.79V7H244V3.79a186.1,186.1,0,0,1,26.77,14.66q6.14,4.07,11.67,8.52h-3.64v152.7h3.64q-5.53,4.45-11.67,8.52A186.1,186.1,0,0,1,244,202.85v-3.18H41.78v3.18A186.1,186.1,0,0,1,15,188.2q-6.14-4.07-11.67-8.52H7Z"/><path class="cls-52" d="M7,103.32V27.09H3.55q5.52-4.44,11.66-8.51A185.82,185.82,0,0,1,41.93,3.94V7H243.88v-3A185.82,185.82,0,0,1,270.6,18.58q6.13,4.07,11.66,8.51h-3.43V179.56h3.43q-5.52,4.44-11.66,8.51a185.82,185.82,0,0,1-26.73,14.63v-3H41.93v3A185.82,185.82,0,0,1,15.2,188.07Q9.08,184,3.55,179.56H7Z"/><path class="cls-53" d="M7,103.32V27.2H3.76q5.51-4.43,11.64-8.5A185.53,185.53,0,0,1,42.08,4.09V7H243.72V4.09A185.53,185.53,0,0,1,270.41,18.7q6.12,4.06,11.64,8.5h-3.22V179.45h3.22q-5.51,4.43-11.64,8.5a185.54,185.54,0,0,1-26.69,14.61v-2.88H42.08v2.88a185.54,185.54,0,0,1-26.69-14.61q-6.12-4.06-11.64-8.5H7Z"/><path class="cls-54" d="M7,103.32v-76H4q5.5-4.43,11.62-8.49A185.27,185.27,0,0,1,42.23,4.24V7H243.57V4.24a185.26,185.26,0,0,1,26.65,14.59q6.11,4.05,11.62,8.49h-3v152h3q-5.5,4.43-11.62,8.49a185.26,185.26,0,0,1-26.65,14.59v-2.73H42.23v2.73a185.27,185.27,0,0,1-26.65-14.59Q9.48,183.76,4,179.33H7Z"/><path class="cls-55" d="M7,103.32V27.43H4.17Q9.67,23,15.78,19A185,185,0,0,1,42.38,4.39V7h201V4.39A185,185,0,0,1,270,19q6.1,4,11.6,8.47h-2.8V179.22h2.8q-5.5,4.42-11.6,8.47a185,185,0,0,1-26.61,14.57v-2.59h-201v2.59a185,185,0,0,1-26.61-14.57q-6.1-4-11.6-8.47H7Z"/><path class="cls-56" d="M7,103.32V27.54H4.38Q9.87,23.13,16,19.08A184.72,184.72,0,0,1,42.54,4.54V7H243.27V4.54a184.72,184.72,0,0,1,26.57,14.55q6.09,4,11.59,8.46h-2.59V179.1h2.59q-5.49,4.41-11.59,8.46a184.71,184.71,0,0,1-26.57,14.55v-2.44H42.54v2.44A184.71,184.71,0,0,1,16,187.56q-6.09-4-11.59-8.46H7Z"/><path class="cls-57" d="M7,103.32V27.66H4.59q5.48-4.41,11.57-8.45A184.43,184.43,0,0,1,42.69,4.68V7H243.12V4.68a184.43,184.43,0,0,1,26.53,14.53q6.08,4,11.57,8.45h-2.38V179h2.38q-5.48,4.41-11.57,8.45A184.43,184.43,0,0,1,243.12,202v-2.29H42.69V202a184.43,184.43,0,0,1-26.53-14.53q-6.08-4-11.57-8.45H7Z"/><path class="cls-58" d="M7,103.32V27.77H4.8q5.47-4.4,11.55-8.43A184.16,184.16,0,0,1,42.84,4.83V7H243V4.83a184.16,184.16,0,0,1,26.49,14.5q6.07,4,11.55,8.43h-2.18v151.1H281q-5.47,4.4-11.55,8.43A184.16,184.16,0,0,1,243,201.81v-2.14H42.84v2.14a184.16,184.16,0,0,1-26.49-14.5q-6.07-4-11.55-8.43H7Z"/><path class="cls-59" d="M7,103.32V27.89H5q5.46-4.39,11.53-8.42A183.88,183.88,0,0,1,43,5V7H242.82V5a183.88,183.88,0,0,1,26.45,14.48q6.06,4,11.53,8.42h-2V178.76h2q-5.46,4.39-11.53,8.42a183.87,183.87,0,0,1-26.45,14.48v-2H43v2a183.87,183.87,0,0,1-26.45-14.48q-6.06-4-11.53-8.42H7Z"/><path class="cls-60" d="M7,103.32V28H5.22q5.45-4.39,11.52-8.41A183.59,183.59,0,0,1,43.14,5.13V7H242.67V5.13a183.6,183.6,0,0,1,26.41,14.46q6.05,4,11.52,8.41h-1.76V178.65h1.76q-5.45,4.39-11.52,8.41a183.6,183.6,0,0,1-26.41,14.46v-1.84H43.14v1.84a183.6,183.6,0,0,1-26.41-14.46q-6.05-4-11.52-8.41H7Z"/><path class="cls-61" d="M7,103.32V28.11H5.42q5.45-4.38,11.5-8.4A183.33,183.33,0,0,1,43.29,5.28V7H242.52V5.28a183.32,183.32,0,0,1,26.37,14.44q6,4,11.5,8.4h-1.55V178.53h1.55q-5.45,4.38-11.5,8.4a183.32,183.32,0,0,1-26.37,14.44v-1.69H43.29v1.69a183.33,183.33,0,0,1-26.37-14.44q-6-4-11.5-8.4H7Z"/><path class="cls-62" d="M7,103.32V28.23H5.63q5.44-4.37,11.48-8.38A183,183,0,0,1,43.44,5.43V7H242.36V5.43a183,183,0,0,1,26.33,14.42q6,4,11.48,8.38h-1.34V178.42h1.34q-5.44,4.37-11.48,8.38a183,183,0,0,1-26.33,14.42v-1.54H43.44v1.54A183,183,0,0,1,17.11,186.8q-6-4-11.48-8.38H7Z"/><path class="cls-63" d="M7,103.32v-75H5.84Q11.27,24,17.31,20A182.76,182.76,0,0,1,43.59,5.58V7H242.21V5.58A182.76,182.76,0,0,1,268.5,20q6,4,11.46,8.37h-1.13v150H280q-5.43,4.37-11.46,8.37a182.76,182.76,0,0,1-26.29,14.39v-1.4H43.59v1.4a182.76,182.76,0,0,1-26.29-14.39q-6-4-11.46-8.37H7Z"/><path class="cls-64" d="M7,103.32V28.46H6.05Q11.47,24.1,17.5,20.1A182.48,182.48,0,0,1,43.74,5.73V7H242.06V5.73A182.49,182.49,0,0,1,268.31,20.1q6,4,11.45,8.36h-.92V178.19h.92q-5.42,4.36-11.45,8.36a182.48,182.48,0,0,1-26.25,14.37v-1.25H43.74v1.25A182.48,182.48,0,0,1,17.5,186.55q-6-4-11.45-8.36H7Z"/><path class="cls-65" d="M7,103.32V28.57H6.26q5.41-4.35,11.43-8.35A182.21,182.21,0,0,1,43.9,5.88V7h198V5.88a182.21,182.21,0,0,1,26.21,14.35q6,4,11.43,8.35h-.72V178.08h.72q-5.41,4.35-11.43,8.35a182.21,182.21,0,0,1-26.21,14.35v-1.1H43.9v1.1a182.21,182.21,0,0,1-26.21-14.35q-6-4-11.43-8.35H7Z"/><path class="cls-66" d="M7,103.32V28.68H6.47q5.4-4.35,11.41-8.33A181.92,181.92,0,0,1,44,6V7H241.76V6a181.93,181.93,0,0,1,26.17,14.33q6,4,11.41,8.33h-.51V178h.51q-5.4,4.35-11.41,8.33a181.93,181.93,0,0,1-26.17,14.33v-.95H44v.95a181.92,181.92,0,0,1-26.17-14.33q-6-4-11.41-8.33H7Z"/><path class="cls-67" d="M7,103.32V28.8h-.3q5.4-4.34,11.39-8.32A181.64,181.64,0,0,1,44.2,6.17V7H241.61v-.8a181.64,181.64,0,0,1,26.13,14.31q6,4,11.39,8.32h-.3v149h.3q-5.4,4.34-11.39,8.32a181.64,181.64,0,0,1-26.13,14.31v-.8H44.2v.8a181.64,181.64,0,0,1-26.13-14.31q-6-4-11.39-8.32H7Z"/><path class="cls-68" d="M7,103.32V28.91H6.89q5.39-4.33,11.38-8.31A181.37,181.37,0,0,1,44.35,6.32V7H241.46V6.32a181.37,181.37,0,0,1,26.09,14.28q6,4,11.38,8.31h-.09V177.73h.09q-5.39,4.33-11.38,8.31a181.36,181.36,0,0,1-26.09,14.28v-.65H44.35v.65A181.36,181.36,0,0,1,18.26,186q-6-4-11.38-8.31H7Z"/><path class="cls-69" d="M7,103.32V33.44H1.87Q4.4,31.19,7.09,29q5.38-4.33,11.36-8.29a181.09,181.09,0,0,1,26-14.26V7H241.31v-.5a181.09,181.09,0,0,1,26,14.26q6,4,11.36,8.29,2.69,2.16,5.22,4.41h-5.11V173.21h5.11q-2.53,2.25-5.22,4.41-5.38,4.33-11.36,8.29a181.09,181.09,0,0,1-26,14.26v-.5H44.5v.5a181.09,181.09,0,0,1-26-14.26q-6-4-11.36-8.29-2.69-2.16-5.22-4.41H7Z"/><path class="cls-70" d="M7,103.32V33.55H2.09Q4.62,31.3,7.3,29.14q5.37-4.32,11.34-8.28a180.83,180.83,0,0,1,26-14.24V7h196.5V6.62a180.82,180.82,0,0,1,26,14.24q6,4,11.34,8.28,2.69,2.16,5.22,4.41h-4.89V173.1h4.89q-2.53,2.25-5.22,4.41-5.37,4.32-11.34,8.28a180.82,180.82,0,0,1-26,14.24v-.35H44.65V200a180.83,180.83,0,0,1-26-14.24q-6-4-11.34-8.28-2.69-2.16-5.22-4.41H7Z"/><path class="cls-71" d="M7,103.32V33.65H2.3q2.53-2.24,5.21-4.4Q12.87,24.94,18.84,21a180.54,180.54,0,0,1,26-14.22V7H241V6.77A180.54,180.54,0,0,1,267,21q6,4,11.32,8.27,2.68,2.16,5.21,4.4h-4.67V173h4.67q-2.53,2.24-5.21,4.4-5.36,4.31-11.32,8.27a180.54,180.54,0,0,1-26,14.22v-.21H44.8v.21a180.54,180.54,0,0,1-26-14.22q-6-4-11.32-8.27Q4.83,175.23,2.3,173H7Z"/><path class="cls-72" d="M7,103.32V33.76H2.52Q5,31.52,7.72,29.37,13.08,25.06,19,21.11A180.27,180.27,0,0,1,45,6.92V7h195.9V6.92a180.26,180.26,0,0,1,25.93,14.2q5.94,3.94,11.31,8.26,2.68,2.15,5.2,4.39h-4.46V172.88h4.46q-2.52,2.24-5.2,4.39-5.36,4.31-11.31,8.26a180.26,180.26,0,0,1-25.93,14.2v-.06H45v.06A180.27,180.27,0,0,1,19,185.53q-5.94-3.94-11.31-8.26-2.68-2.15-5.2-4.39H7Z"/><path class="cls-73" d="M7,103.32V33.87H2.74q2.52-2.23,5.19-4.39,5.35-4.3,11.29-8.24A180,180,0,0,1,45.11,7.07q7-3.13,14.42-5.81V7H226.28V1.25q7.44,2.68,14.42,5.81a180,180,0,0,1,25.89,14.17q5.94,3.94,11.29,8.24,2.67,2.15,5.19,4.39h-4.24V172.78h4.24q-2.52,2.23-5.19,4.39-5.35,4.3-11.29,8.24a180,180,0,0,1-25.89,14.17q-7,3.13-14.42,5.81v-5.72H59.53v5.72q-7.44-2.68-14.42-5.81a180,180,0,0,1-25.89-14.17q-5.94-3.94-11.29-8.24Q5.25,175,2.74,172.78H7Z"/><path class="cls-74" d="M7,103.32V34H3q2.51-2.23,5.18-4.38,5.34-4.29,11.27-8.23A179.69,179.69,0,0,1,45.26,7.21q7-3.12,14.4-5.81V7H226.15V1.41q7.42,2.68,14.4,5.81A179.7,179.7,0,0,1,266.4,21.37q5.93,3.93,11.27,8.23,2.67,2.15,5.18,4.38h-4V172.67h4q-2.51,2.23-5.18,4.38-5.34,4.29-11.27,8.23a179.7,179.7,0,0,1-25.85,14.15q-7,3.12-14.4,5.81v-5.56H59.66v5.56q-7.42-2.68-14.4-5.81a179.69,179.69,0,0,1-25.85-14.15Q13.48,181.35,8.14,177,5.47,174.9,3,172.67H7Z"/><path class="cls-75" d="M7,103.32V34.08H3.17q2.51-2.23,5.18-4.37,5.33-4.29,11.25-8.22A179.42,179.42,0,0,1,45.41,7.36q7-3.12,14.38-5.8V7H226V1.57q7.41,2.67,14.38,5.8a179.42,179.42,0,0,1,25.81,14.13q5.92,3.93,11.25,8.22,2.67,2.14,5.18,4.37h-3.81V172.56h3.81q-2.51,2.23-5.18,4.37-5.33,4.29-11.25,8.22a179.43,179.43,0,0,1-25.81,14.13q-7,3.12-14.38,5.8v-5.41H59.78v5.41q-7.41-2.67-14.38-5.8A179.43,179.43,0,0,1,19.6,185.15q-5.92-3.93-11.25-8.22-2.67-2.14-5.18-4.37H7Z"/><path class="cls-76" d="M7,103.32V34.19H3.39Q5.89,32,8.55,29.83q5.32-4.28,11.24-8.21A179.13,179.13,0,0,1,45.56,7.51Q52.51,4.4,59.91,1.72V7h166V1.72q7.4,2.67,14.36,5.79A179.13,179.13,0,0,1,266,21.62q5.91,3.92,11.24,8.21,2.66,2.14,5.17,4.36h-3.59V172.46h3.59q-2.51,2.22-5.17,4.36Q271.93,181.1,266,185a179.14,179.14,0,0,1-25.77,14.11q-6.95,3.11-14.36,5.79v-5.25h-166v5.25q-7.4-2.67-14.36-5.79A179.14,179.14,0,0,1,19.79,185q-5.91-3.92-11.24-8.21-2.66-2.14-5.17-4.36H7Z"/><path class="cls-77" d="M7,103.32v-69H3.6q2.5-2.22,5.16-4.36Q14.08,25.67,20,21.75A178.87,178.87,0,0,1,45.71,7.66Q52.65,4.55,60,1.88V7H225.76V1.88q7.39,2.66,14.33,5.78a178.86,178.86,0,0,1,25.73,14.09q5.9,3.91,11.22,8.19,2.66,2.14,5.16,4.36h-3.37v138h3.37q-2.5,2.22-5.16,4.36-5.31,4.27-11.22,8.19A178.87,178.87,0,0,1,240.1,199q-6.94,3.11-14.33,5.78v-5.09H60v5.09Q52.65,202.1,45.71,199A178.88,178.88,0,0,1,20,184.9q-5.9-3.91-11.22-8.19-2.66-2.14-5.16-4.36H7Z"/><path class="cls-78" d="M7,103.32V34.41H3.82Q6.32,32.19,9,30.05q5.31-4.27,11.2-8.18A178.57,178.57,0,0,1,45.86,7.81Q52.79,4.7,60.17,2V7H225.63V2Q233,4.7,239.95,7.81a178.58,178.58,0,0,1,25.69,14.07q5.89,3.91,11.2,8.18,2.65,2.13,5.15,4.35h-3.16V172.24H282q-2.5,2.22-5.15,4.35-5.31,4.27-11.2,8.18a178.59,178.59,0,0,1-25.69,14.07q-6.93,3.11-14.31,5.77v-4.93H60.17v4.93q-7.38-2.66-14.31-5.77a178.58,178.58,0,0,1-25.69-14.07q-5.89-3.91-11.2-8.18-2.65-2.13-5.15-4.35H7Z"/><path class="cls-79" d="M7,103.32V34.51H4q2.49-2.21,5.14-4.34,5.3-4.26,11.18-8.17A178.29,178.29,0,0,1,46,8Q52.93,4.86,60.3,2.2V7H225.51V2.2Q232.87,4.85,239.79,8a178.28,178.28,0,0,1,25.65,14q5.88,3.9,11.18,8.17,2.65,2.13,5.14,4.34h-2.94V172.13h2.94q-2.49,2.21-5.14,4.34-5.3,4.26-11.18,8.17a178.3,178.3,0,0,1-25.65,14q-6.91,3.1-14.29,5.76v-4.78H60.3v4.78q-7.37-2.66-14.29-5.76a178.31,178.31,0,0,1-25.65-14q-5.88-3.9-11.18-8.17Q6.53,174.35,4,172.13H7Z"/><path class="cls-80" d="M7,103.32V34.62H4.25q2.49-2.21,5.14-4.34Q14.68,26,20.56,22.13a178,178,0,0,1,25.61-14Q53.07,5,60.43,2.36V7H225.38V2.36Q232.73,5,239.64,8.11a178,178,0,0,1,25.61,14q5.87,3.9,11.17,8.15,2.64,2.13,5.14,4.34h-2.72V172h2.72q-2.49,2.21-5.14,4.34-5.29,4.25-11.17,8.15a178,178,0,0,1-25.61,14q-6.9,3.1-14.27,5.75v-4.62H60.43v4.62q-7.35-2.65-14.27-5.75a178,178,0,0,1-25.61-14q-5.87-3.9-11.17-8.15Q6.74,174.24,4.25,172H7Z"/><path class="cls-81" d="M7,103.32V34.73H4.47Q7,32.52,9.6,30.4q5.28-4.25,11.15-8.14a177.75,177.75,0,0,1,25.57-14q6.89-3.09,14.24-5.74V7H225.25V2.51q7.34,2.65,14.24,5.74a177.75,177.75,0,0,1,25.57,14q5.86,3.89,11.15,8.14,2.64,2.12,5.13,4.33h-2.51V171.92h2.51q-2.49,2.21-5.13,4.33-5.28,4.25-11.15,8.14a177.75,177.75,0,0,1-25.57,14q-6.89,3.09-14.24,5.74v-4.46H60.56v4.46q-7.34-2.65-14.24-5.74a177.75,177.75,0,0,1-25.57-14q-5.86-3.89-11.15-8.14Q7,174.13,4.47,171.92H7Z"/><path class="cls-82" d="M7,103.32V34.84H4.69q2.48-2.2,5.12-4.32,5.27-4.24,11.13-8.13a177.48,177.48,0,0,1,25.53-14q6.88-3.09,14.22-5.73V7H225.12V2.67q7.33,2.64,14.22,5.73a177.48,177.48,0,0,1,25.53,14q5.85,3.88,11.13,8.13,2.64,2.12,5.12,4.32h-2.29v137h2.29q-2.48,2.2-5.12,4.32-5.27,4.24-11.13,8.13a177.48,177.48,0,0,1-25.53,14q-6.88,3.09-14.22,5.73v-4.3H60.69V204q-7.33-2.64-14.22-5.73a177.48,177.48,0,0,1-25.53-14q-5.85-3.88-11.13-8.13Q7.17,174,4.69,171.81H7Z"/><path class="cls-83" d="M7,103.32V39.42H.1a142,142,0,0,1,21-16.91,177.19,177.19,0,0,1,25.49-14q6.87-3.08,14.2-5.72V7H225V2.83q7.32,2.64,14.2,5.72a177.19,177.19,0,0,1,25.49,14,142,142,0,0,1,21,16.91h-6.87v127.8h6.87a142,142,0,0,1-21,16.91,177.19,177.19,0,0,1-25.49,14q-6.87,3.08-14.2,5.72v-4.14H60.82v4.14q-7.32-2.64-14.2-5.72a177.19,177.19,0,0,1-25.49-14,142,142,0,0,1-21-16.91H7Z"/><path class="cls-84" d="M7,103.32V39.52H.33a141.81,141.81,0,0,1,21-16.89A176.92,176.92,0,0,1,46.77,8.7Q53.63,5.63,60.94,3V7H224.86V3Q232.17,5.62,239,8.7a176.92,176.92,0,0,1,25.45,13.93,141.81,141.81,0,0,1,21,16.89h-6.65v127.6h6.65a141.81,141.81,0,0,1-21,16.89A176.92,176.92,0,0,1,239,197.94q-6.86,3.08-14.18,5.72v-4H60.94v4q-7.31-2.64-14.18-5.72A176.92,176.92,0,0,1,21.32,184a141.81,141.81,0,0,1-21-16.89H7Z"/><path class="cls-85" d="M7,103.32V39.62H.55a141.59,141.59,0,0,1,21-16.86A176.63,176.63,0,0,1,46.92,8.85q6.85-3.07,14.15-5.71V7H224.73V3.14q7.3,2.63,14.15,5.71a176.64,176.64,0,0,1,25.41,13.91,141.59,141.59,0,0,1,21,16.86h-6.42V167h6.42a141.58,141.58,0,0,1-21,16.86,176.63,176.63,0,0,1-25.41,13.91q-6.85,3.07-14.15,5.71v-3.83H61.07v3.83q-7.3-2.63-14.15-5.71a176.62,176.62,0,0,1-25.41-13.91A141.58,141.58,0,0,1,.55,167H7Z"/><path class="cls-86" d="M7,103.32V39.72H.77A141.36,141.36,0,0,1,21.7,22.89,176.36,176.36,0,0,1,47.07,9Q53.91,5.93,61.2,3.3V7H224.6V3.3q7.29,2.63,14.13,5.7A176.35,176.35,0,0,1,264.1,22.89,141.35,141.35,0,0,1,285,39.72h-6.2v127.2H285a141.35,141.35,0,0,1-20.93,16.83,176.36,176.36,0,0,1-25.37,13.89q-6.84,3.07-14.13,5.7v-3.67H61.2v3.67q-7.29-2.63-14.13-5.7A176.37,176.37,0,0,1,21.7,183.76,141.36,141.36,0,0,1,.77,166.92H7Z"/><path class="cls-87" d="M7,103.32V39.82H1A141.14,141.14,0,0,1,21.89,23,176.08,176.08,0,0,1,47.22,9.15Q54,6.09,61.33,3.46V7H224.48V3.46q7.27,2.62,14.11,5.69A176.08,176.08,0,0,1,263.91,23a141.14,141.14,0,0,1,20.9,16.81h-6v127h6a141.14,141.14,0,0,1-20.9,16.81,176.08,176.08,0,0,1-25.33,13.87q-6.83,3.06-14.11,5.69v-3.51H61.33v3.51q-7.27-2.62-14.11-5.69a176.08,176.08,0,0,1-25.33-13.87A141.14,141.14,0,0,1,1,166.82H7Z"/><path class="cls-88" d="M7,103.32V39.92H1.22A140.9,140.9,0,0,1,22.09,23.14,175.8,175.8,0,0,1,47.37,9.3q6.82-3.06,14.09-5.68V7H224.35V3.62q7.26,2.62,14.09,5.68a175.79,175.79,0,0,1,25.29,13.85,140.9,140.9,0,0,1,20.86,16.78h-5.75v126.8h5.75a140.91,140.91,0,0,1-20.86,16.78,175.79,175.79,0,0,1-25.29,13.85q-6.82,3.06-14.09,5.68v-3.36H61.46V203q-7.26-2.62-14.09-5.68A175.8,175.8,0,0,1,22.09,183.5,140.91,140.91,0,0,1,1.22,166.72H7Z"/><path class="cls-89" d="M7,103.32V40H1.45A140.69,140.69,0,0,1,22.28,23.27,175.51,175.51,0,0,1,47.52,9.45q6.81-3.05,14.07-5.67V7H224.22V3.78q7.25,2.61,14.07,5.67a175.52,175.52,0,0,1,25.25,13.82A140.69,140.69,0,0,1,284.36,40h-5.53v126.6h5.53a140.69,140.69,0,0,1-20.83,16.76,175.52,175.52,0,0,1-25.25,13.82q-6.81,3.05-14.07,5.67v-3.2H61.59v3.2q-7.25-2.61-14.07-5.67a175.51,175.51,0,0,1-25.25-13.82A140.69,140.69,0,0,1,1.45,166.62H7Z"/><path class="cls-90" d="M7,103.32V40.13H1.67A140.47,140.47,0,0,1,22.47,23.4,175.24,175.24,0,0,1,47.68,9.59q6.8-3,14-5.66V7H224.09v-3q7.24,2.61,14,5.66a175.24,175.24,0,0,1,25.21,13.8,140.47,140.47,0,0,1,20.8,16.73h-5.3v126.4h5.3a140.46,140.46,0,0,1-20.8,16.73,175.23,175.23,0,0,1-25.21,13.8q-6.8,3-14,5.66v-3H61.72v3q-7.24-2.61-14-5.66a175.24,175.24,0,0,1-25.21-13.8,140.46,140.46,0,0,1-20.8-16.73H7Z"/><path class="cls-91" d="M7,103.32V40.23H1.89a140.24,140.24,0,0,1,20.76-16.7A175,175,0,0,1,47.83,9.74q6.79-3,14-5.65V7H224V4.09q7.23,2.61,14,5.65a175,175,0,0,1,25.17,13.78,140.25,140.25,0,0,1,20.76,16.7h-5.08V166.42h5.08a140.25,140.25,0,0,1-20.76,16.7A175,175,0,0,1,238,196.9q-6.78,3-14,5.65v-2.88H61.85v2.88q-7.23-2.61-14-5.65a175,175,0,0,1-25.17-13.78,140.24,140.24,0,0,1-20.76-16.7H7Z"/><path class="cls-92" d="M7,103.32v-63H2.12A140,140,0,0,1,22.85,23.65,174.69,174.69,0,0,1,48,9.89q6.77-3,14-5.64V7H223.83V4.25q7.22,2.6,14,5.64A174.7,174.7,0,0,1,263,23.65a140,140,0,0,1,20.73,16.68h-4.86v126h4.86A140,140,0,0,1,263,183a174.69,174.69,0,0,1-25.13,13.76q-6.77,3-14,5.64v-2.72H62v2.72q-7.22-2.6-14-5.64A174.68,174.68,0,0,1,22.85,183,140,140,0,0,1,2.12,166.32H7Z"/><path class="cls-93" d="M7,103.32V40.43H2.34A139.8,139.8,0,0,1,23,23.78,174.41,174.41,0,0,1,48.13,10q6.76-3,14-5.63V7H223.7V4.41q7.21,2.6,14,5.63a174.41,174.41,0,0,1,25.09,13.74,139.8,139.8,0,0,1,20.7,16.65h-4.63V166.22h4.63a139.8,139.8,0,0,1-20.7,16.65,174.41,174.41,0,0,1-25.09,13.74q-6.76,3-14,5.63v-2.57H62.1v2.57q-7.21-2.6-14-5.63A174.41,174.41,0,0,1,23,182.87a139.8,139.8,0,0,1-20.7-16.65H7Z"/><path class="cls-94" d="M7,103.32V40.53H2.57A139.57,139.57,0,0,1,23.23,23.9a174.14,174.14,0,0,1,25-13.71q6.75-3,14-5.63V7H223.57V4.56q7.19,2.59,14,5.63a174.14,174.14,0,0,1,25,13.71,139.57,139.57,0,0,1,20.67,16.62h-4.41V166.12h4.41a139.57,139.57,0,0,1-20.67,16.62,174.14,174.14,0,0,1-25,13.71q-6.75,3-14,5.63v-2.41H62.23v2.41q-7.19-2.59-14-5.63a174.14,174.14,0,0,1-25-13.71A139.57,139.57,0,0,1,2.57,166.12H7Z"/><path class="cls-95" d="M7,103.32V40.63H2.79A139.36,139.36,0,0,1,23.42,24C38.71,13.89,56.92,5.67,77.13,0V7H208.67V0c20.22,5.67,38.42,13.89,53.71,24A139.35,139.35,0,0,1,283,40.63h-4.18V166H283a139.34,139.34,0,0,1-20.63,16.6c-15.29,10.15-33.49,18.36-53.71,24v-7H77.13v7c-20.22-5.67-38.42-13.89-53.71-24A139.35,139.35,0,0,1,2.79,166H7Z"/><path class="cls-96" d="M7,103.32V40.73H3a139.13,139.13,0,0,1,20.6-16.57C38.88,14,57.06,5.83,77.24.17V7H208.57V.17c20.18,5.67,38.36,13.86,53.62,24a139.13,139.13,0,0,1,20.6,16.57h-4V165.92h4a139.13,139.13,0,0,1-20.6,16.57c-15.26,10.13-33.44,18.33-53.62,24v-6.81H77.24v6.81c-20.18-5.67-38.36-13.86-53.62-24A139.13,139.13,0,0,1,3,165.92H7Z"/><path class="cls-97" d="M7,103.32V40.83H3.24A138.91,138.91,0,0,1,23.81,24.29C39,14.17,57.19,6,77.34.33V7H208.46V.33c20.15,5.66,38.3,13.84,53.54,24a138.92,138.92,0,0,1,20.57,16.54h-3.73v125h3.73A138.92,138.92,0,0,1,262,182.36c-15.24,10.11-33.39,18.3-53.54,24v-6.64H77.34v6.64c-20.15-5.66-38.3-13.84-53.54-24A138.91,138.91,0,0,1,3.24,165.82H7Z"/><path class="cls-98" d="M7,103.32V40.93H3.46A138.68,138.68,0,0,1,24,24.41C39.21,14.31,57.33,6.14,77.45.5V7H208.36V.5c20.12,5.65,38.24,13.82,53.45,23.92a138.69,138.69,0,0,1,20.53,16.52h-3.51V165.72h3.51a138.69,138.69,0,0,1-20.53,16.52c-15.22,10.1-33.33,18.27-53.45,23.92v-6.48H77.45v6.48C57.33,200.5,39.21,192.33,24,182.23A138.68,138.68,0,0,1,3.46,165.72H7Z"/><path class="cls-99" d="M7,103.32V41H3.69a138.45,138.45,0,0,1,20.5-16.49C39.38,14.46,57.47,6.3,77.55.66V7h130.7V.66c20.09,5.64,38.17,13.8,53.37,23.88A138.46,138.46,0,0,1,282.12,41h-3.29V165.62h3.29a138.46,138.46,0,0,1-20.5,16.49c-15.19,10.08-33.28,18.24-53.37,23.88v-6.31H77.55V206c-20.09-5.64-38.17-13.8-53.37-23.88a138.45,138.45,0,0,1-20.5-16.49H7Z"/><path class="cls-100" d="M7,103.32V41.13H3.91A138.23,138.23,0,0,1,24.38,24.67C39.55,14.6,57.61,6.46,77.66.83V7H208.15V.83c20.05,5.63,38.11,13.77,53.28,23.84a138.23,138.23,0,0,1,20.47,16.46h-3.06V165.52h3.06A138.23,138.23,0,0,1,261.43,182c-15.17,10.07-33.23,18.21-53.28,23.84v-6.15H77.66v6.15C57.61,200.19,39.55,192,24.38,182A138.23,138.23,0,0,1,3.91,165.52H7Z"/><path class="cls-101" d="M7,103.32V41.23H4.14A138,138,0,0,1,24.57,24.79C39.71,14.74,57.74,6.61,77.76,1V7H208V1c20,5.62,38.05,13.75,53.19,23.8a138,138,0,0,1,20.43,16.44h-2.84V165.42h2.84a138,138,0,0,1-20.43,16.44c-15.14,10-33.17,18.18-53.19,23.8v-6H77.76v6c-20-5.62-38.05-13.75-53.19-23.8A138,138,0,0,1,4.14,165.42H7Z"/><path class="cls-102" d="M7,103.32v-62H4.36a137.79,137.79,0,0,1,20.4-16.41c15.12-10,33.12-18.15,53.11-23.76V7H207.94V1.16c20,5.61,38,13.73,53.11,23.76a137.79,137.79,0,0,1,20.4,16.41h-2.61v124h2.61A137.79,137.79,0,0,1,261,181.73c-15.12,10-33.12,18.15-53.11,23.76v-5.82H77.87v5.82c-20-5.61-38-13.73-53.11-23.76a137.79,137.79,0,0,1-20.4-16.41H7Z"/><path class="cls-103" d="M7,103.32V41.43H4.58A137.57,137.57,0,0,1,25,25C40,15,58,6.92,78,1.32V7H207.83V1.32c20,5.6,37.93,13.71,53,23.72a137.56,137.56,0,0,1,20.37,16.38h-2.39V165.22h2.39a137.56,137.56,0,0,1-20.37,16.38c-15.09,10-33.06,18.12-53,23.72v-5.65H78v5.65C58,199.72,40,191.62,25,181.6A137.57,137.57,0,0,1,4.58,165.22H7Z"/><path class="cls-104" d="M7,103.32V41.53H4.81A137.35,137.35,0,0,1,25.14,25.17c15.07-10,33-18.09,52.94-23.69V7H207.73V1.49c19.92,5.59,37.87,13.69,52.94,23.69A137.34,137.34,0,0,1,281,41.53h-2.17V165.12H281a137.34,137.34,0,0,1-20.34,16.36c-15.07,10-33,18.09-52.94,23.69v-5.49H78.08v5.49c-19.92-5.59-37.87-13.69-52.94-23.69A137.35,137.35,0,0,1,4.81,165.12H7Z"/><path class="cls-105" d="M7,103.32V41.63H5A137.12,137.12,0,0,1,25.34,25.3c15-10,33-18.06,52.85-23.65V7H207.62V1.65c19.89,5.58,37.81,13.66,52.85,23.65a137.12,137.12,0,0,1,20.3,16.33h-1.94V165h1.94a137.12,137.12,0,0,1-20.3,16.33c-15,10-33,18.06-52.85,23.65v-5.32H78.19V205c-19.89-5.58-37.81-13.66-52.85-23.65A137.12,137.12,0,0,1,5,165H7Z"/><path class="cls-106" d="M7,103.32V41.73H5.26a136.9,136.9,0,0,1,20.27-16.3c15-10,32.9-18,52.76-23.61V7H207.52V1.82c19.86,5.57,37.74,13.64,52.76,23.61a136.9,136.9,0,0,1,20.27,16.3h-1.72V164.92h1.72a136.9,136.9,0,0,1-20.27,16.3c-15,10-32.9,18-52.76,23.61v-5.15H78.29v5.15c-19.86-5.57-37.74-13.64-52.76-23.61a136.9,136.9,0,0,1-20.27-16.3H7Z"/><path class="cls-107" d="M7,103.32V41.83H5.48A136.67,136.67,0,0,1,25.72,25.55c15-10,32.85-18,52.68-23.57V7h129V2c19.83,5.57,37.68,13.62,52.68,23.57a136.67,136.67,0,0,1,20.24,16.28h-1.49v123h1.49a136.67,136.67,0,0,1-20.24,16.28c-15,10-32.85,18-52.68,23.57v-5H78.4v5C58.57,199.1,40.71,191,25.72,181.09A136.67,136.67,0,0,1,5.48,164.82H7Z"/><path class="cls-108" d="M7,103.32V41.93H5.71a136.45,136.45,0,0,1,20.2-16.25c15-9.94,32.8-18,52.59-23.53V7h128.8V2.15c19.79,5.56,37.62,13.6,52.59,23.53a136.45,136.45,0,0,1,20.2,16.25h-1.27V164.72h1.27A136.45,136.45,0,0,1,259.9,181c-15,9.94-32.8,18-52.59,23.53v-4.82H78.5v4.82C58.71,198.94,40.88,190.9,25.91,181a136.45,136.45,0,0,1-20.2-16.25H7Z"/><path class="cls-109" d="M7,103.32V42h-1A136.23,136.23,0,0,1,26.1,25.81C41,15.89,58.84,7.86,78.61,2.31V7H207.2V2.31C227,7.86,244.76,15.89,259.71,25.81A136.23,136.23,0,0,1,279.88,42h-1V164.61h1a136.23,136.23,0,0,1-20.17,16.22c-14.95,9.92-32.74,17.95-52.51,23.49v-4.66H78.61v4.66C58.84,198.78,41,190.76,26.1,180.84A136.23,136.23,0,0,1,5.93,164.61H7Z"/><path class="cls-110" d="M7,103.32V42.13H6.15a136,136,0,0,1,20.14-16.2C41.21,16,59,8,78.71,2.48V7H207.09V2.48C226.82,8,244.59,16,259.51,25.93a136,136,0,0,1,20.14,16.2h-.82V164.51h.82a136,136,0,0,1-20.14,16.2c-14.92,9.9-32.69,17.92-52.42,23.45v-4.49H78.71v4.49c-19.73-5.54-37.5-13.55-52.42-23.45a136,136,0,0,1-20.14-16.2H7Z"/><path class="cls-111" d="M7,103.32V42.23h-.6a135.79,135.79,0,0,1,20.1-16.17C41.38,16.18,59.12,8.17,78.82,2.65V7H207V2.65c19.7,5.53,37.44,13.53,52.33,23.42a135.78,135.78,0,0,1,20.1,16.17h-.6V164.41h.6a135.78,135.78,0,0,1-20.1,16.17c-14.9,9.89-32.64,17.89-52.33,23.42v-4.33H78.82V204c-19.7-5.53-37.44-13.53-52.33-23.42a135.79,135.79,0,0,1-20.1-16.17H7Z"/><path class="cls-112" d="M7,103.32v-61H6.6A135.55,135.55,0,0,1,26.67,26.19C41.55,16.32,59.26,8.33,78.92,2.81V7h128V2.81c19.67,5.52,37.37,13.51,52.25,23.38A135.56,135.56,0,0,1,279.2,42.33h-.37v122h.37a135.57,135.57,0,0,1-20.07,16.14c-14.87,9.87-32.58,17.86-52.25,23.38v-4.16h-128v4.16c-19.67-5.52-37.37-13.51-52.25-23.38A135.56,135.56,0,0,1,6.6,164.31H7Z"/><path class="cls-113" d="M7,103.32V42.43H6.83a135.33,135.33,0,0,1,20-16.12C41.71,16.46,59.39,8.49,79,3V7H206.78V3c19.63,5.51,37.31,13.49,52.16,23.34a135.34,135.34,0,0,1,20,16.12h-.15V164.21H279a135.34,135.34,0,0,1-20,16.12c-14.85,9.85-32.53,17.83-52.16,23.34v-4H79v4c-19.63-5.51-37.31-13.49-52.16-23.34a135.33,135.33,0,0,1-20-16.12H7Z"/><path class="cls-114" d="M7,103.32V46.94H2.79q2.05-2.24,4.26-4.41a135.12,135.12,0,0,1,20-16.09C41.88,16.6,59.53,8.64,79.13,3.14V7H206.67V3.14c19.6,5.5,37.25,13.46,52.08,23.3a135.12,135.12,0,0,1,20,16.09Q281,44.7,283,46.94h-4.18V159.7H283q-2.05,2.24-4.26,4.41a135.12,135.12,0,0,1-20,16.09c-14.82,9.84-32.48,17.8-52.08,23.3v-3.83H79.13v3.83C59.53,198,41.88,190,27.06,180.2a135.11,135.11,0,0,1-20-16.09q-2.21-2.17-4.26-4.41H7Z"/><path class="cls-115" d="M7,103.32V47H3q2-2.24,4.25-4.4a134.89,134.89,0,0,1,20-16.06C42,16.75,59.67,8.8,79.24,3.31V7H206.57V3.31c19.57,5.49,37.19,13.44,52,23.26a134.89,134.89,0,0,1,20,16.06q2.2,2.17,4.25,4.4h-4V159.61h4q-2,2.24-4.25,4.4a134.89,134.89,0,0,1-20,16.06c-14.8,9.82-32.42,17.77-52,23.26v-3.67H79.24v3.67c-19.57-5.49-37.19-13.44-52-23.26A134.89,134.89,0,0,1,7.28,164q-2.2-2.17-4.25-4.4H7Z"/><path class="cls-116" d="M7,103.32V47.13H3.25q2-2.23,4.25-4.4a134.67,134.67,0,0,1,19.94-16C42.21,16.89,59.81,9,79.34,3.47V7H206.46V3.47C226,9,243.59,16.89,258.37,26.7a134.67,134.67,0,0,1,19.94,16q2.2,2.16,4.25,4.4h-3.72V159.52h3.72q-2,2.23-4.25,4.4a134.66,134.66,0,0,1-19.94,16c-14.78,9.81-32.37,17.74-51.9,23.22v-3.5H79.34v3.5c-19.54-5.48-37.13-13.42-51.9-23.22a134.66,134.66,0,0,1-19.94-16q-2.2-2.16-4.25-4.4H7Z"/><path class="cls-117" d="M7,103.32V47.22H3.48q2-2.23,4.24-4.39a134.45,134.45,0,0,1,19.91-16C42.38,17,59.94,9.11,79.45,3.64V7H206.36V3.64c19.5,5.47,37.07,13.4,51.82,23.19a134.45,134.45,0,0,1,19.91,16q2.2,2.16,4.24,4.39h-3.49v112.2h3.49q-2,2.23-4.24,4.39a134.45,134.45,0,0,1-19.91,16c-14.75,9.79-32.31,17.71-51.82,23.19v-3.34H79.45V203c-19.5-5.47-37.07-13.4-51.82-23.19a134.45,134.45,0,0,1-19.91-16q-2.2-2.16-4.24-4.39H7Z"/><path class="cls-118" d="M7,103.32v-56H3.71q2-2.23,4.23-4.38a134.22,134.22,0,0,1,19.87-16C42.55,17.18,60.08,9.27,79.55,3.8V7h126.7V3.8c19.47,5.47,37,13.37,51.73,23.15a134.23,134.23,0,0,1,19.87,16q2.19,2.15,4.23,4.38h-3.26v112h3.26q-2,2.23-4.23,4.38a134.22,134.22,0,0,1-19.87,16c-14.73,9.77-32.26,17.68-51.73,23.15v-3.17H79.55v3.17c-19.47-5.47-37-13.37-51.73-23.15a134.22,134.22,0,0,1-19.87-16q-2.19-2.15-4.23-4.38H7Z"/><path class="cls-119" d="M7,103.32V51.93H0A111.3,111.3,0,0,1,8.17,43,134,134,0,0,1,28,27.08C42.71,17.32,60.22,9.42,79.66,4V7H206.15V4c19.44,5.46,36.94,13.35,51.65,23.11a134,134,0,0,1,19.84,16,111.3,111.3,0,0,1,8.14,8.89h-6.94v102.8h6.94a111.3,111.3,0,0,1-8.14,8.89,134,134,0,0,1-19.84,16c-14.7,9.76-32.21,17.65-51.65,23.11v-3H79.66v3C60.22,197.22,42.71,189.33,28,179.57a134,134,0,0,1-19.84-16A111.3,111.3,0,0,1,0,154.72H7Z"/><path class="cls-120" d="M7,103.32V52H.27A111.15,111.15,0,0,1,8.4,43.14,133.77,133.77,0,0,1,28.2,27.2C42.88,17.46,60.36,9.58,79.76,4.13V7H206V4.13c19.41,5.45,36.88,13.33,51.56,23.07a133.77,133.77,0,0,1,19.81,15.93A111.13,111.13,0,0,1,285.54,52h-6.7V154.64h6.7a111.13,111.13,0,0,1-8.12,8.88,133.78,133.78,0,0,1-19.81,15.93c-14.68,9.74-32.15,17.62-51.56,23.07v-2.84H79.76v2.84c-19.41-5.45-36.88-13.33-51.56-23.07A133.78,133.78,0,0,1,8.4,163.51a111.15,111.15,0,0,1-8.13-8.88H7Z"/><path class="cls-121" d="M7,103.32V52.1H.51a111,111,0,0,1,8.11-8.86A133.56,133.56,0,0,1,28.39,27.33a182.38,182.38,0,0,1,51.47-23V7H205.94V4.3a182.38,182.38,0,0,1,51.47,23,133.56,133.56,0,0,1,19.77,15.91,111,111,0,0,1,8.11,8.86h-6.47V154.55h6.47a111,111,0,0,1-8.11,8.86,133.55,133.55,0,0,1-19.77,15.91,182.38,182.38,0,0,1-51.47,23v-2.67H79.87v2.67a182.38,182.38,0,0,1-51.47-23A133.55,133.55,0,0,1,8.62,163.41a111,111,0,0,1-8.11-8.86H7Z"/><path class="cls-122" d="M7,103.32V52.18H.75a110.78,110.78,0,0,1,8.1-8.85A133.33,133.33,0,0,1,28.59,27.46,182.08,182.08,0,0,1,80,4.46V7H205.83V4.46a182.08,182.08,0,0,1,51.39,23A133.34,133.34,0,0,1,277,43.34a110.76,110.76,0,0,1,8.1,8.85h-6.23V154.46h6.23a110.74,110.74,0,0,1-8.1,8.85,133.34,133.34,0,0,1-19.74,15.88,182.08,182.08,0,0,1-51.39,23v-2.51H80v2.51a182.08,182.08,0,0,1-51.39-23A133.33,133.33,0,0,1,8.84,163.31a110.76,110.76,0,0,1-8.1-8.85H7Z"/><path class="cls-123" d="M7,103.32V52.27H1a110.54,110.54,0,0,1,8.08-8.83A133.1,133.1,0,0,1,28.78,27.58a181.77,181.77,0,0,1,51.3-23V7H205.73V4.63a181.78,181.78,0,0,1,51.3,23,133.11,133.11,0,0,1,19.71,15.85,110.57,110.57,0,0,1,8.08,8.83h-6V154.38h6a110.59,110.59,0,0,1-8.08,8.83A133.11,133.11,0,0,1,257,179.06a181.78,181.78,0,0,1-51.3,23v-2.34H80.08V202a181.77,181.77,0,0,1-51.3-23A133.1,133.1,0,0,1,9.07,163.21,110.55,110.55,0,0,1,1,154.38H7Z"/><path class="cls-124" d="M7,103.32v-51H1.22a110.39,110.39,0,0,1,8.07-8.82A132.89,132.89,0,0,1,29,27.71,181.47,181.47,0,0,1,80.18,4.79V7H205.62V4.79a181.47,181.47,0,0,1,51.22,22.92,132.89,132.89,0,0,1,19.68,15.83,110.38,110.38,0,0,1,8.07,8.82h-5.75V154.29h5.75a110.38,110.38,0,0,1-8.07,8.82,132.89,132.89,0,0,1-19.68,15.83,181.47,181.47,0,0,1-51.22,22.92v-2.18H80.18v2.18A181.47,181.47,0,0,1,29,178.94,132.89,132.89,0,0,1,9.29,163.11a110.39,110.39,0,0,1-8.07-8.82H7Z"/><path class="cls-125" d="M7,103.32V52.44H1.46a110.18,110.18,0,0,1,8.06-8.8,132.67,132.67,0,0,1,19.64-15.8A181.16,181.16,0,0,1,80.29,5V7H205.52V5a181.16,181.16,0,0,1,51.13,22.88,132.67,132.67,0,0,1,19.64,15.8,110.18,110.18,0,0,1,8.06,8.8h-5.51V154.21h5.51a110.22,110.22,0,0,1-8.06,8.8,132.67,132.67,0,0,1-19.64,15.8,181.16,181.16,0,0,1-51.13,22.88v-2H80.29v2a181.16,181.16,0,0,1-51.13-22.88A132.67,132.67,0,0,1,9.52,163a110.22,110.22,0,0,1-8.06-8.8H7Z"/><path class="cls-126" d="M7,103.32V52.52H1.7a110,110,0,0,1,8-8.79A132.43,132.43,0,0,1,29.35,28a180.86,180.86,0,0,1,51-22.84V7h125V5.13a180.86,180.86,0,0,1,51,22.84,132.44,132.44,0,0,1,19.61,15.77,110,110,0,0,1,8,8.79h-5.28v101.6h5.28a110,110,0,0,1-8,8.79,132.43,132.43,0,0,1-19.61,15.77,180.86,180.86,0,0,1-51,22.84v-1.85H80.4v1.85a180.86,180.86,0,0,1-51-22.84A132.42,132.42,0,0,1,9.74,162.91a110,110,0,0,1-8-8.79H7Z"/><path class="cls-127" d="M7,103.32V52.61h-5a109.84,109.84,0,0,1,8-8.77A132.22,132.22,0,0,1,29.54,28.09a180.56,180.56,0,0,1,51-22.8V7H205.31V5.29a180.56,180.56,0,0,1,51,22.8,132.22,132.22,0,0,1,19.58,15.75,109.84,109.84,0,0,1,8,8.77h-5V154h5a109.84,109.84,0,0,1-8,8.77,132.22,132.22,0,0,1-19.58,15.75,180.56,180.56,0,0,1-51,22.8v-1.68H80.5v1.68a180.56,180.56,0,0,1-51-22.8A132.22,132.22,0,0,1,10,162.81a109.84,109.84,0,0,1-8-8.77H7Z"/><path class="cls-128" d="M7,103.32V52.7H2.17a109.66,109.66,0,0,1,8-8.76A132,132,0,0,1,29.73,28.22,180.25,180.25,0,0,1,80.61,5.46V7H205.2V5.46a180.25,180.25,0,0,1,50.87,22.76,132,132,0,0,1,19.54,15.72,109.64,109.64,0,0,1,8,8.76h-4.8V154h4.8a109.64,109.64,0,0,1-8,8.76,132,132,0,0,1-19.54,15.72,180.25,180.25,0,0,1-50.87,22.76v-1.52H80.61v1.52a180.25,180.25,0,0,1-50.87-22.76,132,132,0,0,1-19.54-15.72,109.66,109.66,0,0,1-8-8.76H7Z"/><path class="cls-129" d="M7,103.32V52.78H2.41a109.45,109.45,0,0,1,8-8.74A131.77,131.77,0,0,1,29.92,28.35,180,180,0,0,1,80.71,5.62V7H205.1V5.62a180,180,0,0,1,50.79,22.72A131.77,131.77,0,0,1,275.39,44a109.49,109.49,0,0,1,8,8.74h-4.56V153.87h4.56a109.49,109.49,0,0,1-8,8.74,131.77,131.77,0,0,1-19.51,15.69A180,180,0,0,1,205.1,201v-1.35H80.71V201A180,180,0,0,1,29.92,178.3a131.78,131.78,0,0,1-19.51-15.69,109.45,109.45,0,0,1-8-8.74H7Z"/><path class="cls-130" d="M7,103.32V52.87H2.65a109.28,109.28,0,0,1,8-8.73A131.55,131.55,0,0,1,30.12,28.47,179.64,179.64,0,0,1,80.82,5.79V7H205V5.79a179.64,179.64,0,0,1,50.7,22.69,131.55,131.55,0,0,1,19.48,15.67,109.27,109.27,0,0,1,8,8.73h-4.33V153.78h4.33a109.25,109.25,0,0,1-8,8.73,131.54,131.54,0,0,1-19.48,15.67A179.64,179.64,0,0,1,205,200.86v-1.19H80.82v1.19a179.64,179.64,0,0,1-50.7-22.69,131.55,131.55,0,0,1-19.48-15.67,109.27,109.27,0,0,1-8-8.73H7Z"/><path class="cls-131" d="M7,103.32V53H2.89a109.08,109.08,0,0,1,8-8.71A131.32,131.32,0,0,1,30.31,28.6,179.34,179.34,0,0,1,80.92,6V7h124V6A179.34,179.34,0,0,1,255.5,28.6a131.31,131.31,0,0,1,19.44,15.64,109.08,109.08,0,0,1,8,8.71h-4.09V153.69h4.09a109.08,109.08,0,0,1-8,8.71A131.31,131.31,0,0,1,255.5,178a179.34,179.34,0,0,1-50.61,22.65v-1h-124v1A179.34,179.34,0,0,1,30.31,178a131.32,131.32,0,0,1-19.44-15.64,109.08,109.08,0,0,1-8-8.71H7Z"/><path class="cls-131" d="M7,103.32V53H3.12a108.89,108.89,0,0,1,8-8.7A131.11,131.11,0,0,1,30.5,28.73,179,179,0,0,1,81,6.12V7H204.78V6.12a179,179,0,0,1,50.53,22.61,131.11,131.11,0,0,1,19.41,15.61,108.88,108.88,0,0,1,8,8.7h-3.85V153.61h3.85a108.89,108.89,0,0,1-8,8.7,131.11,131.11,0,0,1-19.41,15.61,179,179,0,0,1-50.53,22.61v-.86H81v.86A179,179,0,0,1,30.5,177.92a131.11,131.11,0,0,1-19.41-15.61,108.91,108.91,0,0,1-8-8.7H7Z"/><path class="cls-132" d="M7,103.32V63.9H2.29C10,51.79,21.19,40.87,35,31.71,62.61,13.38,100.76,2,142.9,2S223.2,13.38,250.81,31.71c13.81,9.16,25,20.08,32.7,32.19h-4.69v78.84h4.69c-7.72,12.12-18.9,23-32.7,32.19C223.2,193.26,185,204.6,142.9,204.6S62.61,193.26,35,174.94c-13.81-9.16-25-20.08-32.7-32.19H7Z"/><path class="cls-133" d="M7,103.32V74.46H3.23a78.89,78.89,0,0,1,4.92-8.92c7.4-11.61,18.11-22.07,31.34-30.85C66,17.13,102.52,6.27,142.9,6.27s76.95,10.86,103.41,28.43c13.23,8.78,23.94,19.24,31.34,30.85a78.9,78.9,0,0,1,4.92,8.92h-3.74v57.72h3.74a78.9,78.9,0,0,1-4.92,8.92c-7.4,11.61-18.11,22.07-31.34,30.85-26.47,17.56-63,28.43-103.41,28.43S66,189.52,39.49,172c-13.23-8.78-23.94-19.24-31.34-30.85a78.89,78.89,0,0,1-4.92-8.92H7Z"/><ellipse class="cls-134" cx="142.9" cy="103.32" rx="139.89" ry="92.84"/><ellipse class="cls-135" cx="142.9" cy="103.32" rx="133.53" ry="88.62"/><ellipse class="cls-136" cx="142.9" cy="103.32" rx="127.17" ry="84.4"/><ellipse class="cls-137" cx="142.9" cy="103.32" rx="120.81" ry="80.18"/><ellipse class="cls-138" cx="142.9" cy="103.32" rx="114.45" ry="75.96"/><ellipse class="cls-139" cx="142.9" cy="103.32" rx="108.1" ry="71.74"/><ellipse class="cls-140" cx="142.9" cy="103.32" rx="101.74" ry="67.52"/><ellipse class="cls-141" cx="142.9" cy="103.32" rx="95.38" ry="63.3"/><ellipse class="cls-142" cx="142.9" cy="103.32" rx="89.02" ry="59.08"/><ellipse class="cls-143" cx="142.9" cy="103.32" rx="82.66" ry="54.86"/><ellipse class="cls-144" cx="142.9" cy="103.32" rx="76.3" ry="50.64"/><ellipse class="cls-145" cx="142.9" cy="103.32" rx="69.94" ry="46.42"/><ellipse class="cls-146" cx="142.9" cy="103.32" rx="63.59" ry="42.2"/><ellipse class="cls-147" cx="142.9" cy="103.32" rx="57.23" ry="37.98"/><ellipse class="cls-148" cx="142.9" cy="103.32" rx="50.87" ry="33.76"/><ellipse class="cls-149" cx="142.9" cy="103.32" rx="44.51" ry="29.54"/><ellipse class="cls-150" cx="142.9" cy="103.32" rx="38.15" ry="25.32"/><ellipse class="cls-151" cx="142.9" cy="103.32" rx="31.79" ry="21.1"/><ellipse class="cls-152" cx="142.9" cy="103.32" rx="25.43" ry="16.88"/><ellipse class="cls-153" cx="142.9" cy="103.32" rx="19.08" ry="12.66"/><ellipse class="cls-154" cx="142.9" cy="103.32" rx="12.72" ry="8.44"/><ellipse class="cls-155" cx="142.9" cy="103.32" rx="6.36" ry="4.22"/></g><path class="cls-156" d="M242.55,153.51c17.57,18.56,32.93,41.32,32.48,41.8a10.46,10.46,0,0,1-7.69,3.36H252.7Z"/><path class="cls-157" d="M250.35,43.43c17.57-18.56,25.13-31.61,24.68-32.1A10.46,10.46,0,0,0,267.35,8H252.7Z"/><path class="cls-158" d="M43.43,173.75c-18.56,17.57-31.61,22.58-32.1,22.13A10.46,10.46,0,0,1,8,188.19V173.54Z"/><path class="cls-159" d="M36.49,43.43c-17.57-18.56-26.15-31.61-25.7-32.1A10.46,10.46,0,0,1,18.48,8H33.13Z"/><rect class="cls-160" x="9.21" y="9.21" width="267.39" height="188.23" rx="9.25" ry="9.25"/><rect class="cls-161" x="31.39" y="19.98" width="223.05" height="166.7"/><circle class="cls-162" cx="265.52" cy="103.32" r="1.46"/><circle class="cls-163" cx="265.52" cy="103.32" r="0.7"/><circle class="cls-164" cx="19.23" cy="103.32" r="7.04"/><path class="cls-165" d="M24.46,98.61A7,7,0,0,1,21,110.14C21,107.2,24.46,98.61,24.46,98.61Z"/><circle class="cls-166" cx="19.23" cy="103.32" r="6.22"/><path class="cls-167" d="M237.87,197.44h29.48a9.28,9.28,0,0,0,9.25-9.25V18.46a9.28,9.28,0,0,0-9.25-9.25H165.18Q201.48,103.34,237.87,197.44Z"/></g></g></g></svg>