<svg xmlns="http://www.w3.org/2000/svg" xmlns:xlink="http://www.w3.org/1999/xlink" viewBox="0 0 206.65 285.81"><defs><style>.cls-1{fill:none;}.cls-2{isolation:isolate;}.cls-167,.cls-3,.cls-4,.cls-5,.cls-6{fill-rule:evenodd;}.cls-3{fill:url(#linear-gradient);}.cls-4{fill:url(#linear-gradient-2);}.cls-5{fill:url(#linear-gradient-3);}.cls-6{fill:url(#linear-gradient-4);}.cls-7{clip-path:url(#clip-path);}.cls-8{fill:#565757;}.cls-9{fill:#575858;}.cls-10{fill:#585959;}.cls-11{fill:#595a5a;}.cls-12{fill:#5a5b5b;}.cls-13{fill:#5b5c5c;}.cls-14{fill:#5c5d5d;}.cls-15{fill:#5d5e5e;}.cls-16{fill:#5e5f5f;}.cls-17{fill:#5f6060;}.cls-18{fill:#606161;}.cls-19{fill:#616262;}.cls-20{fill:#626363;}.cls-21{fill:#636464;}.cls-22{fill:#646565;}.cls-23{fill:#656666;}.cls-24{fill:#666767;}.cls-25{fill:#676868;}.cls-26{fill:#686969;}.cls-27{fill:#696a6a;}.cls-28{fill:#6a6b6b;}.cls-29{fill:#6b6c6c;}.cls-30{fill:#6c6d6d;}.cls-31{fill:#6d6e6e;}.cls-32{fill:#6e6f6f;}.cls-33{fill:#6f7070;}.cls-34{fill:#707171;}.cls-35{fill:#717272;}.cls-36{fill:#727373;}.cls-37{fill:#737474;}.cls-38{fill:#747575;}.cls-39{fill:#757676;}.cls-40{fill:#767777;}.cls-41{fill:#777878;}.cls-42{fill:#787979;}.cls-43{fill:#797a7a;}.cls-44{fill:#7a7b7b;}.cls-45{fill:#7b7c7c;}.cls-46{fill:#7c7d7d;}.cls-47{fill:#7d7e7e;}.cls-48{fill:#7e7f7f;}.cls-49{fill:#7f8080;}.cls-50{fill:#808181;}.cls-51{fill:#818282;}.cls-52{fill:#828383;}.cls-53{fill:#838484;}.cls-54{fill:#848585;}.cls-55{fill:#858686;}.cls-56{fill:#868787;}.cls-57{fill:#878888;}.cls-58{fill:#888989;}.cls-59{fill:#898a8a;}.cls-60{fill:#8a8b8b;}.cls-61{fill:#8b8c8c;}.cls-62{fill:#8c8d8d;}.cls-63{fill:#8d8e8e;}.cls-64{fill:#8e8f8f;}.cls-65{fill:#8f9090;}.cls-66{fill:#909191;}.cls-67{fill:#919292;}.cls-68{fill:#929393;}.cls-69{fill:#939494;}.cls-70{fill:#959696;}.cls-71{fill:#969797;}.cls-72{fill:#979898;}.cls-73{fill:#989999;}.cls-74{fill:#999a9a;}.cls-75{fill:#9a9b9b;}.cls-76{fill:#9b9c9c;}.cls-77{fill:#9c9d9d;}.cls-78{fill:#9d9e9e;}.cls-79{fill:#9e9f9f;}.cls-80{fill:#9fa0a0;}.cls-81{fill:#a0a1a1;}.cls-82{fill:#a1a2a2;}.cls-83{fill:#a2a3a3;}.cls-84{fill:#a3a4a4;}.cls-85{fill:#a4a5a5;}.cls-86{fill:#a5a6a6;}.cls-87{fill:#a6a7a7;}.cls-88{fill:#a7a8a8;}.cls-89{fill:#a8a9a9;}.cls-90{fill:#a9aaaa;}.cls-91{fill:#aaabab;}.cls-92{fill:#abacac;}.cls-93{fill:#acadad;}.cls-94{fill:#adaeae;}.cls-95{fill:#aeafaf;}.cls-96{fill:#afb0b0;}.cls-97{fill:#b0b1b1;}.cls-98{fill:#b1b2b2;}.cls-99{fill:#b2b3b3;}.cls-100{fill:#b3b4b4;}.cls-101{fill:#b4b5b5;}.cls-102{fill:#b5b6b6;}.cls-103{fill:#b6b7b7;}.cls-104{fill:#b7b8b8;}.cls-105{fill:#b8b9b9;}.cls-106{fill:#b9baba;}.cls-107{fill:#babbbb;}.cls-108{fill:#bbbcbc;}.cls-109{fill:#bcbdbd;}.cls-110{fill:#bdbebe;}.cls-111{fill:#bebfbf;}.cls-112{fill:#bfc0c0;}.cls-113{fill:#c0c1c1;}.cls-114{fill:#c1c2c2;}.cls-115{fill:#c2c3c3;}.cls-116{fill:#c3c4c4;}.cls-117{fill:#c4c5c5;}.cls-118{fill:#c5c6c6;}.cls-119{fill:#c6c7c7;}.cls-120{fill:#c7c8c8;}.cls-121{fill:#c8c9c9;}.cls-122{fill:#c9caca;}.cls-123{fill:#cacbcb;}.cls-124{fill:#cbcccc;}.cls-125{fill:#cccdcd;}.cls-126{fill:#cdcece;}.cls-127{fill:#cecfcf;}.cls-128{fill:#cfd0d0;}.cls-129{fill:#d0d1d1;}.cls-130{fill:#d1d2d2;}.cls-131{fill:#d2d3d3;}.cls-132{fill:#d3d4d4;}.cls-133{fill:#d4d5d5;}.cls-134{fill:#d5d6d6;}.cls-135{fill:#d6d7d7;}.cls-136{fill:#d7d8d8;}.cls-137{fill:#d8d9d9;}.cls-138{fill:#d9dada;}.cls-139{fill:#dadbdb;}.cls-140{fill:#dbdcdc;}.cls-141{fill:#dcdddd;}.cls-142{fill:#dddede;}.cls-143{fill:#dfe0df;}.cls-144{fill:#e0e1e0;}.cls-145{fill:#e1e2e1;}.cls-146{fill:#e2e3e2;}.cls-147{fill:#e3e4e3;}.cls-148{fill:#e4e5e4;}.cls-149{fill:#e5e6e5;}.cls-150{fill:#e6e7e6;}.cls-151{fill:#e7e8e7;}.cls-152{fill:#e8e9e8;}.cls-153{fill:#e9eae9;}.cls-154{fill:#eaebea;}.cls-155{fill:#ebeceb;}.cls-156,.cls-157,.cls-158,.cls-159,.cls-165,.cls-167{mix-blend-mode:screen;}.cls-156{fill:url(#linear-gradient-5);}.cls-157{fill:url(#linear-gradient-6);}.cls-158{fill:url(#linear-gradient-7);}.cls-159{fill:url(#linear-gradient-8);}.cls-160{fill:url(#linear-gradient-9);}.cls-161{fill:#fff;}.cls-162{fill:url(#linear-gradient-10);}.cls-163{fill:url(#radial-gradient);}.cls-164{fill:url(#linear-gradient-11);}.cls-165{fill:url(#linear-gradient-12);}.cls-166{fill:url(#linear-gradient-13);}.cls-167{fill:url(#linear-gradient-14);}</style><linearGradient id="linear-gradient" x1="7.97" y1="39.9" x2="7.97" y2="32" gradientUnits="userSpaceOnUse"><stop offset="0" stop-color="#888989"/><stop offset="0.03" stop-color="#6e6f6f"/><stop offset="0.07" stop-color="#484949"/><stop offset="0.11" stop-color="#313232"/><stop offset="0.13" stop-color="#282929"/><stop offset="0.18" stop-color="#282929"/><stop offset="0.51" stop-color="#282929"/><stop offset="0.58" stop-color="#3d3e3e"/><stop offset="0.7" stop-color="#737474"/><stop offset="0.83" stop-color="#acacac"/><stop offset="1" stop-color="#191a1a"/></linearGradient><linearGradient id="linear-gradient-2" x1="-166.65" y1="-926.13" x2="-166.65" y2="-939.6" gradientTransform="translate(-763.29 174.59) rotate(90)" gradientUnits="userSpaceOnUse"><stop offset="0" stop-color="#888989"/><stop offset="0.03" stop-color="#6e6f6f"/><stop offset="0.07" stop-color="#484949"/><stop offset="0.11" stop-color="#313232"/><stop offset="0.13" stop-color="#282929"/><stop offset="0.17" stop-color="#343535"/><stop offset="0.24" stop-color="#434444"/><stop offset="0.32" stop-color="#4c4c4c"/><stop offset="0.45" stop-color="#4f4f4f"/><stop offset="0.83" stop-color="#acacac"/><stop offset="1" stop-color="#191a1a"/></linearGradient><linearGradient id="linear-gradient-3" x1="7.97" y1="54.48" x2="7.97" y2="48.46" gradientUnits="userSpaceOnUse"><stop offset="0" stop-color="#888989"/><stop offset="0.08" stop-color="#747575"/><stop offset="0.27" stop-color="#4b4c4c"/><stop offset="0.42" stop-color="#313232"/><stop offset="0.51" stop-color="#282929"/><stop offset="0.58" stop-color="#3d3e3e"/><stop offset="0.7" stop-color="#737474"/><stop offset="0.83" stop-color="#acacac"/><stop offset="1" stop-color="#191a1a"/></linearGradient><linearGradient id="linear-gradient-4" x1="7.97" y1="68.78" x2="7.97" y2="62.76" xlink:href="#linear-gradient-3"/><clipPath id="clip-path"><rect class="cls-1" x="7.97" y="7.97" width="190.7" height="269.86" rx="10.49" ry="10.49"/></clipPath><linearGradient id="linear-gradient-5" x1="172.92" y1="24.17" x2="182.87" y2="40.57" gradientUnits="userSpaceOnUse"><stop offset="0" stop-color="#080808"/><stop offset="0.11" stop-color="#ebeceb"/><stop offset="1"/></linearGradient><linearGradient id="linear-gradient-6" x1="-201.07" y1="20.81" x2="-191.04" y2="37.36" gradientTransform="matrix(-1, 0, 0, 1, -172.53, 0)" xlink:href="#linear-gradient-5"/><linearGradient id="linear-gradient-7" x1="-246.74" y1="49.65" x2="-236.34" y2="66.81" gradientTransform="translate(236.51 504.16) rotate(90)" xlink:href="#linear-gradient-5"/><linearGradient id="linear-gradient-8" x1="-201.23" y1="475.94" x2="-191.26" y2="492.38" gradientTransform="translate(-172.53 740.67) rotate(180)" xlink:href="#linear-gradient-5"/><linearGradient id="linear-gradient-9" x1="75.25" y1="185.96" x2="178.05" y2="28.28" gradientUnits="userSpaceOnUse"><stop offset="0" stop-color="#1c1c1c"/><stop offset="1"/></linearGradient><linearGradient id="linear-gradient-10" x1="100.98" y1="18.99" x2="105.03" y2="21.23" gradientUnits="userSpaceOnUse"><stop offset="0" stop-color="#212121"/><stop offset="1" stop-color="#474747"/></linearGradient><radialGradient id="radial-gradient" cx="103.23" cy="20.08" r="0.7" gradientUnits="userSpaceOnUse"><stop offset="0" stop-color="#80bdec"/><stop offset="0.02" stop-color="#7dbae9"/><stop offset="0.32" stop-color="#558fc2"/><stop offset="0.6" stop-color="#3970a6"/><stop offset="0.83" stop-color="#275d94"/><stop offset="0.99" stop-color="#21568e"/></radialGradient><linearGradient id="linear-gradient-11" x1="101.47" y1="259.41" x2="105.38" y2="274.54" gradientUnits="userSpaceOnUse"><stop offset="0" stop-color="#080808"/><stop offset="0.03" stop-color="#272727"/><stop offset="0.09" stop-color="#626262"/><stop offset="0.15" stop-color="#939393"/><stop offset="0.21" stop-color="#b9bab9"/><stop offset="0.26" stop-color="#d5d5d5"/><stop offset="0.31" stop-color="#e5e6e5"/><stop offset="0.35" stop-color="#ebeceb"/><stop offset="0.68" stop-color="#c5c6c5"/><stop offset="1"/></linearGradient><linearGradient id="linear-gradient-12" x1="-179.03" y1="-5.59" x2="-176.76" y2="-7.81" gradientTransform="matrix(0.67, 0.74, -0.74, 0.67, 221.43, 398.89)" gradientUnits="userSpaceOnUse"><stop offset="0"/><stop offset="0.75" stop-color="#8a8b8a"/><stop offset="0.98" stop-color="#131313"/><stop offset="1" stop-color="#080808"/></linearGradient><linearGradient id="linear-gradient-13" x1="99.93" y1="271.79" x2="106.72" y2="261.36" gradientUnits="userSpaceOnUse"><stop offset="0" stop-color="#1c1c1c"/><stop offset="1" stop-color="#161616"/></linearGradient><linearGradient id="linear-gradient-14" x1="92.62" y1="214.24" x2="215.74" y2="25.39" gradientUnits="userSpaceOnUse"><stop offset="0" stop-color="#181818"/><stop offset="1" stop-color="#4a4a4a"/></linearGradient></defs><title>tablet_v</title><g class="cls-2"><g id="Layer_2" data-name="Layer 2"><g id="Layer_1-2" data-name="Layer 1"><path class="cls-3" d="M8.74,39.41a.55.55,0,0,1-.59.49H7.81a.55.55,0,0,1-.59-.49V32.5A.55.55,0,0,1,7.81,32h.33a.55.55,0,0,1,.59.49Z"/><path class="cls-4" d="M163.33,8.7a.55.55,0,0,1-.49-.59V7.77a.55.55,0,0,1,.49-.59h12.49a.55.55,0,0,1,.49.59v.33a.55.55,0,0,1-.49.59Z"/><path class="cls-5" d="M8.74,54a.55.55,0,0,1-.59.49H7.81A.55.55,0,0,1,7.21,54V49a.55.55,0,0,1,.59-.49h.33a.55.55,0,0,1,.59.49Z"/><path class="cls-6" d="M8.74,68.29a.55.55,0,0,1-.59.49H7.81a.55.55,0,0,1-.59-.49v-5a.55.55,0,0,1,.59-.49h.33a.55.55,0,0,1,.59.49Z"/><g class="cls-7"><rect class="cls-8" x="7.97" y="7.97" width="190.7" height="269.86"/><path class="cls-8" d="M103.32,278.83H13V279q-4.33-6.53-8.24-13.67H7V20.46H4.75Q8.65,13.33,13,6.79V7H193.65V6.79q4.33,6.53,8.24,13.67h-2.23V265.35h2.23Q198,272.48,193.65,279v-.18Z"/><path class="cls-9" d="M103.32,278.83H17.55v6.36q-2.27-3.1-4.43-6.36-4.33-6.52-8.23-13.65H7V20.63H4.89Q8.79,13.51,13.12,7,15.28,3.72,17.55.62V7H189.1V.62q2.27,3.1,4.43,6.36,4.33,6.52,8.23,13.65h-2.09V265.17h2.09q-3.9,7.12-8.23,13.65-2.16,3.26-4.43,6.36v-6.36Z"/><path class="cls-10" d="M103.32,278.83H17.67V285q-2.26-3.1-4.42-6.36Q8.92,272.12,5,265H7V20.8H5q3.89-7.11,8.22-13.63Q15.41,3.92,17.67.82V7H189V.82q2.26,3.1,4.42,6.36,4.32,6.51,8.22,13.63h-1.95V265h1.95q-3.89,7.11-8.22,13.63-2.16,3.26-4.42,6.36v-6.16Z"/><path class="cls-11" d="M103.32,278.83H17.79v6q-2.26-3.09-4.42-6.35-4.32-6.5-8.21-13.61H7V21H5.16q3.89-7.1,8.21-13.61Q15.53,4.11,17.79,1V7H188.86V1q2.26,3.09,4.42,6.35,4.32,6.5,8.21,13.61h-1.81V264.83h1.81q-3.89,7.1-8.21,13.61-2.16,3.25-4.42,6.35v-6Z"/><path class="cls-12" d="M103.32,278.83H17.91v5.76q-2.26-3.09-4.41-6.34-4.31-6.49-8.2-13.59H7V21.15H5.3q3.88-7.09,8.2-13.59,2.16-3.25,4.41-6.34V7H188.73V1.22q2.26,3.09,4.41,6.34,4.31,6.49,8.2,13.59h-1.67V264.66h1.67q-3.88,7.09-8.2,13.59-2.16,3.25-4.41,6.34v-5.76Z"/><path class="cls-13" d="M103.32,278.83H18v5.56q-2.25-3.09-4.41-6.33-4.3-6.49-8.19-13.57H7V21.32H5.44q3.88-7.08,8.19-13.57Q15.78,4.5,18,1.42V7H188.61V1.42Q190.87,4.5,193,7.75q4.3,6.49,8.19,13.57h-1.53V264.49h1.53q-3.88,7.08-8.19,13.57-2.15,3.24-4.41,6.33v-5.56Z"/><path class="cls-14" d="M103.32,278.83H18.15v5.36q-2.25-3.08-4.4-6.32-4.3-6.48-8.18-13.55H7V21.49H5.58q3.87-7.07,8.18-13.55,2.15-3.24,4.4-6.32V7H188.49V1.62q2.25,3.08,4.4,6.32,4.3,6.48,8.18,13.55h-1.39V264.31h1.39q-3.87,7.07-8.18,13.55-2.15,3.24-4.4,6.32v-5.36Z"/><path class="cls-15" d="M103.32,278.83h-85V284q-2.25-3.08-4.39-6.31-4.29-6.47-8.16-13.54H7V21.66H5.72Q9.58,14.6,13.88,8.13,16,4.9,18.27,1.82V7h170.1V1.82q2.25,3.08,4.39,6.31,4.29,6.47,8.16,13.54h-1.26V264.14h1.26q-3.87,7.06-8.16,13.54-2.15,3.23-4.39,6.31v-5.16Z"/><path class="cls-16" d="M103.32,278.83H18.39v5q-2.24-3.07-4.39-6.3Q9.72,271,5.86,264H7V21.84H5.86q3.86-7,8.15-13.52Q16.15,5.09,18.39,2V7H188.25V2q2.24,3.07,4.39,6.3,4.29,6.46,8.15,13.52h-1.12V264h1.12q-3.86,7.05-8.15,13.52-2.14,3.23-4.39,6.3v-5Z"/><path class="cls-17" d="M103.32,278.83H18.52v4.76q-2.24-3.07-4.38-6.29Q9.86,270.85,6,263.8H7V22H6q3.86-7,8.14-13.5,2.14-3.22,4.38-6.29V7H188.13V2.22q2.24,3.07,4.38,6.29Q196.79,15,200.65,22h-1V263.8h1q-3.86,7-8.14,13.5-2.14,3.22-4.38,6.29v-4.76Z"/><path class="cls-18" d="M103.32,278.83H18.64v4.56q-2.24-3.06-4.37-6.28Q10,270.66,6.13,263.63H7V22.18H6.13q3.85-7,8.13-13.48,2.14-3.22,4.37-6.28V7H188V2.42q2.24,3.06,4.37,6.28,4.27,6.44,8.13,13.48h-.84V263.63h.84q-3.85,7-8.13,13.48-2.14,3.22-4.37,6.28v-4.56Z"/><path class="cls-19" d="M103.32,278.83H18.76v4.36q-2.23-3.06-4.37-6.28-4.27-6.43-8.12-13.46H7V22.35h-.7q3.84-7,8.12-13.46,2.13-3.22,4.37-6.28V7H187.89V2.62q2.23,3.06,4.37,6.28,4.27,6.43,8.12,13.46h-.7v241.1h.7q-3.84,7-8.12,13.46-2.13,3.22-4.37,6.28v-4.36Z"/><path class="cls-20" d="M103.32,278.83H18.88V283q-2.23-3.05-4.36-6.27-4.26-6.42-8.11-13.44H7V22.52H6.41q3.84-7,8.11-13.44,2.13-3.21,4.36-6.27V7H187.77V2.82q2.23,3.05,4.36,6.27,4.26,6.42,8.11,13.44h-.56V263.28h.56q-3.84,7-8.11,13.44-2.13,3.21-4.36,6.27v-4.16Z"/><path class="cls-21" d="M103.32,278.83H19v4q-2.23-3.05-4.36-6.26-4.26-6.41-8.09-13.42H7V22.7H6.55q3.83-7,8.09-13.42Q16.77,6.07,19,3V7H187.65V3q2.23,3.05,4.36,6.26,4.26,6.41,8.09,13.42h-.43V263.11h.43q-3.83,7-8.09,13.42-2.13,3.21-4.36,6.26v-4Z"/><path class="cls-22" d="M103.32,278.83H19.12v3.76q-2.22-3-4.35-6.25-4.25-6.4-8.08-13.4H7V22.87H6.69q3.83-7,8.08-13.4,2.12-3.2,4.35-6.25V7H187.53V3.22q2.22,3,4.35,6.25,4.25,6.4,8.08,13.4h-.29V262.94H200q-3.83,7-8.08,13.4-2.12,3.2-4.35,6.25v-3.76Z"/><path class="cls-23" d="M103.32,278.83H19.24v3.56q-2.22-3-4.34-6.24-4.24-6.39-8.07-13.38H7V23H6.82q3.82-7,8.07-13.38Q17,6.46,19.24,3.42V7H187.41V3.42q2.22,3,4.34,6.24Q196,16.05,199.82,23h-.15V262.77h.15q-3.82,7-8.07,13.38-2.12,3.2-4.34,6.24v-3.56Z"/><path class="cls-24" d="M103.32,278.83h-84v3.36q-2.22-3-4.34-6.23Q10.79,269.57,7,262.59H7V23.21H7q3.82-7,8.06-13.36,2.12-3.19,4.34-6.23V7H187.29V3.62q2.22,3,4.34,6.23,4.24,6.38,8.06,13.36h0V262.59h0q-3.82,7-8.06,13.36-2.12,3.19-4.34,6.23v-3.36Z"/><path class="cls-25" d="M103.32,278.83H19.48V282q-2.21-3-4.33-6.22-4.23-6.38-8-13.34-1.91-3.48-3.7-7.1H7V30.48H3.4q1.8-3.62,3.7-7.1,3.81-7,8-13.34,2.12-3.19,4.33-6.22V7H187.17V3.82q2.21,3,4.33,6.22,4.23,6.38,8,13.34,1.91,3.48,3.7,7.1h-3.57V255.32h3.57q-1.8,3.62-3.7,7.1-3.81,7-8,13.34-2.12,3.19-4.33,6.22v-3.15Z"/><path class="cls-26" d="M103.32,278.83H19.6v3q-2.21-3-4.32-6.21A193.05,193.05,0,0,1,.07,247.81H7V38H.07a193.05,193.05,0,0,1,15.2-27.77Q17.39,7,19.6,4V7H187V4q2.21,3,4.32,6.21A193.05,193.05,0,0,1,206.57,38h-6.9V247.81h6.9a193.05,193.05,0,0,1-15.2,27.77q-2.11,3.18-4.32,6.21v-3Z"/><path class="cls-27" d="M103.32,278.83H19.72v2.75q-2.21-3-4.32-6.2A192.77,192.77,0,0,1,.22,247.66H7V38.15H.22A192.77,192.77,0,0,1,15.4,10.42q2.11-3.18,4.32-6.2V7h167.2V4.22q2.21,3,4.32,6.2a192.76,192.76,0,0,1,15.18,27.73h-6.75v209.5h6.75a192.76,192.76,0,0,1-15.18,27.73q-2.11,3.18-4.32,6.2v-2.75Z"/><path class="cls-28" d="M103.32,278.83H19.84v2.55q-2.21-3-4.31-6.19A192.49,192.49,0,0,1,.37,247.5H7V38.3H.37A192.49,192.49,0,0,1,15.53,10.61q2.11-3.17,4.31-6.19V7h167V4.42q2.21,3,4.31,6.19A192.5,192.5,0,0,1,206.28,38.3h-6.6V247.5h6.6a192.5,192.5,0,0,1-15.16,27.69q-2.11,3.17-4.31,6.19v-2.55Z"/><path class="cls-29" d="M103.32,278.83H20v2.35q-2.2-3-4.31-6.19A192.21,192.21,0,0,1,.52,247.35H7V38.45H.52A192.22,192.22,0,0,1,15.66,10.81Q17.76,7.64,20,4.62V7H186.68V4.62q2.2,3,4.31,6.19a192.22,192.22,0,0,1,15.14,27.65h-6.45v208.9h6.45A192.21,192.21,0,0,1,191,275q-2.1,3.17-4.31,6.19v-2.35Z"/><path class="cls-30" d="M103.32,278.83H20.08V281q-2.2-3-4.3-6.18A191.94,191.94,0,0,1,.67,247.2H7V38.6H.67A191.94,191.94,0,0,1,15.78,11q2.1-3.16,4.3-6.18V7H186.56V4.82q2.2,3,4.3,6.18A191.94,191.94,0,0,1,206,38.6h-6.31V247.2H206a191.94,191.94,0,0,1-15.12,27.61q-2.1,3.16-4.3,6.18v-2.15Z"/><path class="cls-31" d="M103.32,278.83H20.2v2q-2.2-3-4.29-6.17A191.65,191.65,0,0,1,.82,247.05H7V38.76H.82a191.65,191.65,0,0,1,15.1-27.57Q18,8,20.2,5V7H186.44V5q2.2,3,4.29,6.17a191.65,191.65,0,0,1,15.1,27.57h-6.16V247.05h6.16a191.65,191.65,0,0,1-15.09,27.57q-2.1,3.16-4.29,6.17v-2Z"/><path class="cls-32" d="M103.32,278.83h-83v1.75q-2.19-3-4.29-6.16A191.38,191.38,0,0,1,1,246.9H7v-208H1A191.38,191.38,0,0,1,16,11.38q2.09-3.16,4.29-6.16V7h166V5.22q2.19,3,4.29,6.16a191.38,191.38,0,0,1,15.07,27.53h-6v208h6a191.38,191.38,0,0,1-15.07,27.53q-2.09,3.16-4.29,6.16v-1.75Z"/><path class="cls-33" d="M103.32,278.83H20.45v1.55q-2.19-3-4.28-6.15A191.1,191.1,0,0,1,1.11,246.75H7V39.06H1.11A191.1,191.1,0,0,1,16.17,11.57q2.09-3.15,4.28-6.15V7H186.2V5.42q2.19,3,4.28,6.15a191.12,191.12,0,0,1,15.05,27.49h-5.86V246.75h5.86a191.12,191.12,0,0,1-15.05,27.49q-2.09,3.15-4.28,6.15v-1.55Z"/><path class="cls-34" d="M103.32,278.83H20.57v1.35q-2.19-3-4.27-6.14a190.84,190.84,0,0,1-15-27.45H7V39.21H1.26a190.83,190.83,0,0,1,15-27.45q2.09-3.15,4.27-6.14V7H186.08V5.62q2.19,3,4.27,6.14a190.82,190.82,0,0,1,15,27.45h-5.71V246.6h5.71a190.83,190.83,0,0,1-15,27.45q-2.09,3.15-4.27,6.14v-1.35Z"/><path class="cls-35" d="M103.32,278.83H25.15v7q-4.55-5.66-8.73-12a190.55,190.55,0,0,1-15-27.41H7V39.36H1.41A190.55,190.55,0,0,1,16.42,12q4.17-6.28,8.73-12V7H181.5V0q4.55,5.66,8.73,12a190.55,190.55,0,0,1,15,27.41h-5.56V246.45h5.56a190.55,190.55,0,0,1-15,27.41q-4.17,6.28-8.73,12v-7Z"/><path class="cls-36" d="M103.32,278.83H25.26v6.77q-4.55-5.65-8.71-11.94a190.26,190.26,0,0,1-15-27.37H7V39.51H1.56a190.26,190.26,0,0,1,15-27.37Q20.71,5.87,25.26.21V7H181.39V.21q4.55,5.65,8.72,11.94a190.26,190.26,0,0,1,15,27.37h-5.41V246.29h5.41a190.26,190.26,0,0,1-15,27.37q-4.16,6.27-8.72,11.94v-6.77Z"/><path class="cls-37" d="M103.32,278.83H25.37v6.56q-4.54-5.64-8.7-11.92a190,190,0,0,1-15-27.33H7V39.66H1.71a190,190,0,0,1,15-27.33Q20.83,6.07,25.37.42V7h155.9V.42q4.54,5.64,8.7,11.92a190,190,0,0,1,15,27.33h-5.26V246.14h5.26a190,190,0,0,1-15,27.33q-4.16,6.27-8.7,11.92v-6.56Z"/><path class="cls-38" d="M103.32,278.83H25.49v6.35q-4.53-5.64-8.69-11.9A189.71,189.71,0,0,1,1.86,246H7V39.81H1.86A189.71,189.71,0,0,1,16.8,12.53Q21,6.27,25.49.63V7H181.16V.63q4.53,5.64,8.69,11.9a189.72,189.72,0,0,1,14.94,27.29h-5.12V246h5.12a189.72,189.72,0,0,1-14.94,27.29q-4.15,6.26-8.69,11.9v-6.35Z"/><path class="cls-39" d="M103.32,278.83H25.6V285q-4.53-5.63-8.68-11.88A189.44,189.44,0,0,1,2,245.84H7V40H2A189.44,189.44,0,0,1,16.93,12.72Q21.07,6.47,25.6.83V7H181V.83q4.53,5.63,8.68,11.88A189.44,189.44,0,0,1,204.64,40h-5V245.84h5a189.44,189.44,0,0,1-14.92,27.25Q185.57,279.34,181,285v-6.14Z"/><path class="cls-40" d="M103.32,278.83H25.72v5.93q-4.52-5.62-8.66-11.87a189.15,189.15,0,0,1-14.9-27.21H7V40.12H2.16a189.16,189.16,0,0,1,14.9-27.21Q21.19,6.67,25.72,1V7H180.93V1q4.52,5.62,8.66,11.87a189.16,189.16,0,0,1,14.9,27.21h-4.82V245.69h4.82a189.15,189.15,0,0,1-14.9,27.21q-4.14,6.24-8.66,11.87v-5.93Z"/><path class="cls-41" d="M103.32,278.83H25.83v5.72q-4.51-5.61-8.65-11.85A188.89,188.89,0,0,1,2.3,245.54H7V40.27H2.3A188.88,188.88,0,0,1,17.18,13.1q4.13-6.23,8.65-11.85V7h155V1.25q4.51,5.61,8.65,11.85a188.87,188.87,0,0,1,14.88,27.17h-4.67V245.54h4.67a188.88,188.88,0,0,1-14.88,27.17q-4.13,6.23-8.65,11.85v-5.72Z"/><path class="cls-42" d="M103.32,278.83H25.95v5.51q-4.51-5.6-8.64-11.83A188.6,188.6,0,0,1,2.45,245.39H7v-205H2.45A188.6,188.6,0,0,1,17.31,13.29q4.13-6.22,8.64-11.83V7H180.7V1.46q4.51,5.6,8.64,11.83a188.6,188.6,0,0,1,14.85,27.13h-4.52v205h4.52a188.6,188.6,0,0,1-14.85,27.13q-4.13,6.22-8.64,11.83v-5.51Z"/><path class="cls-43" d="M103.32,278.83H26.06v5.31q-4.5-5.6-8.63-11.81A188.31,188.31,0,0,1,2.6,245.24H7V40.57H2.6A188.31,188.31,0,0,1,17.43,13.48q4.12-6.21,8.63-11.81V7H180.59V1.67q4.5,5.6,8.63,11.81A188.31,188.31,0,0,1,204,40.57h-4.37V245.24H204a188.31,188.31,0,0,1-14.83,27.09q-4.12,6.21-8.63,11.81v-5.31Z"/><path class="cls-44" d="M103.32,278.83H26.17v5.1q-4.49-5.59-8.61-11.8a188,188,0,0,1-14.81-27H7V40.72H2.75a188,188,0,0,1,14.81-27q4.12-6.2,8.61-11.8V7h154.3V1.88q4.49,5.59,8.61,11.8a188.06,188.06,0,0,1,14.81,27h-4.22V245.09h4.22a188.06,188.06,0,0,1-14.81,27q-4.12,6.2-8.61,11.8v-5.1Z"/><path class="cls-45" d="M103.32,278.83h-77v4.89q-4.49-5.58-8.6-11.78a187.76,187.76,0,0,1-14.79-27H7V40.87H2.9a187.76,187.76,0,0,1,14.79-27q4.11-6.19,8.6-11.78V7H180.36V2.09q4.49,5.58,8.6,11.78a187.77,187.77,0,0,1,14.79,27h-4.07V244.93h4.07a187.77,187.77,0,0,1-14.79,27q-4.11,6.19-8.6,11.78v-4.89Z"/><path class="cls-46" d="M103.32,278.83H26.4v4.68q-4.48-5.57-8.59-11.76A187.5,187.5,0,0,1,3,244.78H7V41H3a187.5,187.5,0,0,1,14.77-27Q21.92,7.87,26.4,2.3V7H180.24V2.3q4.48,5.57,8.59,11.76A187.5,187.5,0,0,1,203.6,41h-3.93V244.78h3.93a187.5,187.5,0,0,1-14.77,27q-4.1,6.18-8.59,11.76v-4.68Z"/><path class="cls-47" d="M103.32,278.83H26.52v4.47q-4.47-5.56-8.57-11.74A187.21,187.21,0,0,1,3.2,244.63H7V41.17H3.2A187.21,187.21,0,0,1,17.94,14.25Q22,8.07,26.52,2.5V7H180.13V2.5q4.47,5.56,8.57,11.74a187.21,187.21,0,0,1,14.74,26.93h-3.78V244.63h3.78a187.21,187.21,0,0,1-14.74,26.93q-4.1,6.17-8.57,11.74v-4.47Z"/><path class="cls-48" d="M103.32,278.83H26.63v4.26q-4.47-5.55-8.56-11.73A186.93,186.93,0,0,1,3.35,244.48H7V41.33H3.35A186.93,186.93,0,0,1,18.07,14.44q4.09-6.16,8.56-11.73V7H180V2.71q4.47,5.55,8.56,11.73A186.93,186.93,0,0,1,203.3,41.33h-3.63V244.48h3.63a186.93,186.93,0,0,1-14.72,26.89q-4.09,6.16-8.56,11.73v-4.26Z"/><path class="cls-49" d="M103.32,278.83H26.74v4.05q-4.46-5.55-8.55-11.71a186.66,186.66,0,0,1-14.7-26.85H7V41.48H3.49A186.66,186.66,0,0,1,18.2,14.63q4.08-6.16,8.55-11.71V7H179.9V2.92q4.46,5.55,8.55,11.71a186.66,186.66,0,0,1,14.7,26.85h-3.48V244.33h3.48a186.66,186.66,0,0,1-14.7,26.85q-4.08,6.16-8.55,11.71v-4.05Z"/><path class="cls-50" d="M103.32,278.83H26.86v3.84q-4.45-5.54-8.54-11.69A186.38,186.38,0,0,1,3.64,244.18H7V41.63H3.64A186.38,186.38,0,0,1,18.32,14.82Q22.4,8.67,26.86,3.13V7H179.79V3.13q4.45,5.54,8.54,11.69A186.38,186.38,0,0,1,203,41.63h-3.33V244.18H203A186.38,186.38,0,0,1,188.32,271q-4.08,6.15-8.54,11.69v-3.84Z"/><path class="cls-51" d="M103.32,278.83H27v3.64q-4.45-5.53-8.52-11.67A186.1,186.1,0,0,1,3.79,244H7V41.78H3.79A186.1,186.1,0,0,1,18.45,15Q22.52,8.87,27,3.34V7h152.7V3.34Q184.12,8.87,188.2,15a186.1,186.1,0,0,1,14.66,26.77h-3.18V244h3.18a186.1,186.1,0,0,1-14.66,26.77q-4.07,6.14-8.52,11.67v-3.64Z"/><path class="cls-52" d="M103.32,278.83H27.09v3.43q-4.44-5.52-8.51-11.66A185.82,185.82,0,0,1,3.94,243.88H7V41.93h-3A185.82,185.82,0,0,1,18.58,15.2q4.07-6.13,8.51-11.66V7H179.56V3.55Q184,9.07,188.07,15.2a185.82,185.82,0,0,1,14.63,26.73h-3V243.88h3a185.82,185.82,0,0,1-14.63,26.73q-4.07,6.13-8.51,11.66v-3.43Z"/><path class="cls-53" d="M103.32,278.83H27.2v3.22q-4.43-5.51-8.5-11.64A185.54,185.54,0,0,1,4.09,243.72H7V42.08H4.09A185.54,185.54,0,0,1,18.7,15.39q4.06-6.12,8.5-11.64V7H179.45V3.76q4.43,5.51,8.5,11.64a185.53,185.53,0,0,1,14.61,26.69h-2.88V243.72h2.88a185.53,185.53,0,0,1-14.61,26.69q-4.06,6.12-8.5,11.64v-3.22Z"/><path class="cls-54" d="M103.32,278.83h-76v3q-4.43-5.5-8.49-11.62A185.26,185.26,0,0,1,4.24,243.57H7V42.23H4.24A185.26,185.26,0,0,1,18.83,15.59Q22.88,9.48,27.32,4V7h152V4q4.43,5.5,8.49,11.62a185.27,185.27,0,0,1,14.59,26.65h-2.73V243.57h2.73a185.27,185.27,0,0,1-14.59,26.65q-4.05,6.11-8.49,11.62v-3Z"/><path class="cls-55" d="M103.32,278.83H27.43v2.8Q23,276.14,19,270A185,185,0,0,1,4.39,243.42H7v-201H4.39A185,185,0,0,1,19,15.78q4-6.1,8.47-11.6V7H179.22V4.17q4.42,5.5,8.47,11.6a185,185,0,0,1,14.57,26.61h-2.59v201h2.59A185,185,0,0,1,187.69,270q-4,6.1-8.47,11.6v-2.8Z"/><path class="cls-56" d="M103.32,278.83H27.54v2.59q-4.41-5.49-8.46-11.59A184.71,184.71,0,0,1,4.54,243.27H7V42.54H4.54A184.71,184.71,0,0,1,19.08,16q4-6.09,8.46-11.59V7H179.1V4.38q4.41,5.49,8.46,11.59a184.72,184.72,0,0,1,14.55,26.57h-2.44V243.27h2.44a184.72,184.72,0,0,1-14.55,26.57q-4,6.09-8.46,11.59v-2.59Z"/><path class="cls-57" d="M103.32,278.83H27.66v2.38q-4.41-5.48-8.45-11.57A184.42,184.42,0,0,1,4.68,243.12H7V42.69H4.68A184.42,184.42,0,0,1,19.21,16.16q4-6.08,8.45-11.57V7H179V4.59q4.41,5.48,8.45,11.57A184.43,184.43,0,0,1,202,42.69h-2.29V243.12H202a184.43,184.43,0,0,1-14.53,26.53q-4,6.08-8.45,11.57v-2.38Z"/><path class="cls-58" d="M103.32,278.83H27.77V281q-4.4-5.47-8.43-11.55A184.15,184.15,0,0,1,4.83,243H7V42.84H4.83a184.16,184.16,0,0,1,14.5-26.49q4-6.07,8.43-11.55V7h151.1V4.8q4.4,5.47,8.43,11.55a184.16,184.16,0,0,1,14.5,26.49h-2.14V243h2.14a184.15,184.15,0,0,1-14.5,26.49q-4,6.07-8.43,11.55v-2.18Z"/><path class="cls-59" d="M103.32,278.83H27.89v2q-4.39-5.46-8.42-11.53A183.87,183.87,0,0,1,5,242.82H7V43H5A183.87,183.87,0,0,1,19.46,16.54q4-6.06,8.42-11.53V7H178.76V5q4.39,5.46,8.42,11.53A183.88,183.88,0,0,1,201.66,43h-2V242.82h2a183.88,183.88,0,0,1-14.48,26.45q-4,6.06-8.42,11.53v-2Z"/><path class="cls-60" d="M103.32,278.83H28v1.76q-4.39-5.45-8.41-11.52A183.6,183.6,0,0,1,5.13,242.67H7V43.14H5.13A183.6,183.6,0,0,1,19.59,16.73q4-6.05,8.41-11.52V7H178.65V5.22q4.39,5.45,8.41,11.52a183.6,183.6,0,0,1,14.46,26.41h-1.84V242.67h1.84a183.6,183.6,0,0,1-14.46,26.41q-4,6.05-8.41,11.52v-1.76Z"/><path class="cls-61" d="M103.32,278.83H28.11v1.55q-4.38-5.45-8.4-11.5A183.32,183.32,0,0,1,5.28,242.52H7V43.29H5.28A183.32,183.32,0,0,1,19.72,16.92q4-6,8.4-11.5V7H178.53V5.42q4.38,5.45,8.4,11.5a183.32,183.32,0,0,1,14.44,26.37h-1.69V242.52h1.69a183.32,183.32,0,0,1-14.44,26.37q-4,6-8.4,11.5v-1.55Z"/><path class="cls-62" d="M103.32,278.83H28.23v1.34q-4.37-5.44-8.38-11.48A183,183,0,0,1,5.43,242.36H7V43.44H5.43A183,183,0,0,1,19.84,17.11q4-6,8.38-11.48V7H178.42V5.63q4.37,5.44,8.38,11.48a183,183,0,0,1,14.42,26.33h-1.54V242.36h1.54a183,183,0,0,1-14.42,26.33q-4,6-8.38,11.48v-1.34Z"/><path class="cls-63" d="M103.32,278.83h-75V280Q24,274.53,20,268.5A182.76,182.76,0,0,1,5.58,242.21H7V43.59H5.58A182.76,182.76,0,0,1,20,17.31q4-6,8.37-11.46V7h150V5.84q4.37,5.43,8.37,11.46a182.76,182.76,0,0,1,14.39,26.29h-1.4V242.21h1.4a182.76,182.76,0,0,1-14.39,26.29q-4,6-8.37,11.46v-1.13Z"/><path class="cls-64" d="M103.32,278.83H28.46v.92q-4.36-5.42-8.36-11.45A182.48,182.48,0,0,1,5.73,242.06H7V43.74H5.73A182.48,182.48,0,0,1,20.1,17.5q4-6,8.36-11.45V7H178.19V6.05q4.36,5.42,8.36,11.45a182.48,182.48,0,0,1,14.37,26.25h-1.25V242.06h1.25a182.49,182.49,0,0,1-14.37,26.25q-4,6-8.36,11.45v-.92Z"/><path class="cls-65" d="M103.32,278.83H28.57v.71q-4.35-5.41-8.35-11.43A182.21,182.21,0,0,1,5.88,241.91H7V43.9H5.88A182.21,182.21,0,0,1,20.23,17.69q4-6,8.35-11.43V7H178.08V6.26q4.35,5.41,8.35,11.43A182.21,182.21,0,0,1,200.77,43.9h-1.1v198h1.1a182.21,182.21,0,0,1-14.35,26.21q-4,6-8.35,11.43v-.71Z"/><path class="cls-66" d="M103.32,278.83H28.68v.51q-4.35-5.4-8.33-11.41A181.93,181.93,0,0,1,6,241.76H7V44H6A181.93,181.93,0,0,1,20.35,17.88q4-6,8.33-11.41V7H178V6.47q4.35,5.4,8.33,11.41A181.93,181.93,0,0,1,200.62,44h-.95V241.76h.95a181.93,181.93,0,0,1-14.33,26.17q-4,6-8.33,11.41v-.51Z"/><path class="cls-67" d="M103.32,278.83H28.8v.3q-4.34-5.4-8.32-11.39A181.65,181.65,0,0,1,6.17,241.61H7V44.2h-.8A181.65,181.65,0,0,1,20.48,18.07q4-6,8.32-11.39V7h149v-.3q4.34,5.4,8.32,11.39A181.64,181.64,0,0,1,200.47,44.2h-.8V241.61h.8a181.64,181.64,0,0,1-14.31,26.13q-4,6-8.32,11.39v-.3Z"/><path class="cls-68" d="M103.32,278.83H28.91v.09q-4.33-5.39-8.31-11.38A181.36,181.36,0,0,1,6.32,241.46H7V44.35H6.32A181.36,181.36,0,0,1,20.61,18.26q4-6,8.31-11.38V7H177.73V6.89q4.33,5.39,8.31,11.38a181.37,181.37,0,0,1,14.28,26.09h-.65V241.46h.65A181.37,181.37,0,0,1,186,267.54q-4,6-8.31,11.38v-.09Z"/><path class="cls-69" d="M103.32,278.83H33.44v5.11q-2.25-2.53-4.41-5.22-4.33-5.38-8.29-11.36a181.09,181.09,0,0,1-14.26-26H7V44.5h-.5a181.09,181.09,0,0,1,14.26-26q4-6,8.29-11.36,2.16-2.69,4.41-5.22V7H173.21V1.87q2.25,2.53,4.41,5.22,4.33,5.38,8.29,11.36a181.1,181.1,0,0,1,14.26,26h-.5V241.31h.5a181.1,181.1,0,0,1-14.26,26q-4,6-8.29,11.36-2.16,2.69-4.41,5.22v-5.11Z"/><path class="cls-70" d="M103.32,278.83H33.55v4.89q-2.25-2.53-4.41-5.22-4.32-5.37-8.28-11.34a180.82,180.82,0,0,1-14.24-26H7V44.65H6.62a180.83,180.83,0,0,1,14.24-26q4-6,8.28-11.34,2.16-2.69,4.41-5.22V7H173.1V2.09q2.25,2.53,4.41,5.22,4.32,5.37,8.28,11.34a180.83,180.83,0,0,1,14.24,26h-.35v196.5H200a180.82,180.82,0,0,1-14.24,26q-4,6-8.28,11.34-2.16,2.69-4.41,5.22v-4.89Z"/><path class="cls-71" d="M103.32,278.83H33.65v4.67q-2.24-2.53-4.4-5.21Q24.94,272.93,21,267A180.55,180.55,0,0,1,6.77,241H7V44.8H6.77A180.54,180.54,0,0,1,21,18.84q4-6,8.27-11.32,2.16-2.68,4.4-5.21V7H173V2.3q2.24,2.53,4.4,5.21,4.31,5.36,8.27,11.32a180.54,180.54,0,0,1,14.22,26h-.21V241h.21a180.55,180.55,0,0,1-14.22,26q-4,6-8.27,11.32-2.16,2.68-4.4,5.21v-4.67Z"/><path class="cls-72" d="M103.32,278.83H33.76v4.46q-2.24-2.52-4.39-5.2-4.31-5.36-8.26-11.31a180.26,180.26,0,0,1-14.2-25.93H7V45H6.92A180.26,180.26,0,0,1,21.11,19q3.94-5.94,8.26-11.31Q31.52,5,33.76,2.52V7H172.88V2.52q2.24,2.52,4.39,5.2,4.31,5.36,8.26,11.31A180.26,180.26,0,0,1,199.73,45h-.06v195.9h.06a180.26,180.26,0,0,1-14.2,25.93q-3.94,5.94-8.26,11.31-2.15,2.68-4.39,5.2v-4.46Z"/><path class="cls-73" d="M103.32,278.83H33.87v4.24q-2.23-2.52-4.39-5.19-4.3-5.35-8.24-11.29A180,180,0,0,1,7.07,240.7q-3.13-7-5.81-14.42H7V59.53H1.25q2.68-7.44,5.81-14.42A180,180,0,0,1,21.24,19.22q3.94-5.94,8.24-11.29,2.15-2.67,4.39-5.19V7H172.78V2.74q2.23,2.52,4.39,5.19,4.3,5.35,8.24,11.29a180,180,0,0,1,14.17,25.89q3.13,7,5.81,14.42h-5.72V226.28h5.72q-2.68,7.44-5.81,14.42a180,180,0,0,1-14.17,25.89q-3.94,5.94-8.24,11.29-2.15,2.67-4.39,5.19v-4.24Z"/><path class="cls-74" d="M103.32,278.83H34v4q-2.23-2.51-4.38-5.18-4.29-5.34-8.23-11.27A179.69,179.69,0,0,1,7.21,240.55q-3.12-7-5.81-14.4H7V59.66H1.41q2.68-7.42,5.81-14.4A179.69,179.69,0,0,1,21.37,19.41Q25.3,13.48,29.6,8.14,31.74,5.47,34,3V7H172.67V3Q174.9,5.47,177,8.14q4.29,5.34,8.23,11.27a179.68,179.68,0,0,1,14.15,25.85q3.12,7,5.81,14.4h-5.56V226.15h5.56q-2.68,7.42-5.81,14.4a179.68,179.68,0,0,1-14.15,25.85q-3.93,5.93-8.23,11.27-2.15,2.67-4.38,5.18v-4Z"/><path class="cls-75" d="M103.32,278.83H34.08v3.81q-2.23-2.51-4.37-5.18-4.29-5.33-8.22-11.25A179.43,179.43,0,0,1,7.36,240.4q-3.12-7-5.8-14.38H7V59.78H1.57q2.67-7.41,5.8-14.38A179.43,179.43,0,0,1,21.49,19.6q3.93-5.92,8.22-11.25,2.14-2.67,4.37-5.18V7H172.56V3.17q2.23,2.51,4.37,5.18,4.29,5.33,8.22,11.25a179.42,179.42,0,0,1,14.13,25.81q3.12,7,5.8,14.38h-5.41V226h5.41q-2.67,7.41-5.8,14.38a179.42,179.42,0,0,1-14.13,25.81q-3.93,5.92-8.22,11.25-2.14,2.67-4.37,5.18v-3.81Z"/><path class="cls-76" d="M103.32,278.83H34.19v3.59q-2.22-2.51-4.36-5.17-4.28-5.32-8.21-11.24A179.14,179.14,0,0,1,7.51,240.25Q4.4,233.3,1.72,225.89H7v-166H1.72q2.67-7.4,5.79-14.36A179.14,179.14,0,0,1,21.62,19.79q3.92-5.91,8.21-11.24Q32,5.89,34.19,3.39V7H172.46V3.39q2.22,2.51,4.36,5.17,4.28,5.32,8.21,11.24a179.13,179.13,0,0,1,14.11,25.77q3.11,6.95,5.79,14.36h-5.25v166h5.25q-2.67,7.4-5.79,14.36A179.13,179.13,0,0,1,185,266q-3.92,5.91-8.21,11.24-2.14,2.66-4.36,5.17v-3.59Z"/><path class="cls-77" d="M103.32,278.83h-69v3.37q-2.22-2.5-4.36-5.16-4.27-5.31-8.19-11.22A178.87,178.87,0,0,1,7.66,240.1q-3.11-6.94-5.78-14.33H7V60H1.88q2.66-7.39,5.78-14.33A178.87,178.87,0,0,1,21.75,20q3.91-5.9,8.19-11.22Q32.08,6.11,34.3,3.6V7h138V3.6q2.22,2.5,4.36,5.16Q181,14.08,184.9,20A178.86,178.86,0,0,1,199,45.71q3.11,6.94,5.78,14.33h-5.09V225.76h5.09q-2.66,7.39-5.78,14.33a178.86,178.86,0,0,1-14.09,25.73q-3.91,5.9-8.19,11.22-2.14,2.66-4.36,5.16v-3.37Z"/><path class="cls-78" d="M103.32,278.83H34.41V282q-2.22-2.5-4.35-5.15-4.27-5.31-8.18-11.2A178.58,178.58,0,0,1,7.81,239.95Q4.7,233,2,225.63H7V60.17H2Q4.7,52.79,7.81,45.86A178.58,178.58,0,0,1,21.87,20.17Q25.78,14.28,30.05,9q2.13-2.65,4.35-5.15V7H172.24V3.82q2.22,2.5,4.35,5.15,4.27,5.31,8.18,11.2a178.57,178.57,0,0,1,14.07,25.69q3.11,6.93,5.77,14.31h-4.93V225.63h4.93q-2.66,7.38-5.77,14.31a178.57,178.57,0,0,1-14.07,25.69q-3.91,5.89-8.18,11.2-2.13,2.65-4.35,5.15v-3.16Z"/><path class="cls-79" d="M103.32,278.83H34.51v2.94q-2.21-2.49-4.34-5.14-4.26-5.3-8.17-11.18A178.31,178.31,0,0,1,8,239.79q-3.1-6.91-5.76-14.29H7V60.3H2.2Q4.85,52.93,8,46A178.31,178.31,0,0,1,22,20.36q3.9-5.88,8.17-11.18Q32.3,6.53,34.51,4V7H172.13V4q2.21,2.49,4.34,5.14,4.26,5.3,8.17,11.18a178.29,178.29,0,0,1,14,25.65q3.1,6.91,5.76,14.29h-4.78V225.51h4.78q-2.66,7.37-5.76,14.29a178.29,178.29,0,0,1-14,25.65q-3.9,5.88-8.17,11.18-2.13,2.65-4.34,5.14v-2.94Z"/><path class="cls-80" d="M103.32,278.83H34.62v2.72q-2.21-2.49-4.34-5.14-4.25-5.29-8.15-11.17a178,178,0,0,1-14-25.61q-3.1-6.9-5.75-14.27H7V60.43H2.36Q5,53.07,8.11,46.16a178,178,0,0,1,14-25.61Q26,14.69,30.28,9.39q2.13-2.64,4.34-5.14V7H172V4.25q2.21,2.49,4.34,5.14,4.25,5.29,8.15,11.17a178,178,0,0,1,14,25.61q3.1,6.9,5.75,14.27h-4.62V225.38h4.62q-2.65,7.35-5.75,14.27a178,178,0,0,1-14,25.61q-3.9,5.87-8.15,11.17-2.13,2.64-4.34,5.14v-2.72Z"/><path class="cls-81" d="M103.32,278.83H34.73v2.51q-2.21-2.49-4.33-5.13-4.25-5.28-8.14-11.15a177.76,177.76,0,0,1-14-25.57q-3.09-6.89-5.74-14.24H7V60.56H2.51q2.65-7.34,5.74-14.24a177.76,177.76,0,0,1,14-25.57Q26.15,14.89,30.4,9.6,32.52,7,34.73,4.47V7H171.92V4.47Q174.13,7,176.25,9.6q4.25,5.28,8.14,11.15a177.75,177.75,0,0,1,14,25.57q3.09,6.89,5.74,14.24h-4.46V225.25h4.46q-2.65,7.34-5.74,14.24a177.75,177.75,0,0,1-14,25.57q-3.89,5.86-8.14,11.15-2.12,2.64-4.33,5.13v-2.51Z"/><path class="cls-82" d="M103.32,278.83H34.84v2.29q-2.2-2.48-4.32-5.12-4.24-5.27-8.13-11.13a177.48,177.48,0,0,1-14-25.53q-3.09-6.88-5.73-14.22H7V60.69H2.67Q5.31,53.36,8.4,46.47a177.48,177.48,0,0,1,14-25.53q3.88-5.85,8.13-11.13,2.12-2.64,4.32-5.12V7h137V4.69q2.2,2.48,4.32,5.12,4.24,5.27,8.13,11.13a177.48,177.48,0,0,1,14,25.53q3.09,6.88,5.73,14.22h-4.3V225.12H204q-2.64,7.33-5.73,14.22a177.48,177.48,0,0,1-14,25.53q-3.88,5.85-8.13,11.13-2.12,2.64-4.32,5.12v-2.29Z"/><path class="cls-83" d="M103.32,278.83H39.42v6.87a142,142,0,0,1-16.91-21,177.18,177.18,0,0,1-14-25.49Q5.47,232.32,2.83,225H7V60.82H2.83q2.64-7.32,5.72-14.2a177.18,177.18,0,0,1,14-25.49A142,142,0,0,1,39.42.1V7h127.8V.1a142,142,0,0,1,16.91,21,177.18,177.18,0,0,1,14,25.49q3.08,6.87,5.72,14.2h-4.14V225h4.14q-2.64,7.32-5.72,14.2a177.18,177.18,0,0,1-14,25.49,142,142,0,0,1-16.91,21v-6.87Z"/><path class="cls-84" d="M103.32,278.83H39.52v6.65a141.81,141.81,0,0,1-16.89-21A176.92,176.92,0,0,1,8.7,239Q5.63,232.18,3,224.86H7V60.94H3Q5.62,53.64,8.7,46.77A176.92,176.92,0,0,1,22.64,21.32,141.81,141.81,0,0,1,39.52.33V7h127.6V.33a141.81,141.81,0,0,1,16.89,21,176.92,176.92,0,0,1,13.93,25.45q3.08,6.86,5.72,14.18h-4V224.86h4Q201,232.17,197.94,239A176.92,176.92,0,0,1,184,264.49a141.81,141.81,0,0,1-16.89,21v-6.65Z"/><path class="cls-85" d="M103.32,278.83H39.62v6.42a141.58,141.58,0,0,1-16.86-21A176.62,176.62,0,0,1,8.85,238.89Q5.78,232,3.14,224.73H7V61.07H3.14q2.63-7.3,5.71-14.15A176.62,176.62,0,0,1,22.76,21.51,141.58,141.58,0,0,1,39.62.55V7H167V.55a141.58,141.58,0,0,1,16.86,21A176.63,176.63,0,0,1,197.8,46.92q3.07,6.85,5.71,14.15h-3.83V224.73h3.83q-2.63,7.3-5.71,14.15a176.63,176.63,0,0,1-13.91,25.41,141.58,141.58,0,0,1-16.86,21v-6.42Z"/><path class="cls-86" d="M103.32,278.83H39.72V285A141.35,141.35,0,0,1,22.89,264.1,176.36,176.36,0,0,1,9,238.74Q5.93,231.9,3.3,224.6H7V61.2H3.3Q5.93,53.92,9,47.07A176.36,176.36,0,0,1,22.89,21.7,141.35,141.35,0,0,1,39.72.77V7h127.2V.77A141.35,141.35,0,0,1,183.76,21.7a176.35,176.35,0,0,1,13.89,25.37q3.07,6.84,5.7,14.13h-3.67V224.6h3.67q-2.63,7.29-5.7,14.13a176.35,176.35,0,0,1-13.89,25.37A141.35,141.35,0,0,1,166.92,285v-6.2Z"/><path class="cls-87" d="M103.32,278.83H39.82v6A141.14,141.14,0,0,1,23,263.91,176.08,176.08,0,0,1,9.15,238.58q-3.06-6.83-5.69-14.11H7V61.33H3.46q2.62-7.27,5.69-14.11A176.09,176.09,0,0,1,23,21.89,141.14,141.14,0,0,1,39.82,1V7h127V1a141.14,141.14,0,0,1,16.81,20.9A176.09,176.09,0,0,1,197.5,47.22q3.06,6.83,5.69,14.11h-3.51V224.48h3.51q-2.62,7.27-5.69,14.11a176.08,176.08,0,0,1-13.87,25.33,141.14,141.14,0,0,1-16.81,20.9v-6Z"/><path class="cls-88" d="M103.32,278.83H39.92v5.75a140.92,140.92,0,0,1-16.78-20.86A175.8,175.8,0,0,1,9.3,238.43q-3.06-6.82-5.68-14.09H7V61.46H3.62Q6.24,54.2,9.3,47.37A175.8,175.8,0,0,1,23.14,22.09,140.92,140.92,0,0,1,39.92,1.22V7h126.8V1.22A140.91,140.91,0,0,1,183.5,22.09a175.8,175.8,0,0,1,13.85,25.29q3.06,6.82,5.68,14.09h-3.36V224.35H203q-2.62,7.26-5.68,14.09a175.8,175.8,0,0,1-13.85,25.29,140.91,140.91,0,0,1-16.78,20.86v-5.75Z"/><path class="cls-89" d="M103.32,278.83H40v5.53a140.69,140.69,0,0,1-16.76-20.83A175.52,175.52,0,0,1,9.45,238.28q-3.05-6.81-5.67-14.07H7V61.59H3.78q2.61-7.25,5.67-14.07A175.52,175.52,0,0,1,23.27,22.28,140.69,140.69,0,0,1,40,1.45V7h126.6V1.45a140.69,140.69,0,0,1,16.76,20.83A175.52,175.52,0,0,1,197.2,47.52q3.05,6.81,5.67,14.07h-3.2V224.22h3.2q-2.61,7.25-5.67,14.07a175.52,175.52,0,0,1-13.82,25.25,140.69,140.69,0,0,1-16.76,20.83v-5.53Z"/><path class="cls-90" d="M103.32,278.83H40.13v5.3a140.46,140.46,0,0,1-16.73-20.8,175.23,175.23,0,0,1-13.8-25.21q-3-6.8-5.66-14H7V61.72h-3q2.61-7.24,5.66-14A175.23,175.23,0,0,1,23.4,22.47,140.46,140.46,0,0,1,40.13,1.67V7h126.4V1.67a140.47,140.47,0,0,1,16.73,20.8,175.24,175.24,0,0,1,13.8,25.21q3,6.8,5.66,14h-3V224.09h3q-2.61,7.24-5.66,14a175.24,175.24,0,0,1-13.8,25.21,140.47,140.47,0,0,1-16.73,20.8v-5.3Z"/><path class="cls-91" d="M103.32,278.83H40.23v5.08a140.25,140.25,0,0,1-16.7-20.76A175,175,0,0,1,9.74,238q-3-6.79-5.65-14H7V61.85H4.09q2.61-7.23,5.65-14A175,175,0,0,1,23.52,22.66,140.25,140.25,0,0,1,40.23,1.89V7H166.42V1.89a140.25,140.25,0,0,1,16.7,20.76A175,175,0,0,1,196.9,47.83q3,6.79,5.65,14h-2.88V224h2.88q-2.61,7.23-5.65,14a175,175,0,0,1-13.78,25.17,140.25,140.25,0,0,1-16.7,20.76v-5.08Z"/><path class="cls-92" d="M103.32,278.83h-63v4.86A140,140,0,0,1,23.65,263,174.68,174.68,0,0,1,9.89,237.83q-3-6.77-5.64-14H7V62H4.25q2.6-7.22,5.64-14A174.68,174.68,0,0,1,23.65,22.85,140,140,0,0,1,40.33,2.12V7h126V2.12A140,140,0,0,1,183,22.85,174.69,174.69,0,0,1,196.75,48q3,6.77,5.64,14h-2.72V223.83h2.72q-2.6,7.22-5.64,14A174.69,174.69,0,0,1,183,263a140,140,0,0,1-16.68,20.73v-4.86Z"/><path class="cls-93" d="M103.32,278.83H40.43v4.63a139.8,139.8,0,0,1-16.65-20.7A174.42,174.42,0,0,1,10,237.68q-3-6.76-5.63-14H7V62.1H4.41Q7,54.9,10,48.13A174.42,174.42,0,0,1,23.78,23,139.8,139.8,0,0,1,40.43,2.34V7H166.22V2.34A139.8,139.8,0,0,1,182.87,23a174.41,174.41,0,0,1,13.74,25.09q3,6.76,5.63,14h-2.57V223.7h2.57q-2.6,7.21-5.63,14a174.41,174.41,0,0,1-13.74,25.09,139.8,139.8,0,0,1-16.65,20.7v-4.63Z"/><path class="cls-94" d="M103.32,278.83H40.53v4.41A139.57,139.57,0,0,1,23.9,262.57a174.13,174.13,0,0,1-13.71-25q-3-6.75-5.63-14H7V62.23H4.56q2.59-7.19,5.63-14a174.12,174.12,0,0,1,13.71-25A139.57,139.57,0,0,1,40.53,2.57V7H166.12V2.57a139.57,139.57,0,0,1,16.62,20.67,174.12,174.12,0,0,1,13.71,25q3,6.75,5.63,14h-2.41V223.57h2.41q-2.59,7.19-5.63,14a174.13,174.13,0,0,1-13.71,25,139.57,139.57,0,0,1-16.62,20.67v-4.41Z"/><path class="cls-95" d="M103.32,278.83H40.63V283A139.35,139.35,0,0,1,24,262.38C13.89,247.09,5.67,228.89,0,208.67H7V77.13H0C5.67,56.92,13.89,38.71,24,23.42A139.35,139.35,0,0,1,40.63,2.79V7H166V2.79a139.36,139.36,0,0,1,16.6,20.63c10.15,15.29,18.36,33.49,24,53.71h-7V208.67h7c-5.67,20.22-13.89,38.42-24,53.71A139.35,139.35,0,0,1,166,283v-4.18Z"/><path class="cls-96" d="M103.32,278.83H40.73v4a139.14,139.14,0,0,1-16.57-20.6C14,246.93,5.83,228.75.17,208.57H7V77.24H.17C5.83,57.06,14,38.88,24.16,23.62A139.14,139.14,0,0,1,40.73,3V7H165.92V3a139.13,139.13,0,0,1,16.57,20.6c10.13,15.26,18.33,33.44,24,53.62h-6.81V208.57h6.81c-5.67,20.18-13.86,38.36-24,53.62a139.13,139.13,0,0,1-16.57,20.6v-4Z"/><path class="cls-97" d="M103.32,278.83H40.83v3.73A138.91,138.91,0,0,1,24.29,262C14.17,246.76,6,228.61.33,208.46H7V77.34H.33C6,57.19,14.17,39,24.29,23.81A138.91,138.91,0,0,1,40.83,3.24V7h125V3.24a138.91,138.91,0,0,1,16.54,20.57c10.11,15.24,18.3,33.39,24,53.54h-6.64V208.46h6.64c-5.66,20.15-13.84,38.3-24,53.54a138.91,138.91,0,0,1-16.54,20.57v-3.73Z"/><path class="cls-98" d="M103.32,278.83H40.93v3.51a138.69,138.69,0,0,1-16.52-20.53C14.31,246.59,6.14,228.48.5,208.36H7V77.45H.5C6.14,57.33,14.31,39.21,24.41,24A138.69,138.69,0,0,1,40.93,3.46V7H165.72V3.46A138.69,138.69,0,0,1,182.23,24c10.1,15.22,18.27,33.33,23.92,53.45h-6.48V208.36h6.48c-5.65,20.12-13.82,38.24-23.92,53.45a138.69,138.69,0,0,1-16.52,20.53v-3.51Z"/><path class="cls-99" d="M103.32,278.83H41v3.29a138.45,138.45,0,0,1-16.49-20.5C14.46,246.43,6.3,228.34.66,208.25H7V77.55H.66C6.3,57.47,14.46,39.38,24.54,24.19A138.45,138.45,0,0,1,41,3.69V7H165.62V3.69a138.45,138.45,0,0,1,16.49,20.5C192.19,39.38,200.35,57.47,206,77.55h-6.31v130.7H206c-5.64,20.09-13.8,38.17-23.88,53.37a138.45,138.45,0,0,1-16.49,20.5v-3.29Z"/><path class="cls-100" d="M103.32,278.83H41.13v3.06a138.23,138.23,0,0,1-16.46-20.47C14.6,246.26,6.46,228.2.83,208.15H7V77.66H.83C6.46,57.61,14.6,39.55,24.67,24.38A138.23,138.23,0,0,1,41.13,3.91V7H165.52V3.91A138.23,138.23,0,0,1,182,24.38C192,39.55,200.19,57.61,205.82,77.66h-6.15V208.15h6.15C200.19,228.2,192,246.26,182,261.43a138.23,138.23,0,0,1-16.46,20.47v-3.06Z"/><path class="cls-101" d="M103.32,278.83H41.23v2.84a138,138,0,0,1-16.44-20.43C14.74,246.09,6.61,228.06,1,208H7V77.76H1c5.62-20,13.75-38.05,23.8-53.19A138,138,0,0,1,41.23,4.14V7H165.42V4.14a138,138,0,0,1,16.44,20.43c10,15.14,18.18,33.17,23.8,53.19h-6V208h6c-5.62,20-13.75,38.05-23.8,53.19a138,138,0,0,1-16.44,20.43v-2.84Z"/><path class="cls-102" d="M103.32,278.83h-62v2.61A137.78,137.78,0,0,1,24.92,261c-10-15.12-18.15-33.12-23.76-53.11H7V77.87H1.16c5.61-20,13.73-38,23.76-53.11A137.78,137.78,0,0,1,41.33,4.36V7h124V4.36a137.78,137.78,0,0,1,16.41,20.4c10,15.12,18.15,33.12,23.76,53.11h-5.82V207.94h5.82c-5.61,20-13.73,38-23.76,53.11a137.78,137.78,0,0,1-16.41,20.4v-2.61Z"/><path class="cls-103" d="M103.32,278.83H41.43v2.39A137.57,137.57,0,0,1,25,260.85c-10-15.09-18.12-33.06-23.72-53H7V78H1.32C6.92,58,15,40,25,25A137.57,137.57,0,0,1,41.43,4.58V7H165.22V4.58A137.57,137.57,0,0,1,181.6,25C191.62,40,199.72,58,205.32,78h-5.65V207.83h5.65c-5.6,20-13.71,37.93-23.72,53a137.57,137.57,0,0,1-16.38,20.37v-2.39Z"/><path class="cls-104" d="M103.32,278.83H41.53V281a137.35,137.35,0,0,1-16.36-20.34c-10-15.07-18.09-33-23.69-52.94H7V78.08H1.49C7.08,58.16,15.17,40.21,25.17,25.14A137.35,137.35,0,0,1,41.53,4.81V7H165.12V4.81a137.35,137.35,0,0,1,16.36,20.34c10,15.07,18.09,33,23.69,52.94h-5.49V207.73h5.49c-5.59,19.92-13.69,37.87-23.69,52.94A137.35,137.35,0,0,1,165.12,281v-2.17Z"/><path class="cls-105" d="M103.32,278.83H41.63v1.94a137.13,137.13,0,0,1-16.33-20.3c-10-15-18.06-33-23.65-52.85H7V78.19H1.65C7.24,58.29,15.32,40.38,25.3,25.34A137.13,137.13,0,0,1,41.63,5V7H165V5a137.12,137.12,0,0,1,16.33,20.3c10,15,18.06,33,23.65,52.85h-5.32V207.62H205c-5.58,19.89-13.66,37.81-23.65,52.85A137.12,137.12,0,0,1,165,280.77v-1.94Z"/><path class="cls-106" d="M103.32,278.83H41.73v1.72a136.9,136.9,0,0,1-16.3-20.27c-10-15-18-32.9-23.61-52.76H7V78.29H1.82C7.39,58.43,15.46,40.55,25.43,25.53A136.9,136.9,0,0,1,41.73,5.26V7H164.92V5.26a136.9,136.9,0,0,1,16.3,20.27c10,15,18,32.9,23.61,52.76h-5.15V207.52h5.15c-5.57,19.86-13.64,37.74-23.61,52.76a136.9,136.9,0,0,1-16.3,20.27v-1.72Z"/><path class="cls-107" d="M103.32,278.83H41.83v1.49a136.67,136.67,0,0,1-16.28-20.24c-10-15-18-32.85-23.57-52.68H7V78.4H2C7.55,58.57,15.6,40.71,25.55,25.72A136.67,136.67,0,0,1,41.83,5.48V7h123V5.48a136.67,136.67,0,0,1,16.28,20.24c10,15,18,32.85,23.57,52.68h-5v129h5c-5.57,19.83-13.62,37.68-23.57,52.68a136.67,136.67,0,0,1-16.28,20.24v-1.49Z"/><path class="cls-108" d="M103.32,278.83H41.93v1.27a136.45,136.45,0,0,1-16.25-20.2c-9.94-15-18-32.8-23.53-52.59H7V78.5H2.15c5.56-19.79,13.6-37.62,23.53-52.59A136.46,136.46,0,0,1,41.93,5.71V7H164.72V5.71A136.46,136.46,0,0,1,181,25.91c9.94,15,18,32.8,23.53,52.59h-4.82v128.8h4.82c-5.56,19.79-13.6,37.62-23.53,52.59a136.45,136.45,0,0,1-16.25,20.2v-1.27Z"/><path class="cls-109" d="M103.32,278.83H42v1a136.23,136.23,0,0,1-16.22-20.17C15.89,244.76,7.86,227,2.31,207.2H7V78.61H2.31C7.86,58.84,15.89,41,25.81,26.1A136.23,136.23,0,0,1,42,5.93V7H164.61v-1A136.23,136.23,0,0,1,180.84,26.1c9.92,14.95,17.95,32.74,23.49,52.51h-4.66V207.2h4.66c-5.55,19.76-13.57,37.56-23.49,52.51a136.23,136.23,0,0,1-16.22,20.17v-1Z"/><path class="cls-110" d="M103.32,278.83H42.13v.82a136,136,0,0,1-16.2-20.14C16,244.59,8,226.82,2.48,207.1H7V78.71H2.48C8,59,16,41.21,25.93,26.29A136,136,0,0,1,42.13,6.15V7H164.51V6.15a136,136,0,0,1,16.2,20.14c9.9,14.92,17.92,32.69,23.45,52.42h-4.49V207.1h4.49c-5.54,19.73-13.55,37.5-23.45,52.42a136,136,0,0,1-16.2,20.14v-.82Z"/><path class="cls-111" d="M103.32,278.83H42.23v.6a135.78,135.78,0,0,1-16.17-20.1C16.18,244.43,8.17,226.69,2.65,207H7V78.82H2.65c5.53-19.7,13.53-37.44,23.42-52.33A135.78,135.78,0,0,1,42.23,6.38V7H164.41v-.6a135.78,135.78,0,0,1,16.17,20.1c9.89,14.9,17.89,32.64,23.42,52.33h-4.33V207H204c-5.53,19.7-13.53,37.44-23.42,52.33a135.78,135.78,0,0,1-16.17,20.1v-.6Z"/><path class="cls-112" d="M103.32,278.83h-61v.37a135.57,135.57,0,0,1-16.14-20.07c-9.87-14.87-17.86-32.58-23.38-52.25H7v-128H2.81C8.33,59.26,16.32,41.55,26.19,26.67A135.57,135.57,0,0,1,42.33,6.6V7h122V6.6a135.56,135.56,0,0,1,16.14,20.07c9.87,14.87,17.86,32.58,23.38,52.25h-4.16v128h4.16c-5.52,19.67-13.51,37.37-23.38,52.25a135.56,135.56,0,0,1-16.14,20.07v-.37Z"/><path class="cls-113" d="M103.32,278.83H42.43V279a135.34,135.34,0,0,1-16.12-20C16.46,244.09,8.49,226.41,3,206.78H7V79H3C8.49,59.39,16.46,41.71,26.32,26.87a135.34,135.34,0,0,1,16.12-20V7H164.21V6.83a135.34,135.34,0,0,1,16.12,20c9.85,14.85,17.83,32.53,23.34,52.16h-4V206.78h4c-5.51,19.63-13.49,37.31-23.34,52.16a135.34,135.34,0,0,1-16.12,20v-.15Z"/><path class="cls-114" d="M103.32,278.83H46.94V283q-2.24-2.05-4.41-4.26a135.11,135.11,0,0,1-16.09-20c-9.84-14.82-17.8-32.48-23.3-52.08H7V79.13H3.14c5.5-19.6,13.46-37.25,23.3-52.08a135.11,135.11,0,0,1,16.09-20q2.17-2.21,4.41-4.26V7H159.7V2.79q2.24,2.05,4.41,4.26a135.12,135.12,0,0,1,16.09,20C190,41.88,198,59.53,203.51,79.13h-3.83V206.67h3.83c-5.5,19.6-13.46,37.25-23.3,52.08a135.12,135.12,0,0,1-16.09,20Q161.94,281,159.7,283v-4.18Z"/><path class="cls-115" d="M103.32,278.83H47v4q-2.24-2-4.4-4.25a134.89,134.89,0,0,1-16.06-20c-9.82-14.8-17.77-32.42-23.26-52H7V79.24H3.31C8.8,59.67,16.75,42,26.57,27.25a134.89,134.89,0,0,1,16.06-20Q44.8,5.07,47,3V7H159.61V3q2.24,2,4.4,4.25a134.89,134.89,0,0,1,16.06,20c9.82,14.8,17.77,32.42,23.26,52h-3.67V206.57h3.67c-5.49,19.57-13.44,37.19-23.26,52a134.89,134.89,0,0,1-16.06,20q-2.17,2.2-4.4,4.25v-4Z"/><path class="cls-116" d="M103.32,278.83H47.13v3.72q-2.23-2-4.4-4.25a134.66,134.66,0,0,1-16-19.94C16.89,243.59,9,226,3.47,206.46H7V79.34H3.47C9,59.81,16.89,42.21,26.7,27.44a134.66,134.66,0,0,1,16-19.94q2.16-2.2,4.4-4.25V7H159.52V3.25q2.23,2,4.4,4.25a134.67,134.67,0,0,1,16,19.94c9.81,14.77,17.74,32.37,23.22,51.9h-3.5V206.46h3.5c-5.48,19.54-13.42,37.13-23.22,51.9a134.67,134.67,0,0,1-16,19.94q-2.16,2.2-4.4,4.25v-3.72Z"/><path class="cls-117" d="M103.32,278.83H47.22v3.49q-2.23-2-4.39-4.24a134.45,134.45,0,0,1-16-19.91C17,243.43,9.11,225.86,3.64,206.36H7V79.45H3.64C9.11,59.94,17,42.38,26.82,27.63a134.45,134.45,0,0,1,16-19.91Q45,5.53,47.22,3.48V7h112.2V3.48q2.23,2,4.39,4.24a134.45,134.45,0,0,1,16,19.91c9.79,14.75,17.71,32.31,23.19,51.82h-3.34V206.36H203c-5.47,19.5-13.4,37.07-23.19,51.82a134.45,134.45,0,0,1-16,19.91q-2.16,2.2-4.39,4.24v-3.49Z"/><path class="cls-118" d="M103.32,278.83h-56v3.26q-2.23-2-4.38-4.23a134.22,134.22,0,0,1-16-19.87C17.18,243.26,9.27,225.72,3.8,206.25H7V79.55H3.8c5.47-19.47,13.37-37,23.15-51.73a134.22,134.22,0,0,1,16-19.87q2.15-2.19,4.38-4.23V7h112V3.71q2.23,2,4.38,4.23a134.23,134.23,0,0,1,16,19.87c9.77,14.73,17.68,32.26,23.15,51.73h-3.17v126.7h3.17c-5.47,19.47-13.37,37-23.15,51.73a134.23,134.23,0,0,1-16,19.87q-2.15,2.19-4.38,4.23v-3.26Z"/><path class="cls-119" d="M103.32,278.83H51.93v6.94A111.32,111.32,0,0,1,43,277.63a134,134,0,0,1-16-19.84C17.32,243.09,9.42,225.59,4,206.15H7V79.66H4C9.42,60.22,17.32,42.71,27.08,28A134,134,0,0,1,43,8.17,111.32,111.32,0,0,1,51.93,0V7h102.8V0a111.3,111.3,0,0,1,8.89,8.14,134,134,0,0,1,16,19.84c9.76,14.7,17.65,32.21,23.11,51.65h-3V206.15h3c-5.46,19.44-13.35,36.94-23.11,51.65a134,134,0,0,1-16,19.84,111.3,111.3,0,0,1-8.89,8.14v-6.94Z"/><path class="cls-120" d="M103.32,278.83H52v6.7a111.13,111.13,0,0,1-8.88-8.12A133.78,133.78,0,0,1,27.2,257.6C17.46,242.93,9.58,225.45,4.13,206H7V79.76H4.13C9.58,60.36,17.46,42.88,27.2,28.2A133.78,133.78,0,0,1,43.14,8.4,111.13,111.13,0,0,1,52,.27V7H154.64V.27a111.13,111.13,0,0,1,8.88,8.13A133.77,133.77,0,0,1,179.44,28.2c9.74,14.68,17.62,32.15,23.07,51.56h-2.84V206h2.84c-5.45,19.41-13.33,36.88-23.07,51.56a133.78,133.78,0,0,1-15.93,19.81,111.13,111.13,0,0,1-8.88,8.13v-6.7Z"/><path class="cls-121" d="M103.32,278.83H52.1v6.47a111,111,0,0,1-8.86-8.11,133.55,133.55,0,0,1-15.91-19.77,182.38,182.38,0,0,1-23-51.47H7V79.87H4.3a182.38,182.38,0,0,1,23-51.47A133.55,133.55,0,0,1,43.24,8.62,111,111,0,0,1,52.1.51V7H154.55V.51a111,111,0,0,1,8.86,8.11,133.56,133.56,0,0,1,15.91,19.77,182.39,182.39,0,0,1,23,51.47h-2.67V205.94h2.67a182.39,182.39,0,0,1-23,51.47,133.56,133.56,0,0,1-15.91,19.77,111,111,0,0,1-8.86,8.11v-6.47Z"/><path class="cls-122" d="M103.32,278.83H52.18v6.23a110.74,110.74,0,0,1-8.85-8.1,133.33,133.33,0,0,1-15.88-19.74,182.08,182.08,0,0,1-23-51.39H7V80H4.46a182.08,182.08,0,0,1,23-51.39A133.33,133.33,0,0,1,43.34,8.84,110.74,110.74,0,0,1,52.18.75V7H154.46V.75a110.76,110.76,0,0,1,8.85,8.1,133.33,133.33,0,0,1,15.88,19.74,182.08,182.08,0,0,1,23,51.39h-2.51V205.83h2.51a182.08,182.08,0,0,1-23,51.39A133.33,133.33,0,0,1,163.31,277a110.76,110.76,0,0,1-8.85,8.1v-6.23Z"/><path class="cls-123" d="M103.32,278.83H52.27v6a110.59,110.59,0,0,1-8.83-8.08A133.11,133.11,0,0,1,27.58,257a181.78,181.78,0,0,1-23-51.3H7V80.08H4.63a181.78,181.78,0,0,1,23-51.3A133.11,133.11,0,0,1,43.44,9.07,110.59,110.59,0,0,1,52.27,1V7H154.38V1a110.57,110.57,0,0,1,8.83,8.08,133.11,133.11,0,0,1,15.85,19.71,181.78,181.78,0,0,1,23,51.3h-2.34V205.73H202a181.78,181.78,0,0,1-23,51.3,133.11,133.11,0,0,1-15.85,19.71,110.57,110.57,0,0,1-8.83,8.08v-6Z"/><path class="cls-124" d="M103.32,278.83h-51v5.75a110.37,110.37,0,0,1-8.82-8.07,132.89,132.89,0,0,1-15.83-19.68A181.47,181.47,0,0,1,4.79,205.62H7V80.18H4.79A181.47,181.47,0,0,1,27.71,29,132.89,132.89,0,0,1,43.54,9.29a110.37,110.37,0,0,1,8.82-8.07V7H154.29V1.22a110.37,110.37,0,0,1,8.82,8.07A132.89,132.89,0,0,1,178.94,29a181.47,181.47,0,0,1,22.92,51.22h-2.18V205.62h2.18a181.47,181.47,0,0,1-22.92,51.22,132.89,132.89,0,0,1-15.83,19.68,110.37,110.37,0,0,1-8.82,8.07v-5.75Z"/><path class="cls-125" d="M103.32,278.83H52.44v5.51a110.22,110.22,0,0,1-8.8-8.06,132.67,132.67,0,0,1-15.8-19.64A181.16,181.16,0,0,1,5,205.52H7V80.29H5A181.16,181.16,0,0,1,27.84,29.16,132.67,132.67,0,0,1,43.64,9.52a110.22,110.22,0,0,1,8.8-8.06V7H154.21V1.46A110.18,110.18,0,0,1,163,9.52a132.67,132.67,0,0,1,15.8,19.64,181.16,181.16,0,0,1,22.88,51.13h-2V205.52h2a181.16,181.16,0,0,1-22.88,51.13A132.67,132.67,0,0,1,163,276.29a110.18,110.18,0,0,1-8.8,8.06v-5.51Z"/><path class="cls-126" d="M103.32,278.83H52.52v5.28a110,110,0,0,1-8.79-8A132.43,132.43,0,0,1,28,256.46a180.86,180.86,0,0,1-22.84-51H7V80.4H5.13A180.86,180.86,0,0,1,28,29.35,132.43,132.43,0,0,1,43.74,9.74a110,110,0,0,1,8.79-8V7h101.6V1.7a110,110,0,0,1,8.79,8,132.44,132.44,0,0,1,15.77,19.61,180.86,180.86,0,0,1,22.84,51h-1.85v125h1.85a180.86,180.86,0,0,1-22.84,51,132.44,132.44,0,0,1-15.77,19.61,110,110,0,0,1-8.79,8v-5.28Z"/><path class="cls-127" d="M103.32,278.83H52.61v5a109.84,109.84,0,0,1-8.77-8,132.22,132.22,0,0,1-15.75-19.58,180.56,180.56,0,0,1-22.8-51H7V80.5H5.29a180.56,180.56,0,0,1,22.8-51A132.21,132.21,0,0,1,43.84,10a109.84,109.84,0,0,1,8.77-8V7H154v-5a109.84,109.84,0,0,1,8.77,8,132.21,132.21,0,0,1,15.75,19.58,180.56,180.56,0,0,1,22.8,51h-1.68V205.31h1.68a180.56,180.56,0,0,1-22.8,51,132.22,132.22,0,0,1-15.75,19.58,109.84,109.84,0,0,1-8.77,8v-5Z"/><path class="cls-128" d="M103.32,278.83H52.7v4.8a109.66,109.66,0,0,1-8.76-8,132,132,0,0,1-15.72-19.54A180.25,180.25,0,0,1,5.46,205.2H7V80.61H5.46A180.25,180.25,0,0,1,28.22,29.73,132,132,0,0,1,43.94,10.19a109.66,109.66,0,0,1,8.76-8V7H154V2.17a109.68,109.68,0,0,1,8.76,8,132,132,0,0,1,15.72,19.54,180.25,180.25,0,0,1,22.76,50.87h-1.52V205.2h1.52a180.25,180.25,0,0,1-22.76,50.87,132,132,0,0,1-15.72,19.54,109.68,109.68,0,0,1-8.76,8v-4.8Z"/><path class="cls-129" d="M103.32,278.83H52.78v4.56a109.47,109.47,0,0,1-8.74-8,131.78,131.78,0,0,1-15.69-19.51A180,180,0,0,1,5.62,205.1H7V80.71H5.62A180,180,0,0,1,28.35,29.92,131.78,131.78,0,0,1,44,10.41a109.47,109.47,0,0,1,8.74-8V7H153.87V2.41a109.47,109.47,0,0,1,8.74,8A131.77,131.77,0,0,1,178.3,29.92,180,180,0,0,1,201,80.71h-1.35V205.1H201a180,180,0,0,1-22.72,50.79,131.77,131.77,0,0,1-15.69,19.51,109.47,109.47,0,0,1-8.74,8v-4.56Z"/><path class="cls-130" d="M103.32,278.83H52.87v4.33a109.27,109.27,0,0,1-8.73-8,131.55,131.55,0,0,1-15.67-19.48A179.64,179.64,0,0,1,5.79,205H7V80.82H5.79a179.64,179.64,0,0,1,22.69-50.7A131.55,131.55,0,0,1,44.14,10.64a109.27,109.27,0,0,1,8.73-8V7H153.78V2.65a109.28,109.28,0,0,1,8.73,8,131.55,131.55,0,0,1,15.67,19.48,179.64,179.64,0,0,1,22.69,50.7h-1.19V205h1.19a179.64,179.64,0,0,1-22.69,50.7,131.55,131.55,0,0,1-15.67,19.48,109.28,109.28,0,0,1-8.73,8v-4.33Z"/><path class="cls-131" d="M103.32,278.83H53v4.09a109.08,109.08,0,0,1-8.71-8A131.32,131.32,0,0,1,28.6,255.5,179.34,179.34,0,0,1,6,204.88H7v-124H6A179.34,179.34,0,0,1,28.6,30.31,131.32,131.32,0,0,1,44.24,10.86a109.08,109.08,0,0,1,8.71-8V7H153.69V2.89a109.1,109.1,0,0,1,8.71,8A131.32,131.32,0,0,1,178,30.31a179.34,179.34,0,0,1,22.65,50.61h-1v124h1A179.34,179.34,0,0,1,178,255.5a131.32,131.32,0,0,1-15.64,19.44,109.1,109.1,0,0,1-8.71,8v-4.09Z"/><path class="cls-131" d="M103.32,278.83H53v3.85a108.91,108.91,0,0,1-8.7-8,131.11,131.11,0,0,1-15.61-19.41A179,179,0,0,1,6.12,204.78H7V81H6.12A179,179,0,0,1,28.73,30.5,131.11,131.11,0,0,1,44.34,11.09a108.91,108.91,0,0,1,8.7-8V7H153.61V3.12a108.89,108.89,0,0,1,8.7,8A131.11,131.11,0,0,1,177.92,30.5,179,179,0,0,1,200.53,81h-.86V204.78h.86a179,179,0,0,1-22.61,50.53,131.11,131.11,0,0,1-15.61,19.41,108.89,108.89,0,0,1-8.7,8v-3.85Z"/><path class="cls-132" d="M103.32,278.83H63.9v4.68c-12.12-7.72-23-18.9-32.19-32.7C13.38,223.2,2,185,2,142.9S13.38,62.61,31.71,35C40.87,21.19,51.79,10,63.9,2.29V7h78.84V2.29c12.12,7.72,23,18.9,32.19,32.7,18.33,27.62,29.66,65.77,29.66,107.91s-11.34,80.29-29.66,107.91c-9.16,13.81-20.08,25-32.19,32.7v-4.68Z"/><path class="cls-133" d="M103.32,278.83H74.46v3.74a78.9,78.9,0,0,1-8.92-4.92c-11.61-7.4-22.07-18.11-30.85-31.34-17.56-26.47-28.43-63-28.43-103.41S17.13,66,34.69,39.49C43.48,26.26,53.93,15.55,65.54,8.15a78.9,78.9,0,0,1,8.92-4.92V7h57.72V3.23a78.9,78.9,0,0,1,8.92,4.92c11.61,7.4,22.07,18.11,30.85,31.34,17.56,26.47,28.43,63,28.43,103.41S189.52,219.85,172,246.32c-8.78,13.23-19.24,23.94-30.85,31.34a78.9,78.9,0,0,1-8.92,4.92v-3.74Z"/><ellipse class="cls-134" cx="103.32" cy="142.9" rx="92.84" ry="139.89"/><ellipse class="cls-135" cx="103.32" cy="142.9" rx="88.62" ry="133.53"/><ellipse class="cls-136" cx="103.32" cy="142.9" rx="84.4" ry="127.17"/><ellipse class="cls-137" cx="103.32" cy="142.9" rx="80.18" ry="120.81"/><ellipse class="cls-138" cx="103.32" cy="142.9" rx="75.96" ry="114.45"/><ellipse class="cls-139" cx="103.32" cy="142.9" rx="71.74" ry="108.1"/><ellipse class="cls-140" cx="103.32" cy="142.9" rx="67.52" ry="101.74"/><ellipse class="cls-141" cx="103.32" cy="142.9" rx="63.3" ry="95.38"/><ellipse class="cls-142" cx="103.32" cy="142.9" rx="59.08" ry="89.02"/><ellipse class="cls-143" cx="103.32" cy="142.9" rx="54.86" ry="82.66"/><ellipse class="cls-144" cx="103.32" cy="142.9" rx="50.64" ry="76.3"/><ellipse class="cls-145" cx="103.32" cy="142.9" rx="46.42" ry="69.94"/><ellipse class="cls-146" cx="103.32" cy="142.9" rx="42.2" ry="63.59"/><ellipse class="cls-147" cx="103.32" cy="142.9" rx="37.98" ry="57.23"/><ellipse class="cls-148" cx="103.32" cy="142.9" rx="33.76" ry="50.87"/><ellipse class="cls-149" cx="103.32" cy="142.9" rx="29.54" ry="44.51"/><ellipse class="cls-150" cx="103.32" cy="142.9" rx="25.32" ry="38.15"/><ellipse class="cls-151" cx="103.32" cy="142.9" rx="21.1" ry="31.79"/><ellipse class="cls-152" cx="103.32" cy="142.9" rx="16.88" ry="25.43"/><ellipse class="cls-153" cx="103.32" cy="142.9" rx="12.66" ry="19.08"/><ellipse class="cls-154" cx="103.32" cy="142.9" rx="8.44" ry="12.72"/><ellipse class="cls-155" cx="103.32" cy="142.9" rx="4.22" ry="6.36"/></g><path class="cls-156" d="M153.51,43.25c18.56-17.57,41.32-32.93,41.8-32.48a10.46,10.46,0,0,1,3.36,7.69V33.11Z"/><path class="cls-157" d="M43.43,35.45C24.88,17.88,11.82,10.32,11.34,10.77A10.46,10.46,0,0,0,8,18.46V33.11Z"/><path class="cls-158" d="M173.75,242.37c17.57,18.56,22.58,31.61,22.13,32.1a10.46,10.46,0,0,1-7.69,3.36H173.54Z"/><path class="cls-159" d="M43.43,249.32c-18.56,17.57-31.61,26.15-32.1,25.7A10.46,10.46,0,0,1,8,267.33V252.68Z"/><rect class="cls-160" x="9.21" y="9.21" width="188.23" height="267.39" rx="9.25" ry="9.25"/><rect class="cls-161" x="19.98" y="31.36" width="166.7" height="223.05"/><circle class="cls-162" cx="103.32" cy="20.29" r="1.46"/><circle class="cls-163" cx="103.32" cy="20.29" r="0.7"/><circle class="cls-164" cx="103.32" cy="266.58" r="7.04"/><path class="cls-165" d="M98.61,261.34a7,7,0,0,1,11.53,3.46C107.2,264.82,98.61,261.34,98.61,261.34Z"/><circle class="cls-166" cx="103.32" cy="266.58" r="6.22"/><path class="cls-167" d="M188.19,9.21H85.07C119.12,97.79,153.92,188,188.27,276.6a9.28,9.28,0,0,0,9.17-9.25V18.46A9.28,9.28,0,0,0,188.19,9.21Z"/></g></g></g></svg>