<?xml version="1.0" encoding="utf-8"?>
<!-- Generator: Adobe Illustrator 21.0.0, SVG Export Plug-In . SVG Version: 6.00 Build 0)  -->
<svg version="1.1" id="Layer_1" xmlns="http://www.w3.org/2000/svg" xmlns:xlink="http://www.w3.org/1999/xlink" x="0px" y="0px"
	 viewBox="0 0 2279.4 1183.5" style="enable-background:new 0 0 2279.4 1183.5;" xml:space="preserve">
<style type="text/css">
	.st0{display:none;fill:#FFFFFF;}
	.st1{fill:#00678C;}
	.st2{fill:#CE8B2C;}
</style>
<g>
	<path class="st0" d="M-110.3-584.7h2500v2500h-2500V-584.7z"/>
	<path class="st1" d="M0,1078.2h75.2v-298L192.7,1040c13.3,31.2,32.4,42.8,69.4,42.8c37,0,55-11.6,68.9-42.8l116.9-259.8v298h75.8
		v-298c0-28.9-11.6-42.8-35.9-50.4c-57.3-17.4-95.5-2.3-112.8,36.5l-115.1,256.9L148.7,766.3c-16.8-38.8-55.6-53.8-113.4-36.5
		C11.6,737.4,0,751.3,0,780.2L0,1078.2L0,1078.2L0,1078.2z M586.2,835.8H662v163.8c-0.6,9.2,2.9,30.1,44,30.6
		c21.4,0.6,163.2,0,164.3,0V834.6h75.8v267.9c0,66-81.6,80.4-119.8,81H587.9v-50.3h239c48.6-5.2,42.8-29.5,42.8-37.6v-19.7H709.5
		c-74.7-0.6-122.7-33.6-123.3-71.2C586.2,1001.3,587.9,836.9,586.2,835.8L586.2,835.8z M2212.3,645.9c-46.3-1.2-82.2,3.5-112.3,16.2
		c-8.7,3.5-22.6,3.5-23.7,14.5c4.6,4.6,5.2,12.1,9.2,18.5c6.9,11.6,19.1,27.2,30.1,35.3c12.2,9.3,24.3,18.5,37,26.6
		c22.6,13.9,48,22,70,35.9c12.7,8.1,25.5,18.5,38.2,27.2c6.4,4.6,10.4,12.2,18.5,15v-1.8c-4-5.2-5.2-12.7-9.2-18.5
		c-5.8-5.8-11.6-11-17.4-16.8c-16.8-22.6-37.6-42.3-60.2-58.4c-18.5-12.7-59-30.1-66.5-51.5l-1.1-1.2c12.7-1.2,27.8-5.8,39.9-9.3
		c19.7-5.2,37.6-4,57.9-9.2c9.3-2.3,18.5-5.2,27.8-8.1v-5.2c-10.4-10.4-17.9-24.3-28.9-34.1c-29.5-25.5-61.9-50.3-95.5-71.2
		c-17.9-11.6-41.1-19.1-60.2-28.9c-7-3.5-18.5-5.2-22.6-11c-10.4-12.7-16.2-29.5-23.7-44.6c-16.8-31.8-33-67.1-47.4-100.7
		c-10.4-22.6-16.8-45.1-29.5-66c-59.6-98.4-124.4-158-224-216.4c-21.4-12.2-46.9-17.4-74.1-23.7c-14.5-0.6-28.9-1.7-43.4-2.3
		c-9.3-4-18.5-15-26.6-20.3c-33-20.8-118.1-66-142.4-6.4c-15.6,37.6,23.2,74.6,36.5,93.7c9.9,13.3,22.6,28.4,29.5,43.4
		c4,9.8,5.2,20.3,9.2,30.7c9.2,25.5,17.9,53.8,30.1,77.5c6.4,12.2,13.3,24.9,21.4,35.9c4.6,6.4,12.7,9.3,14.5,19.7
		c-8.1,11.6-8.7,28.9-13.3,43.4c-20.8,65.4-12.7,146.4,16.8,194.4c9.3,14.5,31.3,46.3,60.8,34.1c26-10.4,20.2-43.4,27.8-72.3
		c1.8-6.9,0.6-11.6,4-16.2v1.2c8.1,16.2,16.2,31.8,23.7,48c17.9,28.4,49.2,57.9,75.2,77.5c13.9,10.4,24.9,28.4,42.2,34.7v-1.8h-1.1
		c-3.5-5.2-8.7-7.5-13.3-11.6c-10.4-10.4-22-23.2-30.1-34.7c-24.3-32.4-45.7-68.3-64.8-105.3c-9.3-17.9-17.4-37.6-24.9-55.5
		c-3.5-7-3.5-17.4-9.3-20.8c-8.7,12.7-21.4,23.7-27.8,39.4c-11,24.9-12.1,55.5-16.2,87.4c-2.3,0.6-1.2,0-2.3,1.2
		c-18.5-4.6-24.9-23.7-31.8-39.9c-17.4-41.1-20.3-107.1-5.2-154.5c4-12.2,21.4-50.3,14.5-61.9c-3.5-11-15-17.4-21.4-26
		c-7.5-11-15.6-24.9-20.8-37c-13.9-32.4-20.8-68.3-35.9-100.7c-7-15-19.1-30.7-28.9-44.6c-11-15.6-23.1-26.6-31.8-45.1
		c-2.9-6.4-6.9-16.8-2.3-23.7c1.1-4.6,3.5-6.4,8.1-7.5c7.5-6.4,28.9,1.7,36.5,5.2c21.4,8.7,39.3,16.8,57.3,28.9
		c8.1,5.8,16.8,16.8,27.2,19.7h12.2c18.5,4,39.3,1.2,56.7,6.4c30.7,9.8,58.4,24.3,83.3,39.9c75.8,48,138.3,116.3,180.5,197.9
		c6.9,13.3,9.8,25.5,16.2,39.4c12.2,28.4,27.2,57.3,39.3,85.1c12.2,27.2,23.7,55,41.1,77.5c8.7,12.2,43.4,18.5,59,24.9
		c11.6,5.2,29.5,9.8,39.9,16.2c19.7,12.2,39.3,26,57.9,39.4C2181.6,619.9,2210.6,634.4,2212.3,645.9L2212.3,645.9z"/>
	<path class="st1" d="M1622,143.1c-9.8,0-16.8,1.2-23.7,2.9v1.2h1.1c4.6,9.3,12.7,15.6,18.5,23.7c4.6,9.3,8.7,18.5,13.3,27.8
		l1.1-1.2c8.1-5.8,12.2-15,12.2-28.9c-3.5-4-4-8.1-6.9-12.2C1634.2,150.6,1626.7,147.7,1622,143.1L1622,143.1z"/>
	<path class="st2" d="M1004,1078.2h217.6c25.5,0,49.8-5.2,69.4-14.5c33-15,48.6-35.3,48.6-61.9v-55.5c0-21.4-17.9-41.7-53.8-55.5
		c-18.5-6.9-41.7-11-64.2-11h-91.4c-30.7,0-45.1-9.3-49.2-29.5c-0.6-2.3-0.6-4.6-0.6-6.9v-34.1c0-1.8,0-4,0.6-6.4
		c4-15.6,12.2-19.7,38.8-22.6h222.8v-50.4h-211.8c-30.7,0-46.9,1.8-61.3,6.4c-44.6,13.9-64.2,35.9-64.2,74.6v44
		c0,34.1,38.2,63.1,103,70c6.9,0.6,14.5,0.6,22,0.6h78.1c2.9,0,5.8,0,8.1,0.6c23.7,2.3,34.1,6.4,41.1,15c4.6,4.6,5.8,8.7,5.8,13.9
		v44c0,5.2-3.5,12.2-10.4,17.9c-7,5.8-18,9.8-32.4,10.4c-2.9,0-4.6,0.6-7.5,0.6H1004V1078.2L1004,1078.2z M1810.7,990.9
		c0,51.5,38.8,80.4,116.3,86.2c7.5,0.6,14.5,1.1,22,1.1h196.8v-50.3h-198.5c-44,0-60.8-11-60.8-37.6V729.9h-75.8L1810.7,990.9
		L1810.7,990.9L1810.7,990.9z M1387.7,993.1V813.8c0-45.7,32.4-73.5,95.5-82.2c6.9-0.6,13.9-1.2,20.2-1.2h143.5
		c7.5,0,13.9,0.6,21.4,1.2c63.1,8.7,94.9,36.5,94.9,82.2v179.4c0,37-13.3,56.7-44.6,70l74.1,67.1h-87.4l-60.2-54.4l-60.8,3.5h-81
		c-13.3,0-28.4-1.7-44-5.8C1411.4,1060.3,1387.7,1034.8,1387.7,993.1L1387.7,993.1z M1469.3,989.1c0,2.3,1.2,4.6,1.8,7.5
		c4,20.8,23.7,32.4,53.8,32.4h68.3l-62.5-56.7h87.4l55,49.8c10.4-5.8,16.8-13.9,19.1-24.3c0.6-2.3,0.6-5.2,0.6-7.5V818.4
		c0-2.3,0-4.6-0.6-6.9c-4-19.7-23.7-30.6-53.2-30.6h-114c-33.6,0-55.5,14.5-55.5,37.6L1469.3,989.1L1469.3,989.1z M2180.5,1078.8h11
		v-42.2h14.5v-8.7h-40.5v8.7h15L2180.5,1078.8L2180.5,1078.8z M2264.4,1078.8h10.4v-50.9h-15.6l-12.7,34.7l-13.9-34.7h-15v50.9h9.8
		V1040h0.6l14.5,38.8h7.5l14.5-38.8L2264.4,1078.8L2264.4,1078.8L2264.4,1078.8z"/>
</g>
</svg>
