<svg xmlns="http://www.w3.org/2000/svg" viewBox="0 0 200 200"><defs><style>.cls-1{fill:#583e6b;}</style></defs><title>icon_twitter</title><g id="Layer_2" data-name="Layer 2"><g id="Layer_1_copy" data-name="Layer 1 copy"><path class="cls-1" d="M100,0A100,100,0,1,0,200,100,100,100,0,0,0,100,0Zm56.69,79.49c0,1.14.07,2.3.07,3.45,0,35.24-26.82,75.88-75.88,75.88a75.47,75.47,0,0,1-40.88-12,52.48,52.48,0,0,0,6.36.38,53.51,53.51,0,0,0,33.12-11.43,26.68,26.68,0,0,1-24.91-18.52,26.84,26.84,0,0,0,12-.46A26.68,26.68,0,0,1,45.22,90.67c0-.12,0-.23,0-.34a26.5,26.5,0,0,0,12.08,3.34A26.69,26.69,0,0,1,49,58.07a75.8,75.8,0,0,0,55,27.87,26.69,26.69,0,0,1,45.45-24.33,53.64,53.64,0,0,0,16.93-6.47,26.77,26.77,0,0,1-11.72,14.76A53.28,53.28,0,0,0,170,65.68,54.2,54.2,0,0,1,156.69,79.49Z"/></g></g></svg>