<svg xmlns="http://www.w3.org/2000/svg" viewBox="0 0 200 200"><defs><style>.cls-1{fill:#583e6b;}</style></defs><title>icon_linkedin</title><g id="Layer_2" data-name="Layer 2"><g id="Layer_1_copy" data-name="Layer 1 copy"><path class="cls-1" d="M100,0A100,100,0,1,0,200,100,100,100,0,0,0,100,0ZM71.09,152.24H49.39V82.45H71.09ZM60.24,72.92A12.58,12.58,0,1,1,72.81,60.35,12.57,12.57,0,0,1,60.24,72.92Zm92.09,79.32H130.65V118.3c0-8.09-.14-18.5-11.27-18.5-11.29,0-13,8.82-13,17.92v34.52H84.69V82.45h20.8V92h.3c2.9-5.49,10-11.27,20.52-11.27,22,0,26,14.45,26,33.24Z"/></g></g></svg>