<svg xmlns="http://www.w3.org/2000/svg" viewBox="0 0 200 200"><defs><style>.cls-1{fill:none;}.cls-2{fill:#583e6b;}</style></defs><title>icon_github</title><g id="Layer_2" data-name="Layer 2"><g id="Layer_1_copy" data-name="Layer 1 copy"><circle class="cls-1" cx="100" cy="100" r="100"/><g id="GitHub_icon" data-name="GitHub icon"><path class="cls-2" d="M100,0A100,100,0,0,0,76.12,197.15c0-12.35-.07-35.89-.07-36.77-.2-.14-19,10.85-28.56-8.34-1.15-2.37-3.46-10.31-9.29-14.79-.2-.2-4.48-2.37-4.88-4.55a1.23,1.23,0,0,1,.68-1.09c.47-.14,7.53-3.05,15.4,6.92,2.37,3.32,7.73,16.21,26.53,8.28a14.54,14.54,0,0,1,5-8.89c-28-3.32-38.2-13-42.2-36.84C36.16,84.74,41,71.23,48.1,64.52c-1.09-1.42-4.68-13.36.88-26,6-1.22,17,3.12,26.73,10.11,13.7-5,39.35-3.66,48.51,0,4.34-3.6,19.95-12.08,26.66-10.11,2,5,4.82,17.16.88,26,8.68,9,11.19,20.56,9.57,34.8-1.9,21.57-12.82,36.09-42.47,38.6,5,3.46,9.5,8.28,9.5,16.42v41.59A100,100,0,0,0,100,0Z"/></g></g></g></svg>